<svg width="693" height="172" viewBox="0 0 693 172" fill="none" xmlns="http://www.w3.org/2000/svg">
<g clip-path="url(#clip0)">
<path d="M228.766 90.6562V74.5625L262.984 15.9688V47.0625L246.734 74.5625H262.984V90.6562H228.766ZM271.422 113V3.46875H288.766V74.5625H297.203V90.6562H288.766V113H271.422ZM345.047 113V96.4375C338.797 95.1875 334.839 87.5312 333.172 73.4688C332.651 69.3021 332.391 64.8229 332.391 60.0312V54.875C332.495 37.6875 335.411 26.8021 341.141 22.2188C342.391 21.1771 343.693 20.5521 345.047 20.3438V3.78125C332.964 3.88542 324.526 11.2812 319.734 25.9688C316.922 34.5104 315.516 45.2396 315.516 58.1562C315.516 88.7812 322.807 106.646 337.391 111.75C339.786 112.583 342.339 113 345.047 113ZM353.953 113C366.245 112.896 374.734 105.24 379.422 90.0312C382.13 81.4896 383.484 70.8646 383.484 58.1562C383.484 28.2604 376.401 10.6562 362.234 5.34375C359.63 4.30208 356.87 3.78125 353.953 3.78125V20.3438C359.786 21.2812 363.693 27.8958 365.672 40.1875C366.401 44.7708 366.766 49.6667 366.766 54.875V60.0312C366.661 82.3229 362.391 94.4583 353.953 96.4375V113ZM400.234 90.6562V74.5625L434.453 15.9688V47.0625L418.203 74.5625H434.453V90.6562H400.234ZM442.891 113V3.46875H460.234V74.5625H468.672V90.6562H460.234V113H442.891Z" fill="#393939"/>
<path d="M115.431 147.78C115.291 149.34 115.221 151.85 115.221 155.31C115.221 158.75 115.301 161.4 115.461 163.26L117.201 163.44C117.241 163.76 117.261 164.02 117.261 164.22C117.261 164.4 117.231 164.67 117.171 165.03C116.451 165.01 115.411 165 114.051 165C112.711 165 111.731 165.01 111.111 165.03C111.051 164.73 111.021 164.48 111.021 164.28C111.021 164.08 111.041 163.8 111.081 163.44L112.731 163.26C112.891 161.12 112.971 158.41 112.971 155.13C112.971 151.83 112.881 149.38 112.701 147.78C111.921 147.8 110.841 147.87 109.461 147.99L109.371 150.21C109.051 150.27 108.751 150.3 108.471 150.3C108.191 150.3 107.931 150.29 107.691 150.27C107.631 148.63 107.541 147.11 107.421 145.71L107.571 145.56C109.051 145.74 111.421 145.83 114.681 145.83C117.941 145.83 119.981 145.74 120.801 145.56L120.951 145.71C120.811 147.25 120.721 148.67 120.681 149.97C120.441 149.99 120.181 150 119.901 150C119.641 150 119.341 149.97 119.001 149.91L118.911 147.9C118.071 147.86 116.911 147.82 115.431 147.78ZM137.704 154.5L137.674 157.41C137.674 159.53 137.794 161.48 138.034 163.26L139.084 163.35C139.124 163.67 139.144 163.95 139.144 164.19C139.144 164.41 139.114 164.69 139.054 165.03C138.354 165.01 137.524 165 136.564 165C135.624 165 134.814 165.01 134.134 165.03C134.074 164.73 134.044 164.47 134.044 164.25C134.044 164.01 134.064 163.71 134.104 163.35L135.154 163.26C135.314 161.1 135.394 159.18 135.394 157.5C135.394 155.82 135.244 154.58 134.944 153.78C134.664 152.98 134.084 152.58 133.204 152.58C132.084 152.58 130.884 153.22 129.604 154.5V157.32C129.604 159.78 129.694 161.76 129.874 163.26L130.984 163.35C131.024 163.67 131.044 163.95 131.044 164.19C131.044 164.41 131.014 164.69 130.954 165.03C130.254 165.01 129.444 165 128.524 165C127.604 165 126.804 165.01 126.124 165.03C126.064 164.73 126.034 164.47 126.034 164.25C126.034 164.01 126.054 163.71 126.094 163.35L127.144 163.26C127.324 161.38 127.414 159.64 127.414 158.04V153.93C127.414 150.33 127.364 147.88 127.264 146.58L126.064 146.49C126.004 146.23 125.974 145.93 125.974 145.59C125.974 145.23 125.984 144.97 126.004 144.81C127.824 144.71 129.124 144.62 129.904 144.54L130.024 144.69C129.744 147.07 129.604 149.75 129.604 152.73C130.204 152.13 130.924 151.64 131.764 151.26C132.604 150.86 133.404 150.66 134.164 150.66C136.524 150.66 137.704 151.94 137.704 154.5ZM149.95 158.34C148.97 158.34 148.06 158.29 147.22 158.19C147.26 161.59 148.39 163.29 150.61 163.29C151.73 163.29 152.97 162.67 154.33 161.43C154.91 162.03 155.28 162.82 155.44 163.8C153.8 164.9 152.06 165.45 150.22 165.45C148.38 165.45 147.01 164.82 146.11 163.56C145.21 162.28 144.76 160.41 144.76 157.95C144.76 155.49 145.26 153.66 146.26 152.46C147.28 151.26 148.72 150.66 150.58 150.66C151.96 150.66 153.1 151.08 154 151.92C154.9 152.76 155.35 153.79 155.35 155.01C155.37 156.23 155.27 157.1 155.05 157.62C153.55 158.1 151.85 158.34 149.95 158.34ZM150.37 152.34C148.51 152.34 147.47 153.71 147.25 156.45C148.15 156.55 149.14 156.6 150.22 156.6C151.3 156.6 152.14 156.5 152.74 156.3C152.82 155.8 152.86 155.43 152.86 155.19C152.86 154.31 152.63 153.62 152.17 153.12C151.73 152.6 151.13 152.34 150.37 152.34ZM171.989 163.26C172.169 161.26 172.259 159.43 172.259 157.77C172.259 156.09 172.179 154.43 172.019 152.79L170.909 152.7C170.849 152.38 170.819 152.05 170.819 151.71C170.819 151.37 170.829 151.14 170.849 151.02C171.869 151 173.109 150.91 174.569 150.75L174.719 150.9C174.699 151.02 174.639 151.61 174.539 152.67C174.999 152.09 175.529 151.61 176.129 151.23C176.749 150.85 177.349 150.66 177.929 150.66C178.529 150.66 179.049 150.87 179.489 151.29C179.929 151.71 180.149 152.26 180.149 152.94C180.149 154.06 179.679 154.62 178.739 154.62C178.199 154.62 177.769 154.45 177.449 154.11C177.129 153.75 176.969 153.28 176.969 152.7C176.929 152.68 176.859 152.67 176.759 152.67C176.019 152.67 175.259 153.23 174.479 154.35C174.459 154.91 174.449 156.17 174.449 158.13C174.449 160.07 174.539 161.78 174.719 163.26L175.829 163.35C175.869 163.79 175.889 164.1 175.889 164.28C175.889 164.44 175.859 164.69 175.799 165.03C175.239 165.01 174.419 165 173.339 165C172.259 165 171.469 165.01 170.969 165.03C170.909 164.73 170.879 164.45 170.879 164.19C170.879 163.91 170.899 163.63 170.939 163.35L171.989 163.26ZM189.8 158.34C188.82 158.34 187.91 158.29 187.07 158.19C187.11 161.59 188.24 163.29 190.46 163.29C191.58 163.29 192.82 162.67 194.18 161.43C194.76 162.03 195.13 162.82 195.29 163.8C193.65 164.9 191.91 165.45 190.07 165.45C188.23 165.45 186.86 164.82 185.96 163.56C185.06 162.28 184.61 160.41 184.61 157.95C184.61 155.49 185.11 153.66 186.11 152.46C187.13 151.26 188.57 150.66 190.43 150.66C191.81 150.66 192.95 151.08 193.85 151.92C194.75 152.76 195.2 153.79 195.2 155.01C195.22 156.23 195.12 157.1 194.9 157.62C193.4 158.1 191.7 158.34 189.8 158.34ZM190.22 152.34C188.36 152.34 187.32 153.71 187.1 156.45C188 156.55 188.99 156.6 190.07 156.6C191.15 156.6 191.99 156.5 192.59 156.3C192.67 155.8 192.71 155.43 192.71 155.19C192.71 154.31 192.48 153.62 192.02 153.12C191.58 152.6 190.98 152.34 190.22 152.34ZM205.825 150.66C207.225 150.66 208.335 150.99 209.155 151.65C209.995 152.31 210.415 153.17 210.415 154.23C210.415 155.27 209.945 155.79 209.005 155.79C208.445 155.79 208.005 155.62 207.685 155.28C207.385 154.92 207.235 154.5 207.235 154.02C207.235 153.54 207.315 153.14 207.475 152.82C206.995 152.44 206.425 152.25 205.765 152.25C205.105 152.25 204.555 152.41 204.115 152.73C203.695 153.05 203.485 153.52 203.485 154.14C203.485 154.76 203.725 155.3 204.205 155.76C204.705 156.22 205.305 156.6 206.005 156.9C206.705 157.18 207.405 157.48 208.105 157.8C208.805 158.1 209.395 158.54 209.875 159.12C210.375 159.68 210.625 160.38 210.625 161.22C210.625 162.52 210.185 163.55 209.305 164.31C208.445 165.07 207.265 165.45 205.765 165.45C204.265 165.45 203.035 165.13 202.075 164.49C201.135 163.85 200.665 163.01 200.665 161.97V161.85C200.665 160.77 201.135 160.23 202.075 160.23C202.635 160.23 203.065 160.41 203.365 160.77C203.685 161.11 203.845 161.51 203.845 161.97C203.845 162.43 203.795 162.79 203.695 163.05C204.095 163.31 204.725 163.44 205.585 163.44C206.465 163.44 207.125 163.29 207.565 162.99C208.025 162.69 208.255 162.28 208.255 161.76C208.255 161.22 208.005 160.74 207.505 160.32C207.025 159.9 206.435 159.55 205.735 159.27C205.035 158.97 204.335 158.66 203.635 158.34C202.935 158 202.335 157.52 201.835 156.9C201.355 156.28 201.115 155.54 201.115 154.68C201.115 153.44 201.545 152.46 202.405 151.74C203.285 151.02 204.425 150.66 205.825 150.66ZM216.245 157.89C216.245 153.07 218.125 150.66 221.885 150.66C225.645 150.66 227.525 153.07 227.525 157.89C227.525 160.11 227.175 161.87 226.475 163.17C225.675 164.69 224.145 165.45 221.885 165.45C219.625 165.45 218.095 164.69 217.295 163.17C216.595 161.87 216.245 160.11 216.245 157.89ZM218.705 157.83C218.705 161.47 219.765 163.29 221.885 163.29C224.005 163.29 225.065 161.47 225.065 157.83C225.065 154.17 224.005 152.34 221.885 152.34C219.765 152.34 218.705 154.17 218.705 157.83ZM234.329 161.13L234.359 157.92C234.359 156.14 234.279 154.43 234.119 152.79L233.009 152.7C232.949 152.38 232.919 152.05 232.919 151.71C232.919 151.37 232.929 151.14 232.949 151.02C233.969 151 235.209 150.91 236.669 150.75L236.819 150.9C236.639 152.08 236.549 154.19 236.549 157.23V158.64C236.549 160.32 236.699 161.52 236.999 162.24C237.319 162.94 237.849 163.29 238.589 163.29C239.629 163.29 240.759 162.68 241.979 161.46C242.019 161 242.039 160.11 242.039 158.79V157.92C242.039 156.14 241.959 154.43 241.799 152.79L240.689 152.7C240.629 152.36 240.599 152.03 240.599 151.71C240.599 151.37 240.609 151.14 240.629 151.02C241.649 151 242.889 150.91 244.349 150.75L244.499 150.9C244.319 152.08 244.229 154.19 244.229 157.23V158.19C244.229 159.83 244.319 161.43 244.499 162.99L245.609 163.05C245.649 163.49 245.669 163.82 245.669 164.04C245.669 164.24 245.639 164.49 245.579 164.79C244.799 164.83 243.709 164.93 242.309 165.09C242.149 164.73 242.029 164.23 241.949 163.59C240.449 164.83 239.069 165.45 237.809 165.45C236.549 165.45 235.649 165.1 235.109 164.4C234.589 163.7 234.329 162.61 234.329 161.13ZM252.058 163.26C252.238 161.26 252.328 159.43 252.328 157.77C252.328 156.09 252.248 154.43 252.088 152.79L250.978 152.7C250.918 152.38 250.888 152.05 250.888 151.71C250.888 151.37 250.898 151.14 250.918 151.02C251.938 151 253.178 150.91 254.638 150.75L254.788 150.9C254.768 151.02 254.708 151.61 254.608 152.67C255.068 152.09 255.598 151.61 256.198 151.23C256.818 150.85 257.418 150.66 257.998 150.66C258.598 150.66 259.118 150.87 259.558 151.29C259.998 151.71 260.218 152.26 260.218 152.94C260.218 154.06 259.748 154.62 258.808 154.62C258.268 154.62 257.838 154.45 257.518 154.11C257.198 153.75 257.038 153.28 257.038 152.7C256.998 152.68 256.928 152.67 256.828 152.67C256.088 152.67 255.328 153.23 254.548 154.35C254.528 154.91 254.518 156.17 254.518 158.13C254.518 160.07 254.608 161.78 254.788 163.26L255.898 163.35C255.938 163.79 255.958 164.1 255.958 164.28C255.958 164.44 255.928 164.69 255.868 165.03C255.308 165.01 254.488 165 253.408 165C252.328 165 251.538 165.01 251.038 165.03C250.978 164.73 250.948 164.45 250.948 164.19C250.948 163.91 250.968 163.63 251.008 163.35L252.058 163.26ZM273.438 155.79C272.878 155.79 272.438 155.62 272.118 155.28C271.818 154.92 271.668 154.49 271.668 153.99C271.668 153.47 271.738 153.08 271.878 152.82C271.438 152.48 270.918 152.31 270.318 152.31C268.198 152.31 267.138 154.19 267.138 157.95C267.138 159.67 267.408 160.99 267.948 161.91C268.488 162.83 269.248 163.29 270.228 163.29C271.228 163.29 272.458 162.67 273.918 161.43C274.498 162.03 274.868 162.82 275.028 163.8C273.348 164.9 271.638 165.45 269.898 165.45C268.158 165.45 266.848 164.82 265.968 163.56C265.108 162.3 264.678 160.44 264.678 157.98C264.678 155.52 265.158 153.69 266.118 152.49C267.078 151.27 268.438 150.66 270.198 150.66C271.578 150.66 272.698 150.99 273.558 151.65C274.418 152.29 274.848 153.14 274.848 154.2C274.848 155.26 274.378 155.79 273.438 155.79ZM285.759 158.34C284.779 158.34 283.869 158.29 283.029 158.19C283.069 161.59 284.199 163.29 286.419 163.29C287.539 163.29 288.779 162.67 290.139 161.43C290.719 162.03 291.089 162.82 291.249 163.8C289.609 164.9 287.869 165.45 286.029 165.45C284.189 165.45 282.819 164.82 281.919 163.56C281.019 162.28 280.569 160.41 280.569 157.95C280.569 155.49 281.069 153.66 282.069 152.46C283.089 151.26 284.529 150.66 286.389 150.66C287.769 150.66 288.909 151.08 289.809 151.92C290.709 152.76 291.159 153.79 291.159 155.01C291.179 156.23 291.079 157.1 290.859 157.62C289.359 158.1 287.659 158.34 285.759 158.34ZM286.179 152.34C284.319 152.34 283.279 153.71 283.059 156.45C283.959 156.55 284.949 156.6 286.029 156.6C287.109 156.6 287.949 156.5 288.549 156.3C288.629 155.8 288.669 155.43 288.669 155.19C288.669 154.31 288.439 153.62 287.979 153.12C287.539 152.6 286.939 152.34 286.179 152.34ZM315.778 155.79C315.218 155.79 314.778 155.62 314.458 155.28C314.158 154.92 314.008 154.49 314.008 153.99C314.008 153.47 314.078 153.08 314.218 152.82C313.778 152.48 313.258 152.31 312.658 152.31C310.538 152.31 309.478 154.19 309.478 157.95C309.478 159.67 309.748 160.99 310.288 161.91C310.828 162.83 311.588 163.29 312.568 163.29C313.568 163.29 314.798 162.67 316.258 161.43C316.838 162.03 317.208 162.82 317.368 163.8C315.688 164.9 313.978 165.45 312.238 165.45C310.498 165.45 309.188 164.82 308.308 163.56C307.448 162.3 307.018 160.44 307.018 157.98C307.018 155.52 307.498 153.69 308.458 152.49C309.418 151.27 310.778 150.66 312.538 150.66C313.918 150.66 315.038 150.99 315.898 151.65C316.758 152.29 317.188 153.14 317.188 154.2C317.188 155.26 316.718 155.79 315.778 155.79ZM322.909 157.89C322.909 153.07 324.789 150.66 328.549 150.66C332.309 150.66 334.189 153.07 334.189 157.89C334.189 160.11 333.839 161.87 333.139 163.17C332.339 164.69 330.809 165.45 328.549 165.45C326.289 165.45 324.759 164.69 323.959 163.17C323.259 161.87 322.909 160.11 322.909 157.89ZM325.369 157.83C325.369 161.47 326.429 163.29 328.549 163.29C330.669 163.29 331.729 161.47 331.729 157.83C331.729 154.17 330.669 152.34 328.549 152.34C326.429 152.34 325.369 154.17 325.369 157.83ZM340.993 161.13L341.023 157.92C341.023 156.14 340.943 154.43 340.783 152.79L339.673 152.7C339.613 152.38 339.583 152.05 339.583 151.71C339.583 151.37 339.593 151.14 339.613 151.02C340.633 151 341.873 150.91 343.333 150.75L343.483 150.9C343.303 152.08 343.213 154.19 343.213 157.23V158.64C343.213 160.32 343.363 161.52 343.663 162.24C343.983 162.94 344.513 163.29 345.253 163.29C346.293 163.29 347.423 162.68 348.643 161.46C348.683 161 348.703 160.11 348.703 158.79V157.92C348.703 156.14 348.623 154.43 348.463 152.79L347.353 152.7C347.293 152.36 347.263 152.03 347.263 151.71C347.263 151.37 347.273 151.14 347.293 151.02C348.313 151 349.553 150.91 351.013 150.75L351.163 150.9C350.983 152.08 350.893 154.19 350.893 157.23V158.19C350.893 159.83 350.983 161.43 351.163 162.99L352.273 163.05C352.313 163.49 352.333 163.82 352.333 164.04C352.333 164.24 352.303 164.49 352.243 164.79C351.463 164.83 350.373 164.93 348.973 165.09C348.813 164.73 348.693 164.23 348.613 163.59C347.113 164.83 345.733 165.45 344.473 165.45C343.213 165.45 342.313 165.1 341.773 164.4C341.253 163.7 340.993 162.61 340.993 161.13ZM359.382 158.04V153.93C359.382 150.33 359.332 147.88 359.232 146.58L358.032 146.49C357.972 146.23 357.942 145.93 357.942 145.59C357.942 145.23 357.952 144.97 357.972 144.81C359.792 144.71 361.092 144.62 361.872 144.54L361.992 144.69C361.712 147.07 361.572 149.63 361.572 152.37V157.32C361.572 159.78 361.662 161.76 361.842 163.26L362.952 163.35C362.992 163.67 363.012 163.95 363.012 164.19C363.012 164.41 362.982 164.69 362.922 165.03C362.222 165.01 361.412 165 360.492 165C359.572 165 358.772 165.01 358.092 165.03C358.032 164.73 358.002 164.47 358.002 164.25C358.002 164.01 358.022 163.71 358.062 163.35L359.112 163.26C359.292 161.38 359.382 159.64 359.382 158.04ZM377.26 151.38L377.29 149.49C377.29 148.29 377.25 147.32 377.17 146.58L375.97 146.49C375.91 146.25 375.88 145.94 375.88 145.56C375.88 145.18 375.89 144.93 375.91 144.81C377.69 144.73 378.99 144.64 379.81 144.54L379.93 144.69C379.63 147.31 379.48 150.69 379.48 154.83C379.48 158.95 379.57 161.67 379.75 162.99L380.86 163.05C380.9 163.49 380.92 163.82 380.92 164.04C380.92 164.24 380.89 164.49 380.83 164.79C380.05 164.83 378.96 164.93 377.56 165.09C377.4 164.77 377.28 164.26 377.2 163.56C375.82 164.82 374.42 165.45 373 165.45C371.6 165.45 370.52 164.81 369.76 163.53C369.02 162.25 368.65 160.44 368.65 158.1C368.65 155.74 369.12 153.91 370.06 152.61C371.02 151.31 372.39 150.66 374.17 150.66C375.17 150.66 376.2 150.9 377.26 151.38ZM374.2 152.43C372.2 152.43 371.2 154.42 371.2 158.4C371.2 159.9 371.42 161.07 371.86 161.91C372.32 162.73 372.95 163.14 373.75 163.14C374.29 163.14 374.88 162.97 375.52 162.63C376.18 162.29 376.75 161.86 377.23 161.34C377.27 158.86 377.29 156.18 377.29 153.3C376.01 152.72 374.98 152.43 374.2 152.43ZM408.325 154.5L408.295 157.41C408.295 159.51 408.415 161.46 408.655 163.26L409.705 163.35C409.745 163.79 409.765 164.1 409.765 164.28C409.765 164.44 409.735 164.69 409.675 165.03C409.115 165.01 408.275 165 407.155 165C406.035 165 405.235 165.01 404.755 165.03C404.695 164.73 404.665 164.45 404.665 164.19C404.665 163.91 404.685 163.63 404.725 163.35L405.775 163.26C405.935 160.92 406.015 158.92 406.015 157.26C406.015 155.58 405.845 154.38 405.505 153.66C405.185 152.94 404.625 152.58 403.825 152.58C402.745 152.58 401.555 153.23 400.255 154.53C400.235 155.05 400.225 156.27 400.225 158.19C400.225 160.09 400.315 161.78 400.495 163.26L401.605 163.35C401.645 163.79 401.665 164.1 401.665 164.28C401.665 164.44 401.635 164.69 401.575 165.03C401.015 165.01 400.195 165 399.115 165C398.035 165 397.245 165.01 396.745 165.03C396.685 164.73 396.655 164.45 396.655 164.19C396.655 163.91 396.675 163.63 396.715 163.35L397.765 163.26C397.945 161.26 398.035 159.43 398.035 157.77C398.035 156.09 397.955 154.43 397.795 152.79L396.685 152.7C396.625 152.36 396.595 152.03 396.595 151.71C396.595 151.37 396.605 151.14 396.625 151.02C397.645 151 398.885 150.91 400.345 150.75L400.495 150.9C400.455 151.14 400.395 151.74 400.315 152.7C400.935 152.08 401.655 151.59 402.475 151.23C403.295 150.85 404.065 150.66 404.785 150.66C407.145 150.66 408.325 151.94 408.325 154.5ZM415.381 157.89C415.381 153.07 417.261 150.66 421.021 150.66C424.781 150.66 426.661 153.07 426.661 157.89C426.661 160.11 426.311 161.87 425.611 163.17C424.811 164.69 423.281 165.45 421.021 165.45C418.761 165.45 417.231 164.69 416.431 163.17C415.731 161.87 415.381 160.11 415.381 157.89ZM417.841 157.83C417.841 161.47 418.901 163.29 421.021 163.29C423.141 163.29 424.201 161.47 424.201 157.83C424.201 154.17 423.141 152.34 421.021 152.34C418.901 152.34 417.841 154.17 417.841 157.83ZM433.256 160.14C433.256 160.14 433.276 157.91 433.316 153.45C433.316 153.15 433.306 152.92 433.286 152.76C432.446 152.76 431.846 152.77 431.486 152.79C431.366 152.47 431.306 152.16 431.306 151.86C431.306 151.54 431.326 151.3 431.366 151.14H433.196L433.046 148.92C433.546 148.76 434.066 148.68 434.606 148.68C435.166 148.68 435.626 148.72 435.986 148.8L435.716 151.11C436.816 151.09 437.926 151.03 439.046 150.93C439.166 151.19 439.226 151.48 439.226 151.8C439.226 152.1 439.186 152.47 439.106 152.91C438.366 152.87 437.196 152.83 435.596 152.79C435.556 153.19 435.536 153.78 435.536 154.56V160.65C435.536 161.17 435.556 161.6 435.596 161.94C435.656 162.26 435.786 162.56 435.986 162.84C436.206 163.1 436.516 163.23 436.916 163.23C437.796 163.23 438.636 162.92 439.436 162.3C439.856 162.9 440.066 163.71 440.066 164.73C438.966 165.21 438.006 165.45 437.186 165.45C436.386 165.45 435.746 165.34 435.266 165.12C434.786 164.92 434.416 164.68 434.156 164.4C433.896 164.1 433.696 163.69 433.556 163.17C433.356 162.43 433.256 161.42 433.256 160.14ZM463.499 156.87C463.499 154.01 462.649 152.58 460.949 152.58C459.729 152.58 458.569 153.23 457.469 154.53V162.6C458.389 163.06 459.359 163.29 460.379 163.29C462.459 163.29 463.499 161.15 463.499 156.87ZM457.469 152.7C458.869 151.34 460.279 150.66 461.699 150.66C463.119 150.66 464.199 151.24 464.939 152.4C465.679 153.56 466.049 155.18 466.049 157.26C466.049 160.08 465.559 162.15 464.579 163.47C463.619 164.79 462.099 165.45 460.019 165.45C458.719 165.45 456.989 165.19 454.829 164.67C455.149 162.71 455.309 159.53 455.309 155.13C455.309 150.73 455.259 147.88 455.159 146.58L453.959 146.49C453.899 146.25 453.869 145.94 453.869 145.56C453.869 145.18 453.879 144.93 453.899 144.81C455.679 144.73 456.979 144.64 457.799 144.54L457.919 144.69C457.639 147.09 457.489 149.76 457.469 152.7ZM477.103 158.34C476.123 158.34 475.213 158.29 474.373 158.19C474.413 161.59 475.543 163.29 477.763 163.29C478.883 163.29 480.123 162.67 481.483 161.43C482.063 162.03 482.433 162.82 482.593 163.8C480.953 164.9 479.213 165.45 477.373 165.45C475.533 165.45 474.163 164.82 473.263 163.56C472.363 162.28 471.913 160.41 471.913 157.95C471.913 155.49 472.413 153.66 473.413 152.46C474.433 151.26 475.873 150.66 477.733 150.66C479.113 150.66 480.253 151.08 481.153 151.92C482.053 152.76 482.503 153.79 482.503 155.01C482.523 156.23 482.423 157.1 482.203 157.62C480.703 158.1 479.003 158.34 477.103 158.34ZM477.523 152.34C475.663 152.34 474.623 153.71 474.403 156.45C475.303 156.55 476.293 156.6 477.373 156.6C478.453 156.6 479.293 156.5 479.893 156.3C479.973 155.8 480.013 155.43 480.013 155.19C480.013 154.31 479.783 153.62 479.323 153.12C478.883 152.6 478.283 152.34 477.523 152.34ZM500.012 158.76L499.922 152.76C499.042 152.76 498.472 152.77 498.212 152.79C498.092 152.45 498.032 152.12 498.032 151.8C498.032 151.48 498.052 151.26 498.092 151.14H499.832C499.812 150.96 499.802 150.56 499.802 149.94C499.802 146.48 501.192 144.75 503.972 144.75C504.892 144.75 505.712 144.95 506.432 145.35C507.172 145.75 507.542 146.38 507.542 147.24C507.542 148.36 507.072 148.92 506.132 148.92C505.592 148.92 505.162 148.76 504.842 148.44C504.542 148.12 504.382 147.76 504.362 147.36C504.362 146.96 504.382 146.68 504.422 146.52C504.242 146.44 504.052 146.4 503.852 146.4C502.612 146.4 501.992 147.64 501.992 150.12C501.992 150.62 502.002 150.95 502.022 151.11C503.522 151.09 504.772 151.03 505.772 150.93C505.892 151.19 505.952 151.48 505.952 151.8C505.952 152.12 505.912 152.49 505.832 152.91C505.552 152.89 504.332 152.85 502.172 152.79V155.61L502.202 157.89C502.202 160.07 502.302 161.86 502.502 163.26L503.582 163.35C503.622 163.53 503.642 163.77 503.642 164.07C503.642 164.37 503.612 164.69 503.552 165.03C502.992 165.01 502.172 165 501.092 165C500.012 165 499.222 165.01 498.722 165.03C498.662 164.73 498.632 164.45 498.632 164.19C498.632 163.91 498.652 163.63 498.692 163.35L499.712 163.26C499.912 161.32 500.012 159.82 500.012 158.76ZM511.293 157.89C511.293 153.07 513.173 150.66 516.933 150.66C520.693 150.66 522.573 153.07 522.573 157.89C522.573 160.11 522.223 161.87 521.523 163.17C520.723 164.69 519.193 165.45 516.933 165.45C514.673 165.45 513.143 164.69 512.343 163.17C511.643 161.87 511.293 160.11 511.293 157.89ZM513.753 157.83C513.753 161.47 514.813 163.29 516.933 163.29C519.053 163.29 520.113 161.47 520.113 157.83C520.113 154.17 519.053 152.34 516.933 152.34C514.813 152.34 513.753 154.17 513.753 157.83ZM529.378 161.13L529.408 157.92C529.408 156.14 529.328 154.43 529.168 152.79L528.058 152.7C527.998 152.38 527.968 152.05 527.968 151.71C527.968 151.37 527.978 151.14 527.998 151.02C529.018 151 530.258 150.91 531.718 150.75L531.868 150.9C531.688 152.08 531.598 154.19 531.598 157.23V158.64C531.598 160.32 531.748 161.52 532.048 162.24C532.368 162.94 532.898 163.29 533.638 163.29C534.678 163.29 535.808 162.68 537.028 161.46C537.068 161 537.088 160.11 537.088 158.79V157.92C537.088 156.14 537.008 154.43 536.848 152.79L535.738 152.7C535.678 152.36 535.648 152.03 535.648 151.71C535.648 151.37 535.658 151.14 535.678 151.02C536.698 151 537.938 150.91 539.398 150.75L539.548 150.9C539.368 152.08 539.278 154.19 539.278 157.23V158.19C539.278 159.83 539.368 161.43 539.548 162.99L540.658 163.05C540.698 163.49 540.718 163.82 540.718 164.04C540.718 164.24 540.688 164.49 540.628 164.79C539.848 164.83 538.758 164.93 537.358 165.09C537.198 164.73 537.078 164.23 536.998 163.59C535.498 164.83 534.118 165.45 532.858 165.45C531.598 165.45 530.698 165.1 530.158 164.4C529.638 163.7 529.378 162.61 529.378 161.13ZM558.267 154.5L558.237 157.41C558.237 159.51 558.357 161.46 558.597 163.26L559.647 163.35C559.687 163.79 559.707 164.1 559.707 164.28C559.707 164.44 559.677 164.69 559.617 165.03C559.057 165.01 558.217 165 557.097 165C555.977 165 555.177 165.01 554.697 165.03C554.637 164.73 554.607 164.45 554.607 164.19C554.607 163.91 554.627 163.63 554.667 163.35L555.717 163.26C555.877 160.92 555.957 158.92 555.957 157.26C555.957 155.58 555.787 154.38 555.447 153.66C555.127 152.94 554.567 152.58 553.767 152.58C552.687 152.58 551.497 153.23 550.197 154.53C550.177 155.05 550.167 156.27 550.167 158.19C550.167 160.09 550.257 161.78 550.437 163.26L551.547 163.35C551.587 163.79 551.607 164.1 551.607 164.28C551.607 164.44 551.577 164.69 551.517 165.03C550.957 165.01 550.137 165 549.057 165C547.977 165 547.187 165.01 546.687 165.03C546.627 164.73 546.597 164.45 546.597 164.19C546.597 163.91 546.617 163.63 546.657 163.35L547.707 163.26C547.887 161.26 547.977 159.43 547.977 157.77C547.977 156.09 547.897 154.43 547.737 152.79L546.627 152.7C546.567 152.36 546.537 152.03 546.537 151.71C546.537 151.37 546.547 151.14 546.567 151.02C547.587 151 548.827 150.91 550.287 150.75L550.437 150.9C550.397 151.14 550.337 151.74 550.257 152.7C550.877 152.08 551.597 151.59 552.417 151.23C553.237 150.85 554.007 150.66 554.727 150.66C557.087 150.66 558.267 151.94 558.267 154.5ZM574.083 151.38L574.113 149.49C574.113 148.29 574.073 147.32 573.993 146.58L572.793 146.49C572.733 146.25 572.703 145.94 572.703 145.56C572.703 145.18 572.713 144.93 572.733 144.81C574.513 144.73 575.813 144.64 576.633 144.54L576.753 144.69C576.453 147.31 576.303 150.69 576.303 154.83C576.303 158.95 576.393 161.67 576.573 162.99L577.683 163.05C577.723 163.49 577.743 163.82 577.743 164.04C577.743 164.24 577.713 164.49 577.653 164.79C576.873 164.83 575.783 164.93 574.383 165.09C574.223 164.77 574.103 164.26 574.023 163.56C572.643 164.82 571.243 165.45 569.823 165.45C568.423 165.45 567.343 164.81 566.583 163.53C565.843 162.25 565.473 160.44 565.473 158.1C565.473 155.74 565.943 153.91 566.883 152.61C567.843 151.31 569.213 150.66 570.993 150.66C571.993 150.66 573.023 150.9 574.083 151.38ZM571.023 152.43C569.023 152.43 568.023 154.42 568.023 158.4C568.023 159.9 568.243 161.07 568.683 161.91C569.143 162.73 569.773 163.14 570.573 163.14C571.113 163.14 571.703 162.97 572.343 162.63C573.003 162.29 573.573 161.86 574.053 161.34C574.093 158.86 574.113 156.18 574.113 153.3C572.833 152.72 571.803 152.43 571.023 152.43ZM588.543 163.35C588.543 163.95 588.363 164.45 588.003 164.85C587.643 165.25 587.093 165.45 586.353 165.45C585.213 165.45 584.643 164.87 584.643 163.71C584.643 162.27 585.373 161.55 586.833 161.55C587.973 161.55 588.543 162.15 588.543 163.35Z" fill="#393939"/>
</g>
<defs>
<clipPath id="clip0">
<rect width="693" height="172" fill="white"/>
</clipPath>
</defs>
</svg>
