<svg width="693" height="172" viewBox="0 0 693 172" fill="none" xmlns="http://www.w3.org/2000/svg">
<g clip-path="url(#clip0)">
<path d="M229.469 57.6875L234 3.625H289.781V19.7188L249 19.875L246.656 45.9688C250.51 44.0938 254.26 43.1562 257.906 43.1562V58.4688C251.656 58.9896 247.021 61.5938 244 66.2812L229.469 57.6875ZM266.031 113V97.375C272.177 96.5417 276.812 93.5208 279.938 88.3125C281.812 85.1875 282.75 81.75 282.75 78C282.75 70.0833 279.521 64.3021 273.062 60.6562C270.667 59.4062 268.323 58.6771 266.031 58.4688V43.1562C278.948 43.3646 288.271 48.7292 294 59.25C297.125 64.875 298.688 71.1771 298.688 78.1562C298.688 90.6562 294.104 100.188 284.938 106.75C279.312 110.708 273.01 112.792 266.031 113ZM227.75 88.625L242.75 85.0312C244 90.3438 247.385 93.9896 252.906 95.9688C254.573 96.4896 256.135 96.8021 257.594 96.9062V113.156C249.052 113.156 241.604 109.875 235.25 103.312C230.979 98.8333 228.479 93.9375 227.75 88.625ZM346.531 113V96.4375C340.281 95.1875 336.323 87.5312 334.656 73.4688C334.135 69.3021 333.875 64.8229 333.875 60.0312V54.875C333.979 37.6875 336.896 26.8021 342.625 22.2188C343.875 21.1771 345.177 20.5521 346.531 20.3438V3.78125C334.448 3.88542 326.01 11.2812 321.219 25.9688C318.406 34.5104 317 45.2396 317 58.1562C317 88.7812 324.292 106.646 338.875 111.75C341.271 112.583 343.823 113 346.531 113ZM355.438 113C367.729 112.896 376.219 105.24 380.906 90.0312C383.615 81.4896 384.969 70.8646 384.969 58.1562C384.969 28.2604 377.885 10.6562 363.719 5.34375C361.115 4.30208 358.354 3.78125 355.438 3.78125V20.3438C361.271 21.2812 365.177 27.8958 367.156 40.1875C367.885 44.7708 368.25 49.6667 368.25 54.875V60.0312C368.146 82.3229 363.875 94.4583 355.438 96.4375V113ZM432.812 113V96.4375C426.562 95.1875 422.604 87.5312 420.938 73.4688C420.417 69.3021 420.156 64.8229 420.156 60.0312V54.875C420.26 37.6875 423.177 26.8021 428.906 22.2188C430.156 21.1771 431.458 20.5521 432.812 20.3438V3.78125C420.729 3.88542 412.292 11.2812 407.5 25.9688C404.688 34.5104 403.281 45.2396 403.281 58.1562C403.281 88.7812 410.573 106.646 425.156 111.75C427.552 112.583 430.104 113 432.812 113ZM441.719 113C454.01 112.896 462.5 105.24 467.188 90.0312C469.896 81.4896 471.25 70.8646 471.25 58.1562C471.25 28.2604 464.167 10.6562 450 5.34375C447.396 4.30208 444.635 3.78125 441.719 3.78125V20.3438C447.552 21.2812 451.458 27.8958 453.438 40.1875C454.167 44.7708 454.531 49.6667 454.531 54.875V60.0312C454.427 82.3229 450.156 94.4583 441.719 96.4375V113Z" fill="#393939"/>
<path d="M200.839 147.48C200.699 149.1 200.629 151.61 200.629 155.01C200.629 158.41 200.719 161.16 200.899 163.26L201.979 163.35C202.019 163.67 202.039 163.95 202.039 164.19C202.039 164.41 202.009 164.69 201.949 165.03C201.249 165.01 200.439 165 199.519 165C198.599 165 197.799 165.01 197.119 165.03C197.059 164.73 197.029 164.47 197.029 164.25C197.029 164.01 197.049 163.71 197.089 163.35L198.139 163.26C198.299 161.1 198.379 158.35 198.379 155.01C198.379 151.65 198.289 149.14 198.109 147.48L197.089 147.39C197.049 147.07 197.029 146.8 197.029 146.58C197.029 146.34 197.059 146.05 197.119 145.71C197.819 145.73 198.629 145.74 199.549 145.74C200.469 145.74 201.269 145.73 201.949 145.71C202.009 146.01 202.039 146.28 202.039 146.52C202.039 146.74 202.019 147.03 201.979 147.39L200.839 147.48ZM220.591 154.5L220.561 157.41C220.561 159.51 220.681 161.46 220.921 163.26L221.971 163.35C222.011 163.79 222.031 164.1 222.031 164.28C222.031 164.44 222.001 164.69 221.941 165.03C221.381 165.01 220.541 165 219.421 165C218.301 165 217.501 165.01 217.021 165.03C216.961 164.73 216.931 164.45 216.931 164.19C216.931 163.91 216.951 163.63 216.991 163.35L218.041 163.26C218.201 160.92 218.281 158.92 218.281 157.26C218.281 155.58 218.111 154.38 217.771 153.66C217.451 152.94 216.891 152.58 216.091 152.58C215.011 152.58 213.821 153.23 212.521 154.53C212.501 155.05 212.491 156.27 212.491 158.19C212.491 160.09 212.581 161.78 212.761 163.26L213.871 163.35C213.911 163.79 213.931 164.1 213.931 164.28C213.931 164.44 213.901 164.69 213.841 165.03C213.281 165.01 212.461 165 211.381 165C210.301 165 209.511 165.01 209.011 165.03C208.951 164.73 208.921 164.45 208.921 164.19C208.921 163.91 208.941 163.63 208.981 163.35L210.031 163.26C210.211 161.26 210.301 159.43 210.301 157.77C210.301 156.09 210.221 154.43 210.061 152.79L208.951 152.7C208.891 152.36 208.861 152.03 208.861 151.71C208.861 151.37 208.871 151.14 208.891 151.02C209.911 151 211.151 150.91 212.611 150.75L212.761 150.9C212.721 151.14 212.661 151.74 212.581 152.7C213.201 152.08 213.921 151.59 214.741 151.23C215.561 150.85 216.331 150.66 217.051 150.66C219.411 150.66 220.591 151.94 220.591 154.5ZM228.547 160.14C228.547 160.14 228.567 157.91 228.607 153.45C228.607 153.15 228.597 152.92 228.577 152.76C227.737 152.76 227.137 152.77 226.777 152.79C226.657 152.47 226.597 152.16 226.597 151.86C226.597 151.54 226.617 151.3 226.657 151.14H228.487L228.337 148.92C228.837 148.76 229.357 148.68 229.897 148.68C230.457 148.68 230.917 148.72 231.277 148.8L231.007 151.11C232.107 151.09 233.217 151.03 234.337 150.93C234.457 151.19 234.517 151.48 234.517 151.8C234.517 152.1 234.477 152.47 234.397 152.91C233.657 152.87 232.487 152.83 230.887 152.79C230.847 153.19 230.827 153.78 230.827 154.56V160.65C230.827 161.17 230.847 161.6 230.887 161.94C230.947 162.26 231.077 162.56 231.277 162.84C231.497 163.1 231.807 163.23 232.207 163.23C233.087 163.23 233.927 162.92 234.727 162.3C235.147 162.9 235.357 163.71 235.357 164.73C234.257 165.21 233.297 165.45 232.477 165.45C231.677 165.45 231.037 165.34 230.557 165.12C230.077 164.92 229.707 164.68 229.447 164.4C229.187 164.1 228.987 163.69 228.847 163.17C228.647 162.43 228.547 161.42 228.547 160.14ZM245.036 158.34C244.056 158.34 243.146 158.29 242.306 158.19C242.346 161.59 243.476 163.29 245.696 163.29C246.816 163.29 248.056 162.67 249.416 161.43C249.996 162.03 250.366 162.82 250.526 163.8C248.886 164.9 247.146 165.45 245.306 165.45C243.466 165.45 242.096 164.82 241.196 163.56C240.296 162.28 239.846 160.41 239.846 157.95C239.846 155.49 240.346 153.66 241.346 152.46C242.366 151.26 243.806 150.66 245.666 150.66C247.046 150.66 248.186 151.08 249.086 151.92C249.986 152.76 250.436 153.79 250.436 155.01C250.456 156.23 250.356 157.1 250.136 157.62C248.636 158.1 246.936 158.34 245.036 158.34ZM245.456 152.34C243.596 152.34 242.556 153.71 242.336 156.45C243.236 156.55 244.226 156.6 245.306 156.6C246.386 156.6 247.226 156.5 247.826 156.3C247.906 155.8 247.946 155.43 247.946 155.19C247.946 154.31 247.716 153.62 247.256 153.12C246.816 152.6 246.216 152.34 245.456 152.34ZM257.161 163.26C257.341 161.26 257.431 159.43 257.431 157.77C257.431 156.09 257.351 154.43 257.191 152.79L256.081 152.7C256.021 152.38 255.991 152.05 255.991 151.71C255.991 151.37 256.001 151.14 256.021 151.02C257.041 151 258.281 150.91 259.741 150.75L259.891 150.9C259.871 151.02 259.811 151.61 259.711 152.67C260.171 152.09 260.701 151.61 261.301 151.23C261.921 150.85 262.521 150.66 263.101 150.66C263.701 150.66 264.221 150.87 264.661 151.29C265.101 151.71 265.321 152.26 265.321 152.94C265.321 154.06 264.851 154.62 263.911 154.62C263.371 154.62 262.941 154.45 262.621 154.11C262.301 153.75 262.141 153.28 262.141 152.7C262.101 152.68 262.031 152.67 261.931 152.67C261.191 152.67 260.431 153.23 259.651 154.35C259.631 154.91 259.621 156.17 259.621 158.13C259.621 160.07 259.711 161.78 259.891 163.26L261.001 163.35C261.041 163.79 261.061 164.1 261.061 164.28C261.061 164.44 261.031 164.69 260.971 165.03C260.411 165.01 259.591 165 258.511 165C257.431 165 256.641 165.01 256.141 165.03C256.081 164.73 256.051 164.45 256.051 164.19C256.051 163.91 256.071 163.63 256.111 163.35L257.161 163.26ZM281.722 154.5L281.692 157.41C281.692 159.51 281.812 161.46 282.052 163.26L283.102 163.35C283.142 163.79 283.162 164.1 283.162 164.28C283.162 164.44 283.132 164.69 283.072 165.03C282.512 165.01 281.672 165 280.552 165C279.432 165 278.632 165.01 278.152 165.03C278.092 164.73 278.062 164.45 278.062 164.19C278.062 163.91 278.082 163.63 278.122 163.35L279.172 163.26C279.332 160.92 279.412 158.92 279.412 157.26C279.412 155.58 279.242 154.38 278.902 153.66C278.582 152.94 278.022 152.58 277.222 152.58C276.142 152.58 274.952 153.23 273.652 154.53C273.632 155.05 273.622 156.27 273.622 158.19C273.622 160.09 273.712 161.78 273.892 163.26L275.002 163.35C275.042 163.79 275.062 164.1 275.062 164.28C275.062 164.44 275.032 164.69 274.972 165.03C274.412 165.01 273.592 165 272.512 165C271.432 165 270.642 165.01 270.142 165.03C270.082 164.73 270.052 164.45 270.052 164.19C270.052 163.91 270.072 163.63 270.112 163.35L271.162 163.26C271.342 161.26 271.432 159.43 271.432 157.77C271.432 156.09 271.352 154.43 271.192 152.79L270.082 152.7C270.022 152.36 269.992 152.03 269.992 151.71C269.992 151.37 270.002 151.14 270.022 151.02C271.042 151 272.282 150.91 273.742 150.75L273.892 150.9C273.852 151.14 273.792 151.74 273.712 152.7C274.332 152.08 275.052 151.59 275.872 151.23C276.692 150.85 277.462 150.66 278.182 150.66C280.542 150.66 281.722 151.94 281.722 154.5ZM299.068 154.65L298.948 158.97C298.948 160.33 299.028 161.66 299.188 162.96L300.298 163.05C300.338 163.37 300.358 163.67 300.358 163.95C300.358 164.21 300.328 164.49 300.268 164.79C299.688 164.81 298.558 164.91 296.878 165.09C296.738 164.71 296.628 164.24 296.548 163.68C294.988 164.86 293.638 165.45 292.498 165.45C291.378 165.45 290.498 165.09 289.858 164.37C289.238 163.63 288.928 162.59 288.928 161.25C288.928 159.89 289.348 158.82 290.188 158.04C291.048 157.26 292.118 156.87 293.398 156.87C294.698 156.87 295.808 157.11 296.728 157.59C296.748 157.37 296.758 157.01 296.758 156.51C296.758 155.03 296.548 153.97 296.128 153.33C295.728 152.67 295.108 152.34 294.268 152.34C293.428 152.34 292.818 152.5 292.438 152.82C292.598 153.14 292.678 153.54 292.678 154.02C292.678 154.5 292.518 154.92 292.198 155.28C291.898 155.62 291.468 155.79 290.908 155.79C289.968 155.79 289.498 155.24 289.498 154.14C289.498 153.02 289.918 152.16 290.758 151.56C291.598 150.96 292.778 150.66 294.298 150.66C295.818 150.66 296.988 151.02 297.808 151.74C298.648 152.44 299.068 153.41 299.068 154.65ZM296.608 159.48C295.788 158.78 294.908 158.43 293.968 158.43C292.168 158.43 291.268 159.23 291.268 160.83C291.268 162.47 291.978 163.29 293.398 163.29C293.918 163.29 294.468 163.16 295.048 162.9C295.648 162.62 296.118 162.28 296.458 161.88C296.558 160.68 296.608 159.88 296.608 159.48ZM307.397 158.04V153.93C307.397 150.33 307.347 147.88 307.247 146.58L306.047 146.49C305.987 146.23 305.957 145.93 305.957 145.59C305.957 145.23 305.967 144.97 305.987 144.81C307.807 144.71 309.107 144.62 309.887 144.54L310.007 144.69C309.727 147.07 309.587 149.63 309.587 152.37V157.32C309.587 159.78 309.677 161.76 309.857 163.26L310.967 163.35C311.007 163.67 311.027 163.95 311.027 164.19C311.027 164.41 310.997 164.69 310.937 165.03C310.237 165.01 309.427 165 308.507 165C307.587 165 306.787 165.01 306.107 165.03C306.047 164.73 306.017 164.47 306.017 164.25C306.017 164.01 306.037 163.71 306.077 163.35L307.127 163.26C307.307 161.38 307.397 159.64 307.397 158.04ZM327.6 159.15C328.22 159.15 328.7 159.34 329.04 159.72C329.38 160.1 329.55 160.57 329.55 161.13C329.55 161.67 329.46 162.11 329.28 162.45C330.16 163.17 331.17 163.53 332.31 163.53C333.47 163.53 334.34 163.27 334.92 162.75C335.5 162.21 335.79 161.48 335.79 160.56C335.79 159.64 335.47 158.85 334.83 158.19C334.19 157.53 333.41 156.98 332.49 156.54C331.59 156.1 330.69 155.64 329.79 155.16C328.89 154.66 328.12 154 327.48 153.18C326.84 152.36 326.52 151.39 326.52 150.27C326.52 148.73 327.03 147.53 328.05 146.67C329.07 145.79 330.38 145.35 331.98 145.35C333.58 145.35 334.96 145.73 336.12 146.49C337.3 147.25 337.89 148.28 337.89 149.58C337.89 150.86 337.37 151.5 336.33 151.5C335.71 151.5 335.23 151.31 334.89 150.93C334.55 150.55 334.38 150.06 334.38 149.46C334.38 148.86 334.5 148.4 334.74 148.08C334.04 147.44 333.18 147.12 332.16 147.12C331.14 147.12 330.37 147.38 329.85 147.9C329.35 148.42 329.1 149.07 329.1 149.85C329.1 150.63 329.33 151.3 329.79 151.86C330.25 152.4 330.82 152.85 331.5 153.21C332.18 153.55 332.92 153.95 333.72 154.41C334.52 154.85 335.26 155.29 335.94 155.73C336.62 156.17 337.19 156.77 337.65 157.53C338.11 158.27 338.34 159.12 338.34 160.08C338.34 161.66 337.79 162.95 336.69 163.95C335.61 164.95 334.22 165.45 332.52 165.45C330.82 165.45 329.31 165.06 327.99 164.28C326.69 163.48 326.04 162.37 326.04 160.95C326.04 159.75 326.56 159.15 327.6 159.15ZM349.034 158.34C348.054 158.34 347.144 158.29 346.304 158.19C346.344 161.59 347.474 163.29 349.694 163.29C350.814 163.29 352.054 162.67 353.414 161.43C353.994 162.03 354.364 162.82 354.524 163.8C352.884 164.9 351.144 165.45 349.304 165.45C347.464 165.45 346.094 164.82 345.194 163.56C344.294 162.28 343.844 160.41 343.844 157.95C343.844 155.49 344.344 153.66 345.344 152.46C346.364 151.26 347.804 150.66 349.664 150.66C351.044 150.66 352.184 151.08 353.084 151.92C353.984 152.76 354.434 153.79 354.434 155.01C354.454 156.23 354.354 157.1 354.134 157.62C352.634 158.1 350.934 158.34 349.034 158.34ZM349.454 152.34C347.594 152.34 346.554 153.71 346.334 156.45C347.234 156.55 348.224 156.6 349.304 156.6C350.384 156.6 351.224 156.5 351.824 156.3C351.904 155.8 351.944 155.43 351.944 155.19C351.944 154.31 351.714 153.62 351.254 153.12C350.814 152.6 350.214 152.34 349.454 152.34ZM361.159 163.26C361.339 161.26 361.429 159.43 361.429 157.77C361.429 156.09 361.349 154.43 361.189 152.79L360.079 152.7C360.019 152.38 359.989 152.05 359.989 151.71C359.989 151.37 359.999 151.14 360.019 151.02C361.039 151 362.279 150.91 363.739 150.75L363.889 150.9C363.869 151.02 363.809 151.61 363.709 152.67C364.169 152.09 364.699 151.61 365.299 151.23C365.919 150.85 366.519 150.66 367.099 150.66C367.699 150.66 368.219 150.87 368.659 151.29C369.099 151.71 369.319 152.26 369.319 152.94C369.319 154.06 368.849 154.62 367.909 154.62C367.369 154.62 366.939 154.45 366.619 154.11C366.299 153.75 366.139 153.28 366.139 152.7C366.099 152.68 366.029 152.67 365.929 152.67C365.189 152.67 364.429 153.23 363.649 154.35C363.629 154.91 363.619 156.17 363.619 158.13C363.619 160.07 363.709 161.78 363.889 163.26L364.999 163.35C365.039 163.79 365.059 164.1 365.059 164.28C365.059 164.44 365.029 164.69 364.969 165.03C364.409 165.01 363.589 165 362.509 165C361.429 165 360.639 165.01 360.139 165.03C360.079 164.73 360.049 164.45 360.049 164.19C360.049 163.91 360.069 163.63 360.109 163.35L361.159 163.26ZM381.386 152.67C381.346 152.47 381.326 152.21 381.326 151.89C381.326 151.55 381.356 151.25 381.416 150.99C382.016 151.01 382.846 151.02 383.906 151.02C384.986 151.02 385.816 151.01 386.396 150.99C386.456 151.25 386.486 151.53 386.486 151.83C386.486 152.13 386.466 152.41 386.426 152.67L385.436 152.76C382.916 158.62 381.366 162.7 380.786 165C380.266 165.14 379.796 165.21 379.376 165.21C378.976 165.21 378.706 165.2 378.566 165.18C377.426 161.14 375.876 157 373.916 152.76L372.926 152.67C372.886 152.43 372.866 152.16 372.866 151.86C372.866 151.54 372.896 151.25 372.956 150.99C373.536 151.01 374.396 151.02 375.536 151.02C376.696 151.02 377.576 151.01 378.176 150.99C378.236 151.25 378.266 151.54 378.266 151.86C378.266 152.16 378.246 152.43 378.206 152.67L376.976 152.76C377.376 155.34 378.296 158.31 379.736 161.67H379.856C380.376 160.67 380.906 159.31 381.446 157.59C381.986 155.85 382.386 154.24 382.646 152.76L381.386 152.67ZM396.179 158.34C395.199 158.34 394.289 158.29 393.449 158.19C393.489 161.59 394.619 163.29 396.839 163.29C397.959 163.29 399.199 162.67 400.559 161.43C401.139 162.03 401.509 162.82 401.669 163.8C400.029 164.9 398.289 165.45 396.449 165.45C394.609 165.45 393.239 164.82 392.339 163.56C391.439 162.28 390.989 160.41 390.989 157.95C390.989 155.49 391.489 153.66 392.489 152.46C393.509 151.26 394.949 150.66 396.809 150.66C398.189 150.66 399.329 151.08 400.229 151.92C401.129 152.76 401.579 153.79 401.579 155.01C401.599 156.23 401.499 157.1 401.279 157.62C399.779 158.1 398.079 158.34 396.179 158.34ZM396.599 152.34C394.739 152.34 393.699 153.71 393.479 156.45C394.379 156.55 395.369 156.6 396.449 156.6C397.529 156.6 398.369 156.5 398.969 156.3C399.049 155.8 399.089 155.43 399.089 155.19C399.089 154.31 398.859 153.62 398.399 153.12C397.959 152.6 397.359 152.34 396.599 152.34ZM408.304 163.26C408.484 161.26 408.574 159.43 408.574 157.77C408.574 156.09 408.494 154.43 408.334 152.79L407.224 152.7C407.164 152.38 407.134 152.05 407.134 151.71C407.134 151.37 407.144 151.14 407.164 151.02C408.184 151 409.424 150.91 410.884 150.75L411.034 150.9C411.014 151.02 410.954 151.61 410.854 152.67C411.314 152.09 411.844 151.61 412.444 151.23C413.064 150.85 413.664 150.66 414.244 150.66C414.844 150.66 415.364 150.87 415.804 151.29C416.244 151.71 416.464 152.26 416.464 152.94C416.464 154.06 415.994 154.62 415.054 154.62C414.514 154.62 414.084 154.45 413.764 154.11C413.444 153.75 413.284 153.28 413.284 152.7C413.244 152.68 413.174 152.67 413.074 152.67C412.334 152.67 411.574 153.23 410.794 154.35C410.774 154.91 410.764 156.17 410.764 158.13C410.764 160.07 410.854 161.78 411.034 163.26L412.144 163.35C412.184 163.79 412.204 164.1 412.204 164.28C412.204 164.44 412.174 164.69 412.114 165.03C411.554 165.01 410.734 165 409.654 165C408.574 165 407.784 165.01 407.284 165.03C407.224 164.73 407.194 164.45 407.194 164.19C407.194 163.91 407.214 163.63 407.254 163.35L408.304 163.26ZM440.558 152.82C440.998 152.78 441.298 152.76 441.458 152.76C441.618 152.76 441.878 152.79 442.238 152.85C442.218 153.47 442.208 154.27 442.208 155.25C442.208 156.23 442.218 156.87 442.238 157.17C441.938 157.23 441.648 157.26 441.368 157.26C441.088 157.26 440.818 157.24 440.558 157.2L440.468 156.15C439.388 156.11 438.498 156.09 437.798 156.09C437.098 156.09 436.208 156.11 435.128 156.15C435.128 158.77 435.198 160.96 435.338 162.72C436.038 162.78 437.028 162.81 438.308 162.81C439.608 162.81 440.628 162.76 441.368 162.66L441.458 160.62C441.798 160.56 442.108 160.53 442.388 160.53C442.688 160.53 442.938 160.54 443.138 160.56C443.158 162.12 443.248 163.6 443.408 165L443.258 165.15C442.278 165.05 440.128 165 436.808 165C433.508 165 431.768 165.01 431.588 165.03C431.528 164.73 431.498 164.45 431.498 164.19C431.498 163.91 431.518 163.63 431.558 163.35L432.608 163.26C432.788 160.16 432.878 157.36 432.878 154.86C432.878 152.34 432.758 149.91 432.518 147.57L431.498 147.48C431.458 147.22 431.438 146.95 431.438 146.67C431.438 146.39 431.468 146.1 431.528 145.8C432.028 145.82 433.858 145.83 437.018 145.83C440.178 145.83 442.208 145.74 443.108 145.56L443.258 145.71C443.098 147.47 443.008 148.89 442.988 149.97C442.788 149.99 442.538 150 442.238 150C441.938 150 441.628 149.97 441.308 149.91L441.218 147.87C440.198 147.81 439.138 147.78 438.038 147.78C436.938 147.78 436.028 147.81 435.308 147.87C435.188 149.13 435.128 151.19 435.128 154.05C435.448 154.07 436.098 154.08 437.078 154.08C438.058 154.08 439.188 154.04 440.468 153.96L440.558 152.82ZM450.175 163.26C450.355 161.26 450.445 159.43 450.445 157.77C450.445 156.09 450.365 154.43 450.205 152.79L449.095 152.7C449.035 152.38 449.005 152.05 449.005 151.71C449.005 151.37 449.015 151.14 449.035 151.02C450.055 151 451.295 150.91 452.755 150.75L452.905 150.9C452.885 151.02 452.825 151.61 452.725 152.67C453.185 152.09 453.715 151.61 454.315 151.23C454.935 150.85 455.535 150.66 456.115 150.66C456.715 150.66 457.235 150.87 457.675 151.29C458.115 151.71 458.335 152.26 458.335 152.94C458.335 154.06 457.865 154.62 456.925 154.62C456.385 154.62 455.955 154.45 455.635 154.11C455.315 153.75 455.155 153.28 455.155 152.7C455.115 152.68 455.045 152.67 454.945 152.67C454.205 152.67 453.445 153.23 452.665 154.35C452.645 154.91 452.635 156.17 452.635 158.13C452.635 160.07 452.725 161.78 452.905 163.26L454.015 163.35C454.055 163.79 454.075 164.1 454.075 164.28C454.075 164.44 454.045 164.69 453.985 165.03C453.425 165.01 452.605 165 451.525 165C450.445 165 449.655 165.01 449.155 165.03C449.095 164.73 449.065 164.45 449.065 164.19C449.065 163.91 449.085 163.63 449.125 163.35L450.175 163.26ZM463.575 163.26C463.755 161.26 463.845 159.43 463.845 157.77C463.845 156.09 463.765 154.43 463.605 152.79L462.495 152.7C462.435 152.38 462.405 152.05 462.405 151.71C462.405 151.37 462.415 151.14 462.435 151.02C463.455 151 464.695 150.91 466.155 150.75L466.305 150.9C466.285 151.02 466.225 151.61 466.125 152.67C466.585 152.09 467.115 151.61 467.715 151.23C468.335 150.85 468.935 150.66 469.515 150.66C470.115 150.66 470.635 150.87 471.075 151.29C471.515 151.71 471.735 152.26 471.735 152.94C471.735 154.06 471.265 154.62 470.325 154.62C469.785 154.62 469.355 154.45 469.035 154.11C468.715 153.75 468.555 153.28 468.555 152.7C468.515 152.68 468.445 152.67 468.345 152.67C467.605 152.67 466.845 153.23 466.065 154.35C466.045 154.91 466.035 156.17 466.035 158.13C466.035 160.07 466.125 161.78 466.305 163.26L467.415 163.35C467.455 163.79 467.475 164.1 467.475 164.28C467.475 164.44 467.445 164.69 467.385 165.03C466.825 165.01 466.005 165 464.925 165C463.845 165 463.055 165.01 462.555 165.03C462.495 164.73 462.465 164.45 462.465 164.19C462.465 163.91 462.485 163.63 462.525 163.35L463.575 163.26ZM476.196 157.89C476.196 153.07 478.076 150.66 481.836 150.66C485.596 150.66 487.476 153.07 487.476 157.89C487.476 160.11 487.126 161.87 486.426 163.17C485.626 164.69 484.096 165.45 481.836 165.45C479.576 165.45 478.046 164.69 477.246 163.17C476.546 161.87 476.196 160.11 476.196 157.89ZM478.656 157.83C478.656 161.47 479.716 163.29 481.836 163.29C483.956 163.29 485.016 161.47 485.016 157.83C485.016 154.17 483.956 152.34 481.836 152.34C479.716 152.34 478.656 154.17 478.656 157.83ZM493.95 163.26C494.13 161.26 494.22 159.43 494.22 157.77C494.22 156.09 494.14 154.43 493.98 152.79L492.87 152.7C492.81 152.38 492.78 152.05 492.78 151.71C492.78 151.37 492.79 151.14 492.81 151.02C493.83 151 495.07 150.91 496.53 150.75L496.68 150.9C496.66 151.02 496.6 151.61 496.5 152.67C496.96 152.09 497.49 151.61 498.09 151.23C498.71 150.85 499.31 150.66 499.89 150.66C500.49 150.66 501.01 150.87 501.45 151.29C501.89 151.71 502.11 152.26 502.11 152.94C502.11 154.06 501.64 154.62 500.7 154.62C500.16 154.62 499.73 154.45 499.41 154.11C499.09 153.75 498.93 153.28 498.93 152.7C498.89 152.68 498.82 152.67 498.72 152.67C497.98 152.67 497.22 153.23 496.44 154.35C496.42 154.91 496.41 156.17 496.41 158.13C496.41 160.07 496.5 161.78 496.68 163.26L497.79 163.35C497.83 163.79 497.85 164.1 497.85 164.28C497.85 164.44 497.82 164.69 497.76 165.03C497.2 165.01 496.38 165 495.3 165C494.22 165 493.43 165.01 492.93 165.03C492.87 164.73 492.84 164.45 492.84 164.19C492.84 163.91 492.86 163.63 492.9 163.35L493.95 163.26Z" fill="#393939"/>
</g>
<defs>
<clipPath id="clip0">
<rect width="693" height="172" fill="white"/>
</clipPath>
</defs>
</svg>
