<svg width="693" height="172" viewBox="0 0 693 172" fill="none" xmlns="http://www.w3.org/2000/svg">
<g clip-path="url(#clip0)">
<path d="M131.297 113V31.4375H132.547L148.797 57.5312V113H131.297ZM131.297 14.875V3.625H145.828L200.828 91.9062V113H192.391L131.297 14.875ZM183.328 49.25V3.625H200.828V75.3438H199.578L183.328 49.25ZM221.328 89.4062V49.875C221.328 44.7708 223.62 39.8229 228.203 35.0312C233.62 29.3021 240.443 26.4375 248.672 26.4375V42.5312C243.255 42.5312 239.766 44.7708 238.203 49.25C237.891 50.1875 237.734 51.125 237.734 52.0625V87.2188C237.734 91.1771 239.557 94.0417 243.203 95.8125C244.87 96.6458 246.745 97.0625 248.828 97.0625V113.156C238.724 113.156 230.911 109.094 225.391 100.969C222.682 96.9062 221.328 93.0521 221.328 89.4062ZM255.703 113.156V97.0625C260.703 97.0625 263.984 94.9271 265.547 90.6562C265.964 89.5104 266.172 88.4688 266.172 87.5312V52.0625C266.172 47.6875 264.141 44.7708 260.078 43.3125C258.724 42.7917 257.214 42.5312 255.547 42.5312V26.4375C265.339 26.4375 272.891 30.3958 278.203 38.3125C280.911 42.375 282.266 46.2292 282.266 49.875V89.4062C282.266 94.5104 280.078 99.5104 275.703 104.406C270.391 110.135 263.724 113.052 255.703 113.156ZM345.453 113L366.078 21.2812H368.422L375.609 54.4062L362.641 113H345.453ZM374.359 97.375L377.953 80.3438H389.672L372.797 3.625H389.984L415.141 113H397.797L394.359 97.375H374.359ZM431.266 89.4062V49.875C431.37 44.5625 433.714 39.5104 438.297 34.7188C443.401 29.4062 449.495 26.6979 456.578 26.5938H465.641V42.8438H456.578C452.828 42.8438 450.068 44.5625 448.297 48C447.776 49.0417 447.516 49.9271 447.516 50.6562V89.0938C447.516 91.3854 448.87 93.4167 451.578 95.1875C453.245 96.3333 455.016 96.9062 456.891 96.9062H465.641V113H456.891C447.411 113 440.12 108.885 435.016 100.656C432.516 96.5938 431.266 92.8438 431.266 89.4062ZM473.453 113V1.90625H490.641V113H473.453ZM508.172 90.1875L523.641 87.375C523.641 91.4375 525.776 94.5104 530.047 96.5938C531.922 97.5312 533.745 98 535.516 98V113.781C524.474 113.781 516.505 109.875 511.609 102.062C509.318 98.3125 508.172 94.3542 508.172 90.1875ZM508.953 50.5C508.953 40.9167 513.38 33.7812 522.234 29.0938C526.505 26.9062 530.776 25.8125 535.047 25.8125V41.2812C530.047 41.2812 526.714 43.2604 525.047 47.2188C524.63 48.3646 524.422 49.4583 524.422 50.5C524.422 53.625 527.13 56.3854 532.547 58.7812C537.13 60.6562 544.109 62.6875 553.484 64.875C560.672 66.3333 565.776 70.0312 568.797 75.9688C570.359 79.1979 571.141 82.7396 571.141 86.5938C571.141 96.9062 566.974 104.51 558.641 109.406C553.849 112.323 548.38 113.781 542.234 113.781V98.1562C546.401 98.1562 549.839 96.75 552.547 93.9375C554.214 91.9583 555.047 89.7708 555.047 87.375C555.047 83.7292 550.984 80.6562 542.859 78.1562C541.193 77.6354 538.589 76.9062 535.047 75.9688C529.734 74.7188 525.984 73.6771 523.797 72.8438C516.089 69.4062 511.401 64.3542 509.734 57.6875C509.214 55.5 508.953 53.1042 508.953 50.5ZM542.078 41.2812V25.8125C551.245 25.8125 558.641 29.1979 564.266 35.9688C567.807 40.3438 569.578 44.9271 569.578 49.7188L554.109 52.375C554.109 47.0625 551.245 43.5729 545.516 41.9062C544.266 41.4896 543.12 41.2812 542.078 41.2812Z" fill="#393939"/>
<path d="M80.8911 159.15C81.5111 159.15 81.9911 159.34 82.3311 159.72C82.6711 160.1 82.8411 160.57 82.8411 161.13C82.8411 161.67 82.7511 162.11 82.5711 162.45C83.4511 163.17 84.4611 163.53 85.6011 163.53C86.7611 163.53 87.6311 163.27 88.2111 162.75C88.7911 162.21 89.0811 161.48 89.0811 160.56C89.0811 159.64 88.7611 158.85 88.1211 158.19C87.4811 157.53 86.7011 156.98 85.7811 156.54C84.8811 156.1 83.9811 155.64 83.0811 155.16C82.1811 154.66 81.4111 154 80.7711 153.18C80.1311 152.36 79.8111 151.39 79.8111 150.27C79.8111 148.73 80.3211 147.53 81.3411 146.67C82.3611 145.79 83.6711 145.35 85.2711 145.35C86.8711 145.35 88.2511 145.73 89.4111 146.49C90.5911 147.25 91.1811 148.28 91.1811 149.58C91.1811 150.86 90.6611 151.5 89.6211 151.5C89.0011 151.5 88.5211 151.31 88.1811 150.93C87.8411 150.55 87.6711 150.06 87.6711 149.46C87.6711 148.86 87.7911 148.4 88.0311 148.08C87.3311 147.44 86.4711 147.12 85.4511 147.12C84.4311 147.12 83.6611 147.38 83.1411 147.9C82.6411 148.42 82.3911 149.07 82.3911 149.85C82.3911 150.63 82.6211 151.3 83.0811 151.86C83.5411 152.4 84.1111 152.85 84.7911 153.21C85.4711 153.55 86.2111 153.95 87.0111 154.41C87.8111 154.85 88.5511 155.29 89.2311 155.73C89.9111 156.17 90.4811 156.77 90.9411 157.53C91.4011 158.27 91.6311 159.12 91.6311 160.08C91.6311 161.66 91.0811 162.95 89.9811 163.95C88.9011 164.95 87.5111 165.45 85.8111 165.45C84.1111 165.45 82.6011 165.06 81.2811 164.28C79.9811 163.48 79.3311 162.37 79.3311 160.95C79.3311 159.75 79.8511 159.15 80.8911 159.15ZM102.325 158.34C101.345 158.34 100.435 158.29 99.5952 158.19C99.6352 161.59 100.765 163.29 102.985 163.29C104.105 163.29 105.345 162.67 106.705 161.43C107.285 162.03 107.655 162.82 107.815 163.8C106.175 164.9 104.435 165.45 102.595 165.45C100.755 165.45 99.3852 164.82 98.4852 163.56C97.5852 162.28 97.1352 160.41 97.1352 157.95C97.1352 155.49 97.6352 153.66 98.6352 152.46C99.6552 151.26 101.095 150.66 102.955 150.66C104.335 150.66 105.475 151.08 106.375 151.92C107.275 152.76 107.725 153.79 107.725 155.01C107.745 156.23 107.645 157.1 107.425 157.62C105.925 158.1 104.225 158.34 102.325 158.34ZM102.745 152.34C100.885 152.34 99.8452 153.71 99.6252 156.45C100.525 156.55 101.515 156.6 102.595 156.6C103.675 156.6 104.515 156.5 105.115 156.3C105.195 155.8 105.235 155.43 105.235 155.19C105.235 154.31 105.005 153.62 104.545 153.12C104.105 152.6 103.505 152.34 102.745 152.34ZM123.96 154.65L123.84 158.97C123.84 160.33 123.92 161.66 124.08 162.96L125.19 163.05C125.23 163.37 125.25 163.67 125.25 163.95C125.25 164.21 125.22 164.49 125.16 164.79C124.58 164.81 123.45 164.91 121.77 165.09C121.63 164.71 121.52 164.24 121.44 163.68C119.88 164.86 118.53 165.45 117.39 165.45C116.27 165.45 115.39 165.09 114.75 164.37C114.13 163.63 113.82 162.59 113.82 161.25C113.82 159.89 114.24 158.82 115.08 158.04C115.94 157.26 117.01 156.87 118.29 156.87C119.59 156.87 120.7 157.11 121.62 157.59C121.64 157.37 121.65 157.01 121.65 156.51C121.65 155.03 121.44 153.97 121.02 153.33C120.62 152.67 120 152.34 119.16 152.34C118.32 152.34 117.71 152.5 117.33 152.82C117.49 153.14 117.57 153.54 117.57 154.02C117.57 154.5 117.41 154.92 117.09 155.28C116.79 155.62 116.36 155.79 115.8 155.79C114.86 155.79 114.39 155.24 114.39 154.14C114.39 153.02 114.81 152.16 115.65 151.56C116.49 150.96 117.67 150.66 119.19 150.66C120.71 150.66 121.88 151.02 122.7 151.74C123.54 152.44 123.96 153.41 123.96 154.65ZM121.5 159.48C120.68 158.78 119.8 158.43 118.86 158.43C117.06 158.43 116.16 159.23 116.16 160.83C116.16 162.47 116.87 163.29 118.29 163.29C118.81 163.29 119.36 163.16 119.94 162.9C120.54 162.62 121.01 162.28 121.35 161.88C121.45 160.68 121.5 159.88 121.5 159.48ZM131.63 163.26C131.81 161.26 131.9 159.43 131.9 157.77C131.9 156.09 131.82 154.43 131.66 152.79L130.55 152.7C130.49 152.38 130.46 152.05 130.46 151.71C130.46 151.37 130.47 151.14 130.49 151.02C131.51 151 132.75 150.91 134.21 150.75L134.36 150.9C134.34 151.02 134.28 151.61 134.18 152.67C134.64 152.09 135.17 151.61 135.77 151.23C136.39 150.85 136.99 150.66 137.57 150.66C138.17 150.66 138.69 150.87 139.13 151.29C139.57 151.71 139.79 152.26 139.79 152.94C139.79 154.06 139.32 154.62 138.38 154.62C137.84 154.62 137.41 154.45 137.09 154.11C136.77 153.75 136.61 153.28 136.61 152.7C136.57 152.68 136.5 152.67 136.4 152.67C135.66 152.67 134.9 153.23 134.12 154.35C134.1 154.91 134.09 156.17 134.09 158.13C134.09 160.07 134.18 161.78 134.36 163.26L135.47 163.35C135.51 163.79 135.53 164.1 135.53 164.28C135.53 164.44 135.5 164.69 135.44 165.03C134.88 165.01 134.06 165 132.98 165C131.9 165 131.11 165.01 130.61 165.03C130.55 164.73 130.52 164.45 130.52 164.19C130.52 163.91 130.54 163.63 130.58 163.35L131.63 163.26ZM153.01 155.79C152.45 155.79 152.01 155.62 151.69 155.28C151.39 154.92 151.24 154.49 151.24 153.99C151.24 153.47 151.31 153.08 151.45 152.82C151.01 152.48 150.49 152.31 149.89 152.31C147.77 152.31 146.71 154.19 146.71 157.95C146.71 159.67 146.98 160.99 147.52 161.91C148.06 162.83 148.82 163.29 149.8 163.29C150.8 163.29 152.03 162.67 153.49 161.43C154.07 162.03 154.44 162.82 154.6 163.8C152.92 164.9 151.21 165.45 149.47 165.45C147.73 165.45 146.42 164.82 145.54 163.56C144.68 162.3 144.25 160.44 144.25 157.98C144.25 155.52 144.73 153.69 145.69 152.49C146.65 151.27 148.01 150.66 149.77 150.66C151.15 150.66 152.27 150.99 153.13 151.65C153.99 152.29 154.42 153.14 154.42 154.2C154.42 155.26 153.95 155.79 153.01 155.79ZM172.081 154.5L172.051 157.41C172.051 159.53 172.171 161.48 172.411 163.26L173.461 163.35C173.501 163.67 173.521 163.95 173.521 164.19C173.521 164.41 173.491 164.69 173.431 165.03C172.731 165.01 171.901 165 170.941 165C170.001 165 169.191 165.01 168.511 165.03C168.451 164.73 168.421 164.47 168.421 164.25C168.421 164.01 168.441 163.71 168.481 163.35L169.531 163.26C169.691 161.1 169.771 159.18 169.771 157.5C169.771 155.82 169.621 154.58 169.321 153.78C169.041 152.98 168.461 152.58 167.581 152.58C166.461 152.58 165.261 153.22 163.981 154.5V157.32C163.981 159.78 164.071 161.76 164.251 163.26L165.361 163.35C165.401 163.67 165.421 163.95 165.421 164.19C165.421 164.41 165.391 164.69 165.331 165.03C164.631 165.01 163.821 165 162.901 165C161.981 165 161.181 165.01 160.501 165.03C160.441 164.73 160.411 164.47 160.411 164.25C160.411 164.01 160.431 163.71 160.471 163.35L161.521 163.26C161.701 161.38 161.791 159.64 161.791 158.04V153.93C161.791 150.33 161.741 147.88 161.641 146.58L160.441 146.49C160.381 146.23 160.351 145.93 160.351 145.59C160.351 145.23 160.361 144.97 160.381 144.81C162.201 144.71 163.501 144.62 164.281 144.54L164.401 144.69C164.121 147.07 163.981 149.75 163.981 152.73C164.581 152.13 165.301 151.64 166.141 151.26C166.981 150.86 167.781 150.66 168.541 150.66C170.901 150.66 172.081 151.94 172.081 154.5ZM199.341 154.65L199.221 158.97C199.221 160.33 199.301 161.66 199.461 162.96L200.571 163.05C200.611 163.37 200.631 163.67 200.631 163.95C200.631 164.21 200.601 164.49 200.541 164.79C199.961 164.81 198.831 164.91 197.151 165.09C197.011 164.71 196.901 164.24 196.821 163.68C195.261 164.86 193.911 165.45 192.771 165.45C191.651 165.45 190.771 165.09 190.131 164.37C189.511 163.63 189.201 162.59 189.201 161.25C189.201 159.89 189.621 158.82 190.461 158.04C191.321 157.26 192.391 156.87 193.671 156.87C194.971 156.87 196.081 157.11 197.001 157.59C197.021 157.37 197.031 157.01 197.031 156.51C197.031 155.03 196.821 153.97 196.401 153.33C196.001 152.67 195.381 152.34 194.541 152.34C193.701 152.34 193.091 152.5 192.711 152.82C192.871 153.14 192.951 153.54 192.951 154.02C192.951 154.5 192.791 154.92 192.471 155.28C192.171 155.62 191.741 155.79 191.181 155.79C190.241 155.79 189.771 155.24 189.771 154.14C189.771 153.02 190.191 152.16 191.031 151.56C191.871 150.96 193.051 150.66 194.571 150.66C196.091 150.66 197.261 151.02 198.081 151.74C198.921 152.44 199.341 153.41 199.341 154.65ZM196.881 159.48C196.061 158.78 195.181 158.43 194.241 158.43C192.441 158.43 191.541 159.23 191.541 160.83C191.541 162.47 192.251 163.29 193.671 163.29C194.191 163.29 194.741 163.16 195.321 162.9C195.921 162.62 196.391 162.28 196.731 161.88C196.831 160.68 196.881 159.88 196.881 159.48ZM218.171 154.5L218.141 157.41C218.141 159.51 218.261 161.46 218.501 163.26L219.551 163.35C219.591 163.79 219.611 164.1 219.611 164.28C219.611 164.44 219.581 164.69 219.521 165.03C218.961 165.01 218.121 165 217.001 165C215.881 165 215.081 165.01 214.601 165.03C214.541 164.73 214.511 164.45 214.511 164.19C214.511 163.91 214.531 163.63 214.571 163.35L215.621 163.26C215.781 160.92 215.861 158.92 215.861 157.26C215.861 155.58 215.691 154.38 215.351 153.66C215.031 152.94 214.471 152.58 213.671 152.58C212.591 152.58 211.401 153.23 210.101 154.53C210.081 155.05 210.071 156.27 210.071 158.19C210.071 160.09 210.161 161.78 210.341 163.26L211.451 163.35C211.491 163.79 211.511 164.1 211.511 164.28C211.511 164.44 211.481 164.69 211.421 165.03C210.861 165.01 210.041 165 208.961 165C207.881 165 207.091 165.01 206.591 165.03C206.531 164.73 206.501 164.45 206.501 164.19C206.501 163.91 206.521 163.63 206.561 163.35L207.611 163.26C207.791 161.26 207.881 159.43 207.881 157.77C207.881 156.09 207.801 154.43 207.641 152.79L206.531 152.7C206.471 152.36 206.441 152.03 206.441 151.71C206.441 151.37 206.451 151.14 206.471 151.02C207.491 151 208.731 150.91 210.191 150.75L210.341 150.9C210.301 151.14 210.241 151.74 210.161 152.7C210.781 152.08 211.501 151.59 212.321 151.23C213.141 150.85 213.911 150.66 214.631 150.66C216.991 150.66 218.171 151.94 218.171 154.5ZM233.987 151.38L234.017 149.49C234.017 148.29 233.977 147.32 233.897 146.58L232.697 146.49C232.637 146.25 232.607 145.94 232.607 145.56C232.607 145.18 232.617 144.93 232.637 144.81C234.417 144.73 235.717 144.64 236.537 144.54L236.657 144.69C236.357 147.31 236.207 150.69 236.207 154.83C236.207 158.95 236.297 161.67 236.477 162.99L237.587 163.05C237.627 163.49 237.647 163.82 237.647 164.04C237.647 164.24 237.617 164.49 237.557 164.79C236.777 164.83 235.687 164.93 234.287 165.09C234.127 164.77 234.007 164.26 233.927 163.56C232.547 164.82 231.147 165.45 229.727 165.45C228.327 165.45 227.247 164.81 226.487 163.53C225.747 162.25 225.377 160.44 225.377 158.1C225.377 155.74 225.847 153.91 226.787 152.61C227.747 151.31 229.117 150.66 230.897 150.66C231.897 150.66 232.927 150.9 233.987 151.38ZM230.927 152.43C228.927 152.43 227.927 154.42 227.927 158.4C227.927 159.9 228.147 161.07 228.587 161.91C229.047 162.73 229.677 163.14 230.477 163.14C231.017 163.14 231.607 162.97 232.247 162.63C232.907 162.29 233.477 161.86 233.957 161.34C233.997 158.86 234.017 156.18 234.017 153.3C232.737 152.72 231.707 152.43 230.927 152.43ZM263.402 154.65L263.282 158.97C263.282 160.33 263.362 161.66 263.522 162.96L264.632 163.05C264.672 163.37 264.692 163.67 264.692 163.95C264.692 164.21 264.662 164.49 264.602 164.79C264.022 164.81 262.892 164.91 261.212 165.09C261.072 164.71 260.962 164.24 260.882 163.68C259.322 164.86 257.972 165.45 256.832 165.45C255.712 165.45 254.832 165.09 254.192 164.37C253.572 163.63 253.262 162.59 253.262 161.25C253.262 159.89 253.682 158.82 254.522 158.04C255.382 157.26 256.452 156.87 257.732 156.87C259.032 156.87 260.142 157.11 261.062 157.59C261.082 157.37 261.092 157.01 261.092 156.51C261.092 155.03 260.882 153.97 260.462 153.33C260.062 152.67 259.442 152.34 258.602 152.34C257.762 152.34 257.152 152.5 256.772 152.82C256.932 153.14 257.012 153.54 257.012 154.02C257.012 154.5 256.852 154.92 256.532 155.28C256.232 155.62 255.802 155.79 255.242 155.79C254.302 155.79 253.832 155.24 253.832 154.14C253.832 153.02 254.252 152.16 255.092 151.56C255.932 150.96 257.112 150.66 258.632 150.66C260.152 150.66 261.322 151.02 262.142 151.74C262.982 152.44 263.402 153.41 263.402 154.65ZM260.942 159.48C260.122 158.78 259.242 158.43 258.302 158.43C256.502 158.43 255.602 159.23 255.602 160.83C255.602 162.47 256.312 163.29 257.732 163.29C258.252 163.29 258.802 163.16 259.382 162.9C259.982 162.62 260.452 162.28 260.792 161.88C260.892 160.68 260.942 159.88 260.942 159.48ZM279.051 151.38L279.081 149.49C279.081 148.29 279.041 147.32 278.961 146.58L277.761 146.49C277.701 146.25 277.671 145.94 277.671 145.56C277.671 145.18 277.681 144.93 277.701 144.81C279.481 144.73 280.781 144.64 281.601 144.54L281.721 144.69C281.421 147.31 281.271 150.69 281.271 154.83C281.271 158.95 281.361 161.67 281.541 162.99L282.651 163.05C282.691 163.49 282.711 163.82 282.711 164.04C282.711 164.24 282.681 164.49 282.621 164.79C281.841 164.83 280.751 164.93 279.351 165.09C279.191 164.77 279.071 164.26 278.991 163.56C277.611 164.82 276.211 165.45 274.791 165.45C273.391 165.45 272.311 164.81 271.551 163.53C270.811 162.25 270.441 160.44 270.441 158.1C270.441 155.74 270.911 153.91 271.851 152.61C272.811 151.31 274.181 150.66 275.961 150.66C276.961 150.66 277.991 150.9 279.051 151.38ZM275.991 152.43C273.991 152.43 272.991 154.42 272.991 158.4C272.991 159.9 273.211 161.07 273.651 161.91C274.111 162.73 274.741 163.14 275.541 163.14C276.081 163.14 276.671 162.97 277.311 162.63C277.971 162.29 278.541 161.86 279.021 161.34C279.061 158.86 279.081 156.18 279.081 153.3C277.801 152.72 276.771 152.43 275.991 152.43ZM297.022 151.38L297.052 149.49C297.052 148.29 297.012 147.32 296.932 146.58L295.732 146.49C295.672 146.25 295.642 145.94 295.642 145.56C295.642 145.18 295.652 144.93 295.672 144.81C297.452 144.73 298.752 144.64 299.572 144.54L299.692 144.69C299.392 147.31 299.242 150.69 299.242 154.83C299.242 158.95 299.332 161.67 299.512 162.99L300.622 163.05C300.662 163.49 300.682 163.82 300.682 164.04C300.682 164.24 300.652 164.49 300.592 164.79C299.812 164.83 298.722 164.93 297.322 165.09C297.162 164.77 297.042 164.26 296.962 163.56C295.582 164.82 294.182 165.45 292.762 165.45C291.362 165.45 290.282 164.81 289.522 163.53C288.782 162.25 288.412 160.44 288.412 158.1C288.412 155.74 288.882 153.91 289.822 152.61C290.782 151.31 292.152 150.66 293.932 150.66C294.932 150.66 295.962 150.9 297.022 151.38ZM293.962 152.43C291.962 152.43 290.962 154.42 290.962 158.4C290.962 159.9 291.182 161.07 291.622 161.91C292.082 162.73 292.712 163.14 293.512 163.14C294.052 163.14 294.642 162.97 295.282 162.63C295.942 162.29 296.512 161.86 296.992 161.34C297.032 158.86 297.052 156.18 297.052 153.3C295.772 152.72 294.742 152.43 293.962 152.43ZM317.797 158.76L317.707 152.76C316.827 152.76 316.257 152.77 315.997 152.79C315.877 152.45 315.817 152.12 315.817 151.8C315.817 151.48 315.837 151.26 315.877 151.14H317.617C317.597 150.96 317.587 150.56 317.587 149.94C317.587 146.48 318.977 144.75 321.757 144.75C322.677 144.75 323.497 144.95 324.217 145.35C324.957 145.75 325.327 146.38 325.327 147.24C325.327 148.36 324.857 148.92 323.917 148.92C323.377 148.92 322.947 148.76 322.627 148.44C322.327 148.12 322.167 147.76 322.147 147.36C322.147 146.96 322.167 146.68 322.207 146.52C322.027 146.44 321.837 146.4 321.637 146.4C320.397 146.4 319.777 147.64 319.777 150.12C319.777 150.62 319.787 150.95 319.807 151.11C321.307 151.09 322.557 151.03 323.557 150.93C323.677 151.19 323.737 151.48 323.737 151.8C323.737 152.12 323.697 152.49 323.617 152.91C323.337 152.89 322.117 152.85 319.957 152.79V155.61L319.987 157.89C319.987 160.07 320.087 161.86 320.287 163.26L321.367 163.35C321.407 163.53 321.427 163.77 321.427 164.07C321.427 164.37 321.397 164.69 321.337 165.03C320.777 165.01 319.957 165 318.877 165C317.797 165 317.007 165.01 316.507 165.03C316.447 164.73 316.417 164.45 316.417 164.19C316.417 163.91 316.437 163.63 316.477 163.35L317.497 163.26C317.697 161.32 317.797 159.82 317.797 158.76ZM338.46 154.65L338.34 158.97C338.34 160.33 338.42 161.66 338.58 162.96L339.69 163.05C339.73 163.37 339.75 163.67 339.75 163.95C339.75 164.21 339.72 164.49 339.66 164.79C339.08 164.81 337.95 164.91 336.27 165.09C336.13 164.71 336.02 164.24 335.94 163.68C334.38 164.86 333.03 165.45 331.89 165.45C330.77 165.45 329.89 165.09 329.25 164.37C328.63 163.63 328.32 162.59 328.32 161.25C328.32 159.89 328.74 158.82 329.58 158.04C330.44 157.26 331.51 156.87 332.79 156.87C334.09 156.87 335.2 157.11 336.12 157.59C336.14 157.37 336.15 157.01 336.15 156.51C336.15 155.03 335.94 153.97 335.52 153.33C335.12 152.67 334.5 152.34 333.66 152.34C332.82 152.34 332.21 152.5 331.83 152.82C331.99 153.14 332.07 153.54 332.07 154.02C332.07 154.5 331.91 154.92 331.59 155.28C331.29 155.62 330.86 155.79 330.3 155.79C329.36 155.79 328.89 155.24 328.89 154.14C328.89 153.02 329.31 152.16 330.15 151.56C330.99 150.96 332.17 150.66 333.69 150.66C335.21 150.66 336.38 151.02 337.2 151.74C338.04 152.44 338.46 153.41 338.46 154.65ZM336 159.48C335.18 158.78 334.3 158.43 333.36 158.43C331.56 158.43 330.66 159.23 330.66 160.83C330.66 162.47 331.37 163.29 332.79 163.29C333.31 163.29 333.86 163.16 334.44 162.9C335.04 162.62 335.51 162.28 335.85 161.88C335.95 160.68 336 159.88 336 159.48ZM352.37 152.67C352.33 152.47 352.31 152.21 352.31 151.89C352.31 151.55 352.34 151.25 352.4 150.99C353 151.01 353.83 151.02 354.89 151.02C355.97 151.02 356.8 151.01 357.38 150.99C357.44 151.25 357.47 151.53 357.47 151.83C357.47 152.13 357.45 152.41 357.41 152.67L356.42 152.76C353.9 158.62 352.35 162.7 351.77 165C351.25 165.14 350.78 165.21 350.36 165.21C349.96 165.21 349.69 165.2 349.55 165.18C348.41 161.14 346.86 157 344.9 152.76L343.91 152.67C343.87 152.43 343.85 152.16 343.85 151.86C343.85 151.54 343.88 151.25 343.94 150.99C344.52 151.01 345.38 151.02 346.52 151.02C347.68 151.02 348.56 151.01 349.16 150.99C349.22 151.25 349.25 151.54 349.25 151.86C349.25 152.16 349.23 152.43 349.19 152.67L347.96 152.76C348.36 155.34 349.28 158.31 350.72 161.67H350.84C351.36 160.67 351.89 159.31 352.43 157.59C352.97 155.85 353.37 154.24 353.63 152.76L352.37 152.67ZM361.973 157.89C361.973 153.07 363.853 150.66 367.613 150.66C371.373 150.66 373.253 153.07 373.253 157.89C373.253 160.11 372.903 161.87 372.203 163.17C371.403 164.69 369.873 165.45 367.613 165.45C365.353 165.45 363.823 164.69 363.023 163.17C362.323 161.87 361.973 160.11 361.973 157.89ZM364.433 157.83C364.433 161.47 365.493 163.29 367.613 163.29C369.733 163.29 370.793 161.47 370.793 157.83C370.793 154.17 369.733 152.34 367.613 152.34C365.493 152.34 364.433 154.17 364.433 157.83ZM379.728 163.26C379.908 161.26 379.998 159.43 379.998 157.77C379.998 156.09 379.918 154.43 379.758 152.79L378.648 152.7C378.588 152.38 378.558 152.05 378.558 151.71C378.558 151.37 378.568 151.14 378.588 151.02C379.608 151 380.848 150.91 382.308 150.75L382.458 150.9C382.438 151.02 382.378 151.61 382.278 152.67C382.738 152.09 383.268 151.61 383.868 151.23C384.488 150.85 385.088 150.66 385.668 150.66C386.268 150.66 386.788 150.87 387.228 151.29C387.668 151.71 387.888 152.26 387.888 152.94C387.888 154.06 387.418 154.62 386.478 154.62C385.938 154.62 385.508 154.45 385.188 154.11C384.868 153.75 384.708 153.28 384.708 152.7C384.668 152.68 384.598 152.67 384.498 152.67C383.758 152.67 382.998 153.23 382.218 154.35C382.198 154.91 382.188 156.17 382.188 158.13C382.188 160.07 382.278 161.78 382.458 163.26L383.568 163.35C383.608 163.79 383.628 164.1 383.628 164.28C383.628 164.44 383.598 164.69 383.538 165.03C382.978 165.01 382.158 165 381.078 165C379.998 165 379.208 165.01 378.708 165.03C378.648 164.73 378.618 164.45 378.618 164.19C378.618 163.91 378.638 163.63 378.678 163.35L379.728 163.26ZM393.728 163.26C393.908 161.3 393.998 159.51 393.998 157.89C393.998 156.25 393.918 154.55 393.758 152.79L392.648 152.7C392.588 152.36 392.558 152.04 392.558 151.74C392.558 151.42 392.568 151.18 392.588 151.02C393.748 150.98 394.988 150.89 396.308 150.75L396.458 150.9C396.278 152.08 396.188 154.06 396.188 156.84C396.188 159.62 396.278 161.76 396.458 163.26L397.568 163.35C397.608 163.67 397.628 163.95 397.628 164.19C397.628 164.41 397.598 164.69 397.538 165.03C396.838 165.01 396.028 165 395.108 165C394.188 165 393.388 165.01 392.708 165.03C392.648 164.73 392.618 164.42 392.618 164.1C392.618 163.78 392.638 163.53 392.678 163.35L393.728 163.26ZM396.758 146.61C396.758 147.85 396.118 148.47 394.838 148.47C393.838 148.47 393.338 147.96 393.338 146.94C393.338 145.68 393.978 145.05 395.258 145.05C396.258 145.05 396.758 145.57 396.758 146.61ZM404.129 160.14C404.129 160.14 404.149 157.91 404.189 153.45C404.189 153.15 404.179 152.92 404.159 152.76C403.319 152.76 402.719 152.77 402.359 152.79C402.239 152.47 402.179 152.16 402.179 151.86C402.179 151.54 402.199 151.3 402.239 151.14H404.069L403.919 148.92C404.419 148.76 404.939 148.68 405.479 148.68C406.039 148.68 406.499 148.72 406.859 148.8L406.589 151.11C407.689 151.09 408.799 151.03 409.919 150.93C410.039 151.19 410.099 151.48 410.099 151.8C410.099 152.1 410.059 152.47 409.979 152.91C409.239 152.87 408.069 152.83 406.469 152.79C406.429 153.19 406.409 153.78 406.409 154.56V160.65C406.409 161.17 406.429 161.6 406.469 161.94C406.529 162.26 406.659 162.56 406.859 162.84C407.079 163.1 407.389 163.23 407.789 163.23C408.669 163.23 409.509 162.92 410.309 162.3C410.729 162.9 410.939 163.71 410.939 164.73C409.839 165.21 408.879 165.45 408.059 165.45C407.259 165.45 406.619 165.34 406.139 165.12C405.659 164.92 405.289 164.68 405.029 164.4C404.769 164.1 404.569 163.69 404.429 163.17C404.229 162.43 404.129 161.42 404.129 160.14ZM420.618 158.34C419.638 158.34 418.728 158.29 417.888 158.19C417.928 161.59 419.058 163.29 421.278 163.29C422.398 163.29 423.638 162.67 424.998 161.43C425.578 162.03 425.948 162.82 426.108 163.8C424.468 164.9 422.728 165.45 420.888 165.45C419.048 165.45 417.678 164.82 416.778 163.56C415.878 162.28 415.428 160.41 415.428 157.95C415.428 155.49 415.928 153.66 416.928 152.46C417.948 151.26 419.388 150.66 421.248 150.66C422.628 150.66 423.768 151.08 424.668 151.92C425.568 152.76 426.018 153.79 426.018 155.01C426.038 156.23 425.938 157.1 425.718 157.62C424.218 158.1 422.518 158.34 420.618 158.34ZM421.038 152.34C419.178 152.34 418.138 153.71 417.918 156.45C418.818 156.55 419.808 156.6 420.888 156.6C421.968 156.6 422.808 156.5 423.408 156.3C423.488 155.8 423.528 155.43 423.528 155.19C423.528 154.31 423.298 153.62 422.838 153.12C422.398 152.6 421.798 152.34 421.038 152.34ZM436.643 150.66C438.043 150.66 439.153 150.99 439.973 151.65C440.813 152.31 441.233 153.17 441.233 154.23C441.233 155.27 440.763 155.79 439.823 155.79C439.263 155.79 438.823 155.62 438.503 155.28C438.203 154.92 438.053 154.5 438.053 154.02C438.053 153.54 438.133 153.14 438.293 152.82C437.813 152.44 437.243 152.25 436.583 152.25C435.923 152.25 435.373 152.41 434.933 152.73C434.513 153.05 434.303 153.52 434.303 154.14C434.303 154.76 434.543 155.3 435.023 155.76C435.523 156.22 436.123 156.6 436.823 156.9C437.523 157.18 438.223 157.48 438.923 157.8C439.623 158.1 440.213 158.54 440.693 159.12C441.193 159.68 441.443 160.38 441.443 161.22C441.443 162.52 441.003 163.55 440.123 164.31C439.263 165.07 438.083 165.45 436.583 165.45C435.083 165.45 433.853 165.13 432.893 164.49C431.953 163.85 431.483 163.01 431.483 161.97V161.85C431.483 160.77 431.953 160.23 432.893 160.23C433.453 160.23 433.883 160.41 434.183 160.77C434.503 161.11 434.663 161.51 434.663 161.97C434.663 162.43 434.613 162.79 434.513 163.05C434.913 163.31 435.543 163.44 436.403 163.44C437.283 163.44 437.943 163.29 438.383 162.99C438.843 162.69 439.073 162.28 439.073 161.76C439.073 161.22 438.823 160.74 438.323 160.32C437.843 159.9 437.253 159.55 436.553 159.27C435.853 158.97 435.153 158.66 434.453 158.34C433.753 158 433.153 157.52 432.653 156.9C432.173 156.28 431.933 155.54 431.933 154.68C431.933 153.44 432.363 152.46 433.223 151.74C434.103 151.02 435.243 150.66 436.643 150.66ZM457.877 160.14C457.877 160.14 457.897 157.91 457.937 153.45C457.937 153.15 457.927 152.92 457.907 152.76C457.067 152.76 456.467 152.77 456.107 152.79C455.987 152.47 455.927 152.16 455.927 151.86C455.927 151.54 455.947 151.3 455.987 151.14H457.817L457.667 148.92C458.167 148.76 458.687 148.68 459.227 148.68C459.787 148.68 460.247 148.72 460.607 148.8L460.337 151.11C461.437 151.09 462.547 151.03 463.667 150.93C463.787 151.19 463.847 151.48 463.847 151.8C463.847 152.1 463.807 152.47 463.727 152.91C462.987 152.87 461.817 152.83 460.217 152.79C460.177 153.19 460.157 153.78 460.157 154.56V160.65C460.157 161.17 460.177 161.6 460.217 161.94C460.277 162.26 460.407 162.56 460.607 162.84C460.827 163.1 461.137 163.23 461.537 163.23C462.417 163.23 463.257 162.92 464.057 162.3C464.477 162.9 464.687 163.71 464.687 164.73C463.587 165.21 462.627 165.45 461.807 165.45C461.007 165.45 460.367 165.34 459.887 165.12C459.407 164.92 459.037 164.68 458.777 164.4C458.517 164.1 458.317 163.69 458.177 163.17C457.977 162.43 457.877 161.42 457.877 160.14ZM469.176 157.89C469.176 153.07 471.056 150.66 474.816 150.66C478.576 150.66 480.456 153.07 480.456 157.89C480.456 160.11 480.106 161.87 479.406 163.17C478.606 164.69 477.076 165.45 474.816 165.45C472.556 165.45 471.026 164.69 470.226 163.17C469.526 161.87 469.176 160.11 469.176 157.89ZM471.636 157.83C471.636 161.47 472.696 163.29 474.816 163.29C476.936 163.29 477.996 161.47 477.996 157.83C477.996 154.17 476.936 152.34 474.816 152.34C472.696 152.34 471.636 154.17 471.636 157.83ZM496.965 160.14C496.965 160.14 496.985 157.91 497.025 153.45C497.025 153.15 497.015 152.92 496.995 152.76C496.155 152.76 495.555 152.77 495.195 152.79C495.075 152.47 495.015 152.16 495.015 151.86C495.015 151.54 495.035 151.3 495.075 151.14H496.905L496.755 148.92C497.255 148.76 497.775 148.68 498.315 148.68C498.875 148.68 499.335 148.72 499.695 148.8L499.425 151.11C500.525 151.09 501.635 151.03 502.755 150.93C502.875 151.19 502.935 151.48 502.935 151.8C502.935 152.1 502.895 152.47 502.815 152.91C502.075 152.87 500.905 152.83 499.305 152.79C499.265 153.19 499.245 153.78 499.245 154.56V160.65C499.245 161.17 499.265 161.6 499.305 161.94C499.365 162.26 499.495 162.56 499.695 162.84C499.915 163.1 500.225 163.23 500.625 163.23C501.505 163.23 502.345 162.92 503.145 162.3C503.565 162.9 503.775 163.71 503.775 164.73C502.675 165.21 501.715 165.45 500.895 165.45C500.095 165.45 499.455 165.34 498.975 165.12C498.495 164.92 498.125 164.68 497.865 164.4C497.605 164.1 497.405 163.69 497.265 163.17C497.065 162.43 496.965 161.42 496.965 160.14ZM520.204 154.5L520.174 157.41C520.174 159.53 520.294 161.48 520.534 163.26L521.584 163.35C521.624 163.67 521.644 163.95 521.644 164.19C521.644 164.41 521.614 164.69 521.554 165.03C520.854 165.01 520.024 165 519.064 165C518.124 165 517.314 165.01 516.634 165.03C516.574 164.73 516.544 164.47 516.544 164.25C516.544 164.01 516.564 163.71 516.604 163.35L517.654 163.26C517.814 161.1 517.894 159.18 517.894 157.5C517.894 155.82 517.744 154.58 517.444 153.78C517.164 152.98 516.584 152.58 515.704 152.58C514.584 152.58 513.384 153.22 512.104 154.5V157.32C512.104 159.78 512.194 161.76 512.374 163.26L513.484 163.35C513.524 163.67 513.544 163.95 513.544 164.19C513.544 164.41 513.514 164.69 513.454 165.03C512.754 165.01 511.944 165 511.024 165C510.104 165 509.304 165.01 508.624 165.03C508.564 164.73 508.534 164.47 508.534 164.25C508.534 164.01 508.554 163.71 508.594 163.35L509.644 163.26C509.824 161.38 509.914 159.64 509.914 158.04V153.93C509.914 150.33 509.864 147.88 509.764 146.58L508.564 146.49C508.504 146.23 508.474 145.93 508.474 145.59C508.474 145.23 508.484 144.97 508.504 144.81C510.324 144.71 511.624 144.62 512.404 144.54L512.524 144.69C512.244 147.07 512.104 149.75 512.104 152.73C512.704 152.13 513.424 151.64 514.264 151.26C515.104 150.86 515.904 150.66 516.664 150.66C519.024 150.66 520.204 151.94 520.204 154.5ZM528.64 163.26C528.82 161.3 528.91 159.51 528.91 157.89C528.91 156.25 528.83 154.55 528.67 152.79L527.56 152.7C527.5 152.36 527.47 152.04 527.47 151.74C527.47 151.42 527.48 151.18 527.5 151.02C528.66 150.98 529.9 150.89 531.22 150.75L531.37 150.9C531.19 152.08 531.1 154.06 531.1 156.84C531.1 159.62 531.19 161.76 531.37 163.26L532.48 163.35C532.52 163.67 532.54 163.95 532.54 164.19C532.54 164.41 532.51 164.69 532.45 165.03C531.75 165.01 530.94 165 530.02 165C529.1 165 528.3 165.01 527.62 165.03C527.56 164.73 527.53 164.42 527.53 164.1C527.53 163.78 527.55 163.53 527.59 163.35L528.64 163.26ZM531.67 146.61C531.67 147.85 531.03 148.47 529.75 148.47C528.75 148.47 528.25 147.96 528.25 146.94C528.25 145.68 528.89 145.05 530.17 145.05C531.17 145.05 531.67 145.57 531.67 146.61ZM542.821 150.66C544.221 150.66 545.331 150.99 546.151 151.65C546.991 152.31 547.411 153.17 547.411 154.23C547.411 155.27 546.941 155.79 546.001 155.79C545.441 155.79 545.001 155.62 544.681 155.28C544.381 154.92 544.231 154.5 544.231 154.02C544.231 153.54 544.311 153.14 544.471 152.82C543.991 152.44 543.421 152.25 542.761 152.25C542.101 152.25 541.551 152.41 541.111 152.73C540.691 153.05 540.481 153.52 540.481 154.14C540.481 154.76 540.721 155.3 541.201 155.76C541.701 156.22 542.301 156.6 543.001 156.9C543.701 157.18 544.401 157.48 545.101 157.8C545.801 158.1 546.391 158.54 546.871 159.12C547.371 159.68 547.621 160.38 547.621 161.22C547.621 162.52 547.181 163.55 546.301 164.31C545.441 165.07 544.261 165.45 542.761 165.45C541.261 165.45 540.031 165.13 539.071 164.49C538.131 163.85 537.661 163.01 537.661 161.97V161.85C537.661 160.77 538.131 160.23 539.071 160.23C539.631 160.23 540.061 160.41 540.361 160.77C540.681 161.11 540.841 161.51 540.841 161.97C540.841 162.43 540.791 162.79 540.691 163.05C541.091 163.31 541.721 163.44 542.581 163.44C543.461 163.44 544.121 163.29 544.561 162.99C545.021 162.69 545.251 162.28 545.251 161.76C545.251 161.22 545.001 160.74 544.501 160.32C544.021 159.9 543.431 159.55 542.731 159.27C542.031 158.97 541.331 158.66 540.631 158.34C539.931 158 539.331 157.52 538.831 156.9C538.351 156.28 538.111 155.54 538.111 154.68C538.111 153.44 538.541 152.46 539.401 151.74C540.281 151.02 541.421 150.66 542.821 150.66ZM564.595 158.04V153.93C564.595 150.33 564.545 147.88 564.445 146.58L563.245 146.49C563.185 146.23 563.155 145.93 563.155 145.59C563.155 145.23 563.165 144.97 563.185 144.81C565.005 144.71 566.305 144.62 567.085 144.54L567.205 144.69C566.925 147.07 566.785 149.63 566.785 152.37V157.32C566.785 159.78 566.875 161.76 567.055 163.26L568.165 163.35C568.205 163.67 568.225 163.95 568.225 164.19C568.225 164.41 568.195 164.69 568.135 165.03C567.435 165.01 566.625 165 565.705 165C564.785 165 563.985 165.01 563.305 165.03C563.245 164.73 563.215 164.47 563.215 164.25C563.215 164.01 563.235 163.71 563.275 163.35L564.325 163.26C564.505 161.38 564.595 159.64 564.595 158.04ZM575.093 163.26C575.273 161.3 575.363 159.51 575.363 157.89C575.363 156.25 575.283 154.55 575.123 152.79L574.013 152.7C573.953 152.36 573.923 152.04 573.923 151.74C573.923 151.42 573.933 151.18 573.953 151.02C575.113 150.98 576.353 150.89 577.673 150.75L577.823 150.9C577.643 152.08 577.553 154.06 577.553 156.84C577.553 159.62 577.643 161.76 577.823 163.26L578.933 163.35C578.973 163.67 578.993 163.95 578.993 164.19C578.993 164.41 578.963 164.69 578.903 165.03C578.203 165.01 577.393 165 576.473 165C575.553 165 574.753 165.01 574.073 165.03C574.013 164.73 573.983 164.42 573.983 164.1C573.983 163.78 574.003 163.53 574.043 163.35L575.093 163.26ZM578.123 146.61C578.123 147.85 577.483 148.47 576.203 148.47C575.203 148.47 574.703 147.96 574.703 146.94C574.703 145.68 575.343 145.05 576.623 145.05C577.623 145.05 578.123 145.57 578.123 146.61ZM589.274 150.66C590.674 150.66 591.784 150.99 592.604 151.65C593.444 152.31 593.864 153.17 593.864 154.23C593.864 155.27 593.394 155.79 592.454 155.79C591.894 155.79 591.454 155.62 591.134 155.28C590.834 154.92 590.684 154.5 590.684 154.02C590.684 153.54 590.764 153.14 590.924 152.82C590.444 152.44 589.874 152.25 589.214 152.25C588.554 152.25 588.004 152.41 587.564 152.73C587.144 153.05 586.934 153.52 586.934 154.14C586.934 154.76 587.174 155.3 587.654 155.76C588.154 156.22 588.754 156.6 589.454 156.9C590.154 157.18 590.854 157.48 591.554 157.8C592.254 158.1 592.844 158.54 593.324 159.12C593.824 159.68 594.074 160.38 594.074 161.22C594.074 162.52 593.634 163.55 592.754 164.31C591.894 165.07 590.714 165.45 589.214 165.45C587.714 165.45 586.484 165.13 585.524 164.49C584.584 163.85 584.114 163.01 584.114 161.97V161.85C584.114 160.77 584.584 160.23 585.524 160.23C586.084 160.23 586.514 160.41 586.814 160.77C587.134 161.11 587.294 161.51 587.294 161.97C587.294 162.43 587.244 162.79 587.144 163.05C587.544 163.31 588.174 163.44 589.034 163.44C589.914 163.44 590.574 163.29 591.014 162.99C591.474 162.69 591.704 162.28 591.704 161.76C591.704 161.22 591.454 160.74 590.954 160.32C590.474 159.9 589.884 159.55 589.184 159.27C588.484 158.97 587.784 158.66 587.084 158.34C586.384 158 585.784 157.52 585.284 156.9C584.804 156.28 584.564 155.54 584.564 154.68C584.564 153.44 584.994 152.46 585.854 151.74C586.734 151.02 587.874 150.66 589.274 150.66ZM600.594 160.14C600.594 160.14 600.614 157.91 600.654 153.45C600.654 153.15 600.644 152.92 600.624 152.76C599.784 152.76 599.184 152.77 598.824 152.79C598.704 152.47 598.644 152.16 598.644 151.86C598.644 151.54 598.664 151.3 598.704 151.14H600.534L600.384 148.92C600.884 148.76 601.404 148.68 601.944 148.68C602.504 148.68 602.964 148.72 603.324 148.8L603.054 151.11C604.154 151.09 605.264 151.03 606.384 150.93C606.504 151.19 606.564 151.48 606.564 151.8C606.564 152.1 606.524 152.47 606.444 152.91C605.704 152.87 604.534 152.83 602.934 152.79C602.894 153.19 602.874 153.78 602.874 154.56V160.65C602.874 161.17 602.894 161.6 602.934 161.94C602.994 162.26 603.124 162.56 603.324 162.84C603.544 163.1 603.854 163.23 604.254 163.23C605.134 163.23 605.974 162.92 606.774 162.3C607.194 162.9 607.404 163.71 607.404 164.73C606.304 165.21 605.344 165.45 604.524 165.45C603.724 165.45 603.084 165.34 602.604 165.12C602.124 164.92 601.754 164.68 601.494 164.4C601.234 164.1 601.034 163.69 600.894 163.17C600.694 162.43 600.594 161.42 600.594 160.14ZM617.143 163.35C617.143 163.95 616.963 164.45 616.603 164.85C616.243 165.25 615.693 165.45 614.953 165.45C613.813 165.45 613.243 164.87 613.243 163.71C613.243 162.27 613.973 161.55 615.433 161.55C616.573 161.55 617.143 162.15 617.143 163.35Z" fill="#393939"/>
</g>
<defs>
<clipPath id="clip0">
<rect width="693" height="172" fill="white"/>
</clipPath>
</defs>
</svg>
