<svg width="1062" height="421" viewBox="0 0 1062 421" fill="none" xmlns="http://www.w3.org/2000/svg">
<g clip-path="url(#clip0)">
<path d="M417.859 251.312L433.641 245.688C434.266 252.458 437.964 257.146 444.734 259.75C445.984 260.167 446.609 260.375 446.609 260.375V276.469C437.651 276.469 430.047 272.615 423.797 264.906C419.943 260.01 417.964 255.479 417.859 251.312ZM419.109 196.312C419.109 184.958 424.005 176.417 433.797 170.688C438.38 168.083 442.651 166.729 446.609 166.625V183.031C443.38 183.552 440.568 185.427 438.172 188.656C436.609 190.948 435.828 193.396 435.828 196C435.828 201.417 439.734 205.74 447.547 208.969C449.422 209.698 452.339 210.688 456.297 211.938C461.297 213.5 464.786 214.75 466.766 215.688C475.828 220.167 481.714 225.479 484.422 231.625C485.984 235.271 486.766 239.281 486.766 243.656C486.766 252.823 483.224 260.792 476.141 267.562C469.786 273.5 462.651 276.469 454.734 276.469V260.375C458.693 260.167 462.234 258.292 465.359 254.75C467.964 251.625 469.266 248.031 469.266 243.969C469.266 237.615 464.839 232.823 455.984 229.594C454.109 228.865 451.193 227.927 447.234 226.781C442.859 225.531 439.891 224.542 438.328 223.812C429.578 219.958 423.953 215.01 421.453 208.969C419.891 205.323 419.109 201.104 419.109 196.312ZM454.734 183.031V166.625C463.693 166.625 471.193 170.479 477.234 178.188C480.464 182.354 482.182 186.156 482.391 189.594L466.297 194.906C465.88 191.781 464.682 189.229 462.703 187.25C460.828 185.271 459.057 184.073 457.391 183.656L454.734 183.031ZM504.297 252.406V212.875C504.297 207.771 506.589 202.823 511.172 198.031C516.589 192.302 523.411 189.438 531.641 189.438V205.531C526.224 205.531 522.734 207.771 521.172 212.25C520.859 213.188 520.703 214.125 520.703 215.062V250.219C520.703 254.177 522.526 257.042 526.172 258.812C527.839 259.646 529.714 260.062 531.797 260.062V276.156C521.693 276.156 513.88 272.094 508.359 263.969C505.651 259.906 504.297 256.052 504.297 252.406ZM538.672 276.156V260.062C543.672 260.062 546.953 257.927 548.516 253.656C548.932 252.51 549.141 251.469 549.141 250.531V215.062C549.141 210.688 547.109 207.771 543.047 206.312C541.693 205.792 540.182 205.531 538.516 205.531V189.438C548.307 189.438 555.859 193.396 561.172 201.312C563.88 205.375 565.234 209.229 565.234 212.875V252.406C565.234 257.51 563.047 262.51 558.672 267.406C553.359 273.135 546.693 276.052 538.672 276.156ZM582.141 213.031V196.781H592.766V189.125C592.766 183.917 594.693 178.865 598.547 173.969C603.339 168.031 609.484 165.01 616.984 164.906H624.953L621.203 181H616.984C612.505 181.938 610.005 184.646 609.484 189.125V196.781H620.422V213.031H609.484V276H592.766V213.031H582.141ZM636.234 206V189.906H646.859V164.906H663.422V189.906H673.734V206.156H663.422L663.578 249.438C663.786 255.688 666.911 258.865 672.953 258.969H676.234L679.984 276H672.641C659.411 276 651.339 270.948 648.422 260.844C647.38 257.198 646.859 252.875 646.859 247.875V206H636.234ZM690.328 189.438L717.828 276H727.203L732.516 259.281L708.922 189.438H690.328ZM725.953 221.469L734.547 246.469H736.578L745.484 218.5L763.766 276H773.141L778.453 259.281L754.859 189.438H736.266L725.953 221.469ZM772.047 221.469L780.484 246.469H782.516L800.797 189.438H782.203L772.047 221.469ZM815.984 252.406V212.875C815.984 207.771 818.276 202.823 822.859 198.031C828.276 192.302 835.099 189.438 843.328 189.438V205.531C837.911 205.531 834.422 207.771 832.859 212.25C832.547 213.188 832.391 214.125 832.391 215.062V250.219C832.391 254.177 834.214 257.042 837.859 258.812C839.526 259.646 841.401 260.062 843.484 260.062V276.156C833.38 276.156 825.568 272.094 820.047 263.969C817.339 259.906 815.984 256.052 815.984 252.406ZM850.359 276.156V260.062C855.359 260.062 858.641 257.927 860.203 253.656C860.62 252.51 860.828 251.469 860.828 250.531V215.062C860.828 210.688 858.797 207.771 854.734 206.312C853.38 205.792 851.87 205.531 850.203 205.531V189.438C859.995 189.438 867.547 193.396 872.859 201.312C875.568 205.375 876.922 209.229 876.922 212.875V252.406C876.922 257.51 874.734 262.51 870.359 267.406C865.047 273.135 858.38 276.052 850.359 276.156ZM897.422 276V189.438H914.297V200.219C917.214 195.635 921.589 192.354 927.422 190.375C930.13 189.438 932.786 188.969 935.391 188.969H939.453L935.547 205.375C929.401 205.479 924.036 208.448 919.453 214.281C916.016 218.76 914.297 223.396 914.297 228.188V276H897.422ZM955.891 276V164.906H973.078V276H955.891ZM977.297 232.406L1003.39 189.438H1022.45L995.891 232.406L1022.61 276H1003.7L977.297 232.406Z" fill="#393939"/>
<path d="M383.15 309.78C383.01 311.34 382.94 313.85 382.94 317.31C382.94 320.75 383.02 323.4 383.18 325.26L384.92 325.44C384.96 325.76 384.98 326.02 384.98 326.22C384.98 326.4 384.95 326.67 384.89 327.03C384.17 327.01 383.13 327 381.77 327C380.43 327 379.45 327.01 378.83 327.03C378.77 326.73 378.74 326.48 378.74 326.28C378.74 326.08 378.76 325.8 378.8 325.44L380.45 325.26C380.61 323.12 380.69 320.41 380.69 317.13C380.69 313.83 380.6 311.38 380.42 309.78C379.64 309.8 378.56 309.87 377.18 309.99L377.09 312.21C376.77 312.27 376.47 312.3 376.19 312.3C375.91 312.3 375.65 312.29 375.41 312.27C375.35 310.63 375.26 309.11 375.14 307.71L375.29 307.56C376.77 307.74 379.14 307.83 382.4 307.83C385.66 307.83 387.7 307.74 388.52 307.56L388.67 307.71C388.53 309.25 388.44 310.67 388.4 311.97C388.16 311.99 387.9 312 387.62 312C387.36 312 387.06 311.97 386.72 311.91L386.63 309.9C385.79 309.86 384.63 309.82 383.15 309.78ZM405.424 316.5L405.394 319.41C405.394 321.53 405.514 323.48 405.754 325.26L406.804 325.35C406.844 325.67 406.864 325.95 406.864 326.19C406.864 326.41 406.834 326.69 406.774 327.03C406.074 327.01 405.244 327 404.284 327C403.344 327 402.534 327.01 401.854 327.03C401.794 326.73 401.764 326.47 401.764 326.25C401.764 326.01 401.784 325.71 401.824 325.35L402.874 325.26C403.034 323.1 403.114 321.18 403.114 319.5C403.114 317.82 402.964 316.58 402.664 315.78C402.384 314.98 401.804 314.58 400.924 314.58C399.804 314.58 398.604 315.22 397.324 316.5V319.32C397.324 321.78 397.414 323.76 397.594 325.26L398.704 325.35C398.744 325.67 398.764 325.95 398.764 326.19C398.764 326.41 398.734 326.69 398.674 327.03C397.974 327.01 397.164 327 396.244 327C395.324 327 394.524 327.01 393.844 327.03C393.784 326.73 393.754 326.47 393.754 326.25C393.754 326.01 393.774 325.71 393.814 325.35L394.864 325.26C395.044 323.38 395.134 321.64 395.134 320.04V315.93C395.134 312.33 395.084 309.88 394.984 308.58L393.784 308.49C393.724 308.23 393.694 307.93 393.694 307.59C393.694 307.23 393.704 306.97 393.724 306.81C395.544 306.71 396.844 306.62 397.624 306.54L397.744 306.69C397.464 309.07 397.324 311.75 397.324 314.73C397.924 314.13 398.644 313.64 399.484 313.26C400.324 312.86 401.124 312.66 401.884 312.66C404.244 312.66 405.424 313.94 405.424 316.5ZM417.67 320.34C416.69 320.34 415.78 320.29 414.94 320.19C414.98 323.59 416.11 325.29 418.33 325.29C419.45 325.29 420.69 324.67 422.05 323.43C422.63 324.03 423 324.82 423.16 325.8C421.52 326.9 419.78 327.45 417.94 327.45C416.1 327.45 414.73 326.82 413.83 325.56C412.93 324.28 412.48 322.41 412.48 319.95C412.48 317.49 412.98 315.66 413.98 314.46C415 313.26 416.44 312.66 418.3 312.66C419.68 312.66 420.82 313.08 421.72 313.92C422.62 314.76 423.07 315.79 423.07 317.01C423.09 318.23 422.99 319.1 422.77 319.62C421.27 320.1 419.57 320.34 417.67 320.34ZM418.09 314.34C416.23 314.34 415.19 315.71 414.97 318.45C415.87 318.55 416.86 318.6 417.94 318.6C419.02 318.6 419.86 318.5 420.46 318.3C420.54 317.8 420.58 317.43 420.58 317.19C420.58 316.31 420.35 315.62 419.89 315.12C419.45 314.6 418.85 314.34 418.09 314.34ZM443.609 312.66C445.009 312.66 446.119 312.99 446.939 313.65C447.779 314.31 448.199 315.17 448.199 316.23C448.199 317.27 447.729 317.79 446.789 317.79C446.229 317.79 445.789 317.62 445.469 317.28C445.169 316.92 445.019 316.5 445.019 316.02C445.019 315.54 445.099 315.14 445.259 314.82C444.779 314.44 444.209 314.25 443.549 314.25C442.889 314.25 442.339 314.41 441.899 314.73C441.479 315.05 441.269 315.52 441.269 316.14C441.269 316.76 441.509 317.3 441.989 317.76C442.489 318.22 443.089 318.6 443.789 318.9C444.489 319.18 445.189 319.48 445.889 319.8C446.589 320.1 447.179 320.54 447.659 321.12C448.159 321.68 448.409 322.38 448.409 323.22C448.409 324.52 447.969 325.55 447.089 326.31C446.229 327.07 445.049 327.45 443.549 327.45C442.049 327.45 440.819 327.13 439.859 326.49C438.919 325.85 438.449 325.01 438.449 323.97V323.85C438.449 322.77 438.919 322.23 439.859 322.23C440.419 322.23 440.849 322.41 441.149 322.77C441.469 323.11 441.629 323.51 441.629 323.97C441.629 324.43 441.579 324.79 441.479 325.05C441.879 325.31 442.509 325.44 443.369 325.44C444.249 325.44 444.909 325.29 445.349 324.99C445.809 324.69 446.039 324.28 446.039 323.76C446.039 323.22 445.789 322.74 445.289 322.32C444.809 321.9 444.219 321.55 443.519 321.27C442.819 320.97 442.119 320.66 441.419 320.34C440.719 320 440.119 319.52 439.619 318.9C439.139 318.28 438.899 317.54 438.899 316.68C438.899 315.44 439.329 314.46 440.189 313.74C441.069 313.02 442.209 312.66 443.609 312.66ZM459.219 320.34C458.239 320.34 457.329 320.29 456.489 320.19C456.529 323.59 457.659 325.29 459.879 325.29C460.999 325.29 462.239 324.67 463.599 323.43C464.179 324.03 464.549 324.82 464.709 325.8C463.069 326.9 461.329 327.45 459.489 327.45C457.649 327.45 456.279 326.82 455.379 325.56C454.479 324.28 454.029 322.41 454.029 319.95C454.029 317.49 454.529 315.66 455.529 314.46C456.549 313.26 457.989 312.66 459.849 312.66C461.229 312.66 462.369 313.08 463.269 313.92C464.169 314.76 464.619 315.79 464.619 317.01C464.639 318.23 464.539 319.1 464.319 319.62C462.819 320.1 461.119 320.34 459.219 320.34ZM459.639 314.34C457.779 314.34 456.739 315.71 456.519 318.45C457.419 318.55 458.409 318.6 459.489 318.6C460.569 318.6 461.409 318.5 462.009 318.3C462.089 317.8 462.129 317.43 462.129 317.19C462.129 316.31 461.899 315.62 461.439 315.12C460.999 314.6 460.399 314.34 459.639 314.34ZM480.854 316.65L480.734 320.97C480.734 322.33 480.814 323.66 480.974 324.96L482.084 325.05C482.124 325.37 482.144 325.67 482.144 325.95C482.144 326.21 482.114 326.49 482.054 326.79C481.474 326.81 480.344 326.91 478.664 327.09C478.524 326.71 478.414 326.24 478.334 325.68C476.774 326.86 475.424 327.45 474.284 327.45C473.164 327.45 472.284 327.09 471.644 326.37C471.024 325.63 470.714 324.59 470.714 323.25C470.714 321.89 471.134 320.82 471.974 320.04C472.834 319.26 473.904 318.87 475.184 318.87C476.484 318.87 477.594 319.11 478.514 319.59C478.534 319.37 478.544 319.01 478.544 318.51C478.544 317.03 478.334 315.97 477.914 315.33C477.514 314.67 476.894 314.34 476.054 314.34C475.214 314.34 474.604 314.5 474.224 314.82C474.384 315.14 474.464 315.54 474.464 316.02C474.464 316.5 474.304 316.92 473.984 317.28C473.684 317.62 473.254 317.79 472.694 317.79C471.754 317.79 471.284 317.24 471.284 316.14C471.284 315.02 471.704 314.16 472.544 313.56C473.384 312.96 474.564 312.66 476.084 312.66C477.604 312.66 478.774 313.02 479.594 313.74C480.434 314.44 480.854 315.41 480.854 316.65ZM478.394 321.48C477.574 320.78 476.694 320.43 475.754 320.43C473.954 320.43 473.054 321.23 473.054 322.83C473.054 324.47 473.764 325.29 475.184 325.29C475.704 325.29 476.254 325.16 476.834 324.9C477.434 324.62 477.904 324.28 478.244 323.88C478.344 322.68 478.394 321.88 478.394 321.48ZM488.524 325.26C488.704 323.26 488.794 321.43 488.794 319.77C488.794 318.09 488.714 316.43 488.554 314.79L487.444 314.7C487.384 314.38 487.354 314.05 487.354 313.71C487.354 313.37 487.364 313.14 487.384 313.02C488.404 313 489.644 312.91 491.104 312.75L491.254 312.9C491.234 313.02 491.174 313.61 491.074 314.67C491.534 314.09 492.064 313.61 492.664 313.23C493.284 312.85 493.884 312.66 494.464 312.66C495.064 312.66 495.584 312.87 496.024 313.29C496.464 313.71 496.684 314.26 496.684 314.94C496.684 316.06 496.214 316.62 495.274 316.62C494.734 316.62 494.304 316.45 493.984 316.11C493.664 315.75 493.504 315.28 493.504 314.7C493.464 314.68 493.394 314.67 493.294 314.67C492.554 314.67 491.794 315.23 491.014 316.35C490.994 316.91 490.984 318.17 490.984 320.13C490.984 322.07 491.074 323.78 491.254 325.26L492.364 325.35C492.404 325.79 492.424 326.1 492.424 326.28C492.424 326.44 492.394 326.69 492.334 327.03C491.774 327.01 490.954 327 489.874 327C488.794 327 488.004 327.01 487.504 327.03C487.444 326.73 487.414 326.45 487.414 326.19C487.414 325.91 487.434 325.63 487.474 325.35L488.524 325.26ZM509.904 317.79C509.344 317.79 508.904 317.62 508.584 317.28C508.284 316.92 508.134 316.49 508.134 315.99C508.134 315.47 508.204 315.08 508.344 314.82C507.904 314.48 507.384 314.31 506.784 314.31C504.664 314.31 503.604 316.19 503.604 319.95C503.604 321.67 503.874 322.99 504.414 323.91C504.954 324.83 505.714 325.29 506.694 325.29C507.694 325.29 508.924 324.67 510.384 323.43C510.964 324.03 511.334 324.82 511.494 325.8C509.814 326.9 508.104 327.45 506.364 327.45C504.624 327.45 503.314 326.82 502.434 325.56C501.574 324.3 501.144 322.44 501.144 319.98C501.144 317.52 501.624 315.69 502.584 314.49C503.544 313.27 504.904 312.66 506.664 312.66C508.044 312.66 509.164 312.99 510.024 313.65C510.884 314.29 511.314 315.14 511.314 316.2C511.314 317.26 510.844 317.79 509.904 317.79ZM528.975 316.5L528.945 319.41C528.945 321.53 529.065 323.48 529.305 325.26L530.355 325.35C530.395 325.67 530.415 325.95 530.415 326.19C530.415 326.41 530.385 326.69 530.325 327.03C529.625 327.01 528.795 327 527.835 327C526.895 327 526.085 327.01 525.405 327.03C525.345 326.73 525.315 326.47 525.315 326.25C525.315 326.01 525.335 325.71 525.375 325.35L526.425 325.26C526.585 323.1 526.665 321.18 526.665 319.5C526.665 317.82 526.515 316.58 526.215 315.78C525.935 314.98 525.355 314.58 524.475 314.58C523.355 314.58 522.155 315.22 520.875 316.5V319.32C520.875 321.78 520.965 323.76 521.145 325.26L522.255 325.35C522.295 325.67 522.315 325.95 522.315 326.19C522.315 326.41 522.285 326.69 522.225 327.03C521.525 327.01 520.715 327 519.795 327C518.875 327 518.075 327.01 517.395 327.03C517.335 326.73 517.305 326.47 517.305 326.25C517.305 326.01 517.325 325.71 517.365 325.35L518.415 325.26C518.595 323.38 518.685 321.64 518.685 320.04V315.93C518.685 312.33 518.635 309.88 518.535 308.58L517.335 308.49C517.275 308.23 517.245 307.93 517.245 307.59C517.245 307.23 517.255 306.97 517.275 306.81C519.095 306.71 520.395 306.62 521.175 306.54L521.295 306.69C521.015 309.07 520.875 311.75 520.875 314.73C521.475 314.13 522.195 313.64 523.035 313.26C523.875 312.86 524.675 312.66 525.435 312.66C527.795 312.66 528.975 313.94 528.975 316.5ZM551.135 320.34C550.155 320.34 549.245 320.29 548.405 320.19C548.445 323.59 549.575 325.29 551.795 325.29C552.915 325.29 554.155 324.67 555.515 323.43C556.095 324.03 556.465 324.82 556.625 325.8C554.985 326.9 553.245 327.45 551.405 327.45C549.565 327.45 548.195 326.82 547.295 325.56C546.395 324.28 545.945 322.41 545.945 319.95C545.945 317.49 546.445 315.66 547.445 314.46C548.465 313.26 549.905 312.66 551.765 312.66C553.145 312.66 554.285 313.08 555.185 313.92C556.085 314.76 556.535 315.79 556.535 317.01C556.555 318.23 556.455 319.1 556.235 319.62C554.735 320.1 553.035 320.34 551.135 320.34ZM551.555 314.34C549.695 314.34 548.655 315.71 548.435 318.45C549.335 318.55 550.325 318.6 551.405 318.6C552.485 318.6 553.325 318.5 553.925 318.3C554.005 317.8 554.045 317.43 554.045 317.19C554.045 316.31 553.815 315.62 553.355 315.12C552.915 314.6 552.315 314.34 551.555 314.34ZM574.42 316.5L574.39 319.41C574.39 321.51 574.51 323.46 574.75 325.26L575.8 325.35C575.84 325.79 575.86 326.1 575.86 326.28C575.86 326.44 575.83 326.69 575.77 327.03C575.21 327.01 574.37 327 573.25 327C572.13 327 571.33 327.01 570.85 327.03C570.79 326.73 570.76 326.45 570.76 326.19C570.76 325.91 570.78 325.63 570.82 325.35L571.87 325.26C572.03 322.92 572.11 320.92 572.11 319.26C572.11 317.58 571.94 316.38 571.6 315.66C571.28 314.94 570.72 314.58 569.92 314.58C568.84 314.58 567.65 315.23 566.35 316.53C566.33 317.05 566.32 318.27 566.32 320.19C566.32 322.09 566.41 323.78 566.59 325.26L567.7 325.35C567.74 325.79 567.76 326.1 567.76 326.28C567.76 326.44 567.73 326.69 567.67 327.03C567.11 327.01 566.29 327 565.21 327C564.13 327 563.34 327.01 562.84 327.03C562.78 326.73 562.75 326.45 562.75 326.19C562.75 325.91 562.77 325.63 562.81 325.35L563.86 325.26C564.04 323.26 564.13 321.43 564.13 319.77C564.13 318.09 564.05 316.43 563.89 314.79L562.78 314.7C562.72 314.36 562.69 314.03 562.69 313.71C562.69 313.37 562.7 313.14 562.72 313.02C563.74 313 564.98 312.91 566.44 312.75L566.59 312.9C566.55 313.14 566.49 313.74 566.41 314.7C567.03 314.08 567.75 313.59 568.57 313.23C569.39 312.85 570.16 312.66 570.88 312.66C573.24 312.66 574.42 313.94 574.42 316.5ZM586.726 312.66C586.966 312.66 587.146 312.67 587.266 312.69C588.526 310.77 589.896 309.81 591.376 309.81C592.676 309.81 593.326 310.44 593.326 311.7C593.326 312.58 592.886 313.02 592.006 313.02C591.146 313.02 590.646 312.57 590.506 311.67C589.926 311.67 589.386 312.1 588.886 312.96C590.826 313.6 591.796 315.2 591.796 317.76C591.796 319.32 591.486 320.62 590.866 321.66C590.166 322.82 588.786 323.4 586.726 323.4C585.866 323.4 585.166 323.3 584.626 323.1C584.206 323.84 583.896 324.65 583.696 325.53C584.036 325.59 584.396 325.62 584.776 325.62C585.156 325.62 585.916 325.55 587.056 325.41C588.196 325.27 589.016 325.2 589.516 325.2C590.556 325.2 591.396 325.46 592.036 325.98C592.676 326.5 592.996 327.3 592.996 328.38C592.996 329.46 592.646 330.4 591.946 331.2C590.726 332.6 588.826 333.3 586.246 333.3C584.506 333.3 583.176 333.08 582.256 332.64C581.336 332.2 580.876 331.38 580.876 330.18C580.876 329.3 581.346 328.39 582.286 327.45C581.906 327.17 581.716 326.78 581.716 326.28C581.716 325.22 582.226 323.92 583.246 322.38C582.186 321.52 581.656 319.98 581.656 317.76C581.656 314.36 583.346 312.66 586.726 312.66ZM584.086 317.79C584.086 320.15 584.966 321.33 586.726 321.33C588.486 321.33 589.366 320.15 589.366 317.79C589.366 315.43 588.486 314.25 586.726 314.25C584.966 314.25 584.086 315.43 584.086 317.79ZM583.306 329.73C583.306 331.01 584.476 331.65 586.816 331.65C587.816 331.65 588.706 331.43 589.486 330.99C590.286 330.55 590.686 329.89 590.686 329.01C590.686 328.03 590.156 327.54 589.096 327.54C588.576 327.54 587.756 327.6 586.636 327.72C585.516 327.86 584.616 327.93 583.936 327.93H583.696C583.436 328.49 583.306 329.09 583.306 329.73ZM599.831 325.26C600.011 323.3 600.101 321.51 600.101 319.89C600.101 318.25 600.021 316.55 599.861 314.79L598.751 314.7C598.691 314.36 598.661 314.04 598.661 313.74C598.661 313.42 598.671 313.18 598.691 313.02C599.851 312.98 601.091 312.89 602.411 312.75L602.561 312.9C602.381 314.08 602.291 316.06 602.291 318.84C602.291 321.62 602.381 323.76 602.561 325.26L603.671 325.35C603.711 325.67 603.731 325.95 603.731 326.19C603.731 326.41 603.701 326.69 603.641 327.03C602.941 327.01 602.131 327 601.211 327C600.291 327 599.491 327.01 598.811 327.03C598.751 326.73 598.721 326.42 598.721 326.1C598.721 325.78 598.741 325.53 598.781 325.35L599.831 325.26ZM602.861 308.61C602.861 309.85 602.221 310.47 600.941 310.47C599.941 310.47 599.441 309.96 599.441 308.94C599.441 307.68 600.081 307.05 601.361 307.05C602.361 307.05 602.861 307.57 602.861 308.61ZM621.271 316.5L621.241 319.41C621.241 321.51 621.361 323.46 621.601 325.26L622.651 325.35C622.691 325.79 622.711 326.1 622.711 326.28C622.711 326.44 622.681 326.69 622.621 327.03C622.061 327.01 621.221 327 620.101 327C618.981 327 618.181 327.01 617.701 327.03C617.641 326.73 617.611 326.45 617.611 326.19C617.611 325.91 617.631 325.63 617.671 325.35L618.721 325.26C618.881 322.92 618.961 320.92 618.961 319.26C618.961 317.58 618.791 316.38 618.451 315.66C618.131 314.94 617.571 314.58 616.771 314.58C615.691 314.58 614.501 315.23 613.201 316.53C613.181 317.05 613.171 318.27 613.171 320.19C613.171 322.09 613.261 323.78 613.441 325.26L614.551 325.35C614.591 325.79 614.611 326.1 614.611 326.28C614.611 326.44 614.581 326.69 614.521 327.03C613.961 327.01 613.141 327 612.061 327C610.981 327 610.191 327.01 609.691 327.03C609.631 326.73 609.601 326.45 609.601 326.19C609.601 325.91 609.621 325.63 609.661 325.35L610.711 325.26C610.891 323.26 610.981 321.43 610.981 319.77C610.981 318.09 610.901 316.43 610.741 314.79L609.631 314.7C609.571 314.36 609.541 314.03 609.541 313.71C609.541 313.37 609.551 313.14 609.571 313.02C610.591 313 611.831 312.91 613.291 312.75L613.441 312.9C613.401 313.14 613.341 313.74 613.261 314.7C613.881 314.08 614.601 313.59 615.421 313.23C616.241 312.85 617.011 312.66 617.731 312.66C620.091 312.66 621.271 313.94 621.271 316.5ZM633.518 320.34C632.538 320.34 631.628 320.29 630.788 320.19C630.828 323.59 631.958 325.29 634.178 325.29C635.298 325.29 636.538 324.67 637.898 323.43C638.478 324.03 638.848 324.82 639.008 325.8C637.368 326.9 635.628 327.45 633.788 327.45C631.948 327.45 630.578 326.82 629.678 325.56C628.778 324.28 628.328 322.41 628.328 319.95C628.328 317.49 628.828 315.66 629.828 314.46C630.848 313.26 632.288 312.66 634.148 312.66C635.528 312.66 636.668 313.08 637.568 313.92C638.468 314.76 638.918 315.79 638.918 317.01C638.938 318.23 638.838 319.1 638.618 319.62C637.118 320.1 635.418 320.34 633.518 320.34ZM633.938 314.34C632.078 314.34 631.038 315.71 630.818 318.45C631.718 318.55 632.708 318.6 633.788 318.6C634.868 318.6 635.708 318.5 636.308 318.3C636.388 317.8 636.428 317.43 636.428 317.19C636.428 316.31 636.198 315.62 635.738 315.12C635.298 314.6 634.698 314.34 633.938 314.34ZM656.427 320.76L656.337 314.76C655.457 314.76 654.887 314.77 654.627 314.79C654.507 314.45 654.447 314.12 654.447 313.8C654.447 313.48 654.467 313.26 654.507 313.14H656.247C656.227 312.96 656.217 312.56 656.217 311.94C656.217 308.48 657.607 306.75 660.387 306.75C661.307 306.75 662.127 306.95 662.847 307.35C663.587 307.75 663.957 308.38 663.957 309.24C663.957 310.36 663.487 310.92 662.547 310.92C662.007 310.92 661.577 310.76 661.257 310.44C660.957 310.12 660.797 309.76 660.777 309.36C660.777 308.96 660.797 308.68 660.837 308.52C660.657 308.44 660.467 308.4 660.267 308.4C659.027 308.4 658.407 309.64 658.407 312.12C658.407 312.62 658.417 312.95 658.437 313.11C659.937 313.09 661.187 313.03 662.187 312.93C662.307 313.19 662.367 313.48 662.367 313.8C662.367 314.12 662.327 314.49 662.247 314.91C661.967 314.89 660.747 314.85 658.587 314.79V317.61L658.617 319.89C658.617 322.07 658.717 323.86 658.917 325.26L659.997 325.35C660.037 325.53 660.057 325.77 660.057 326.07C660.057 326.37 660.027 326.69 659.967 327.03C659.407 327.01 658.587 327 657.507 327C656.427 327 655.637 327.01 655.137 327.03C655.077 326.73 655.047 326.45 655.047 326.19C655.047 325.91 655.067 325.63 655.107 325.35L656.127 325.26C656.327 323.32 656.427 321.82 656.427 320.76ZM667.708 319.89C667.708 315.07 669.588 312.66 673.348 312.66C677.108 312.66 678.988 315.07 678.988 319.89C678.988 322.11 678.638 323.87 677.938 325.17C677.138 326.69 675.608 327.45 673.348 327.45C671.088 327.45 669.558 326.69 668.758 325.17C668.058 323.87 667.708 322.11 667.708 319.89ZM670.168 319.83C670.168 323.47 671.228 325.29 673.348 325.29C675.468 325.29 676.528 323.47 676.528 319.83C676.528 316.17 675.468 314.34 673.348 314.34C671.228 314.34 670.168 316.17 670.168 319.83ZM685.463 325.26C685.643 323.26 685.733 321.43 685.733 319.77C685.733 318.09 685.653 316.43 685.493 314.79L684.383 314.7C684.323 314.38 684.293 314.05 684.293 313.71C684.293 313.37 684.303 313.14 684.323 313.02C685.343 313 686.583 312.91 688.043 312.75L688.193 312.9C688.173 313.02 688.113 313.61 688.013 314.67C688.473 314.09 689.003 313.61 689.603 313.23C690.223 312.85 690.823 312.66 691.403 312.66C692.003 312.66 692.523 312.87 692.963 313.29C693.403 313.71 693.623 314.26 693.623 314.94C693.623 316.06 693.153 316.62 692.213 316.62C691.673 316.62 691.243 316.45 690.923 316.11C690.603 315.75 690.443 315.28 690.443 314.7C690.403 314.68 690.333 314.67 690.233 314.67C689.493 314.67 688.733 315.23 687.953 316.35C687.933 316.91 687.923 318.17 687.923 320.13C687.923 322.07 688.013 323.78 688.193 325.26L689.303 325.35C689.343 325.79 689.363 326.1 689.363 326.28C689.363 326.44 689.333 326.69 689.273 327.03C688.713 327.01 687.893 327 686.813 327C685.733 327 684.943 327.01 684.443 327.03C684.383 326.73 684.353 326.45 684.353 326.19C684.353 325.91 684.373 325.63 684.413 325.35L685.463 325.26ZM712.677 312.66C714.077 312.66 715.187 312.99 716.007 313.65C716.847 314.31 717.267 315.17 717.267 316.23C717.267 317.27 716.797 317.79 715.857 317.79C715.297 317.79 714.857 317.62 714.537 317.28C714.237 316.92 714.087 316.5 714.087 316.02C714.087 315.54 714.167 315.14 714.327 314.82C713.847 314.44 713.277 314.25 712.617 314.25C711.957 314.25 711.407 314.41 710.967 314.73C710.547 315.05 710.337 315.52 710.337 316.14C710.337 316.76 710.577 317.3 711.057 317.76C711.557 318.22 712.157 318.6 712.857 318.9C713.557 319.18 714.257 319.48 714.957 319.8C715.657 320.1 716.247 320.54 716.727 321.12C717.227 321.68 717.477 322.38 717.477 323.22C717.477 324.52 717.037 325.55 716.157 326.31C715.297 327.07 714.117 327.45 712.617 327.45C711.117 327.45 709.887 327.13 708.927 326.49C707.987 325.85 707.517 325.01 707.517 323.97V323.85C707.517 322.77 707.987 322.23 708.927 322.23C709.487 322.23 709.917 322.41 710.217 322.77C710.537 323.11 710.697 323.51 710.697 323.97C710.697 324.43 710.647 324.79 710.547 325.05C710.947 325.31 711.577 325.44 712.437 325.44C713.317 325.44 713.977 325.29 714.417 324.99C714.877 324.69 715.107 324.28 715.107 323.76C715.107 323.22 714.857 322.74 714.357 322.32C713.877 321.9 713.287 321.55 712.587 321.27C711.887 320.97 711.187 320.66 710.487 320.34C709.787 320 709.187 319.52 708.687 318.9C708.207 318.28 707.967 317.54 707.967 316.68C707.967 315.44 708.397 314.46 709.257 313.74C710.137 313.02 711.277 312.66 712.677 312.66ZM723.097 319.89C723.097 315.07 724.977 312.66 728.737 312.66C732.497 312.66 734.377 315.07 734.377 319.89C734.377 322.11 734.027 323.87 733.327 325.17C732.527 326.69 730.997 327.45 728.737 327.45C726.477 327.45 724.947 326.69 724.147 325.17C723.447 323.87 723.097 322.11 723.097 319.89ZM725.557 319.83C725.557 323.47 726.617 325.29 728.737 325.29C730.857 325.29 731.917 323.47 731.917 319.83C731.917 316.17 730.857 314.34 728.737 314.34C726.617 314.34 725.557 316.17 725.557 319.83ZM741.722 320.76L741.632 314.76C740.752 314.76 740.182 314.77 739.922 314.79C739.802 314.45 739.742 314.12 739.742 313.8C739.742 313.48 739.762 313.26 739.802 313.14H741.542C741.522 312.96 741.512 312.56 741.512 311.94C741.512 308.48 742.902 306.75 745.682 306.75C746.602 306.75 747.422 306.95 748.142 307.35C748.882 307.75 749.252 308.38 749.252 309.24C749.252 310.36 748.782 310.92 747.842 310.92C747.302 310.92 746.872 310.76 746.552 310.44C746.252 310.12 746.092 309.76 746.072 309.36C746.072 308.96 746.092 308.68 746.132 308.52C745.952 308.44 745.762 308.4 745.562 308.4C744.322 308.4 743.702 309.64 743.702 312.12C743.702 312.62 743.712 312.95 743.732 313.11C745.232 313.09 746.482 313.03 747.482 312.93C747.602 313.19 747.662 313.48 747.662 313.8C747.662 314.12 747.622 314.49 747.542 314.91C747.262 314.89 746.042 314.85 743.882 314.79V317.61L743.912 319.89C743.912 322.07 744.012 323.86 744.212 325.26L745.292 325.35C745.332 325.53 745.352 325.77 745.352 326.07C745.352 326.37 745.322 326.69 745.262 327.03C744.702 327.01 743.882 327 742.802 327C741.722 327 740.932 327.01 740.432 327.03C740.372 326.73 740.342 326.45 740.342 326.19C740.342 325.91 740.362 325.63 740.402 325.35L741.422 325.26C741.622 323.32 741.722 321.82 741.722 320.76ZM753.903 322.14C753.903 322.14 753.923 319.91 753.963 315.45C753.963 315.15 753.953 314.92 753.933 314.76C753.093 314.76 752.493 314.77 752.133 314.79C752.013 314.47 751.953 314.16 751.953 313.86C751.953 313.54 751.973 313.3 752.013 313.14H753.843L753.693 310.92C754.193 310.76 754.713 310.68 755.253 310.68C755.813 310.68 756.273 310.72 756.633 310.8L756.363 313.11C757.463 313.09 758.573 313.03 759.693 312.93C759.813 313.19 759.873 313.48 759.873 313.8C759.873 314.1 759.833 314.47 759.753 314.91C759.013 314.87 757.843 314.83 756.243 314.79C756.203 315.19 756.183 315.78 756.183 316.56V322.65C756.183 323.17 756.203 323.6 756.243 323.94C756.303 324.26 756.433 324.56 756.633 324.84C756.853 325.1 757.163 325.23 757.563 325.23C758.443 325.23 759.283 324.92 760.083 324.3C760.503 324.9 760.713 325.71 760.713 326.73C759.613 327.21 758.653 327.45 757.833 327.45C757.033 327.45 756.393 327.34 755.913 327.12C755.433 326.92 755.063 326.68 754.803 326.4C754.543 326.1 754.343 325.69 754.203 325.17C754.003 324.43 753.903 323.42 753.903 322.14ZM772.283 314.7C772.883 314.56 773.393 314.49 773.813 314.49C774.253 314.49 774.653 314.52 775.013 314.58C775.413 317.86 775.983 320.89 776.723 323.67H776.843C777.303 322.67 777.753 321.31 778.193 319.59C778.653 317.87 778.983 316.26 779.183 314.76L777.953 314.67C777.913 314.47 777.893 314.21 777.893 313.89C777.893 313.55 777.923 313.25 777.983 312.99C778.583 313.01 779.413 313.02 780.473 313.02C781.553 313.02 782.383 313.01 782.963 312.99C783.023 313.25 783.053 313.53 783.053 313.83C783.053 314.13 783.033 314.41 782.993 314.67L781.973 314.76C779.653 320.72 778.213 324.8 777.653 327C777.133 327.14 776.663 327.21 776.243 327.21C775.843 327.21 775.573 327.2 775.433 327.18C775.213 325.62 774.553 322.75 773.453 318.57H773.333C772.193 322.01 771.373 324.82 770.873 327C770.353 327.14 769.883 327.21 769.463 327.21C769.063 327.21 768.793 327.2 768.653 327.18C768.293 325.56 767.743 323.57 767.003 321.21C766.263 318.83 765.513 316.68 764.753 314.76L763.763 314.67C763.723 314.43 763.703 314.16 763.703 313.86C763.703 313.54 763.733 313.25 763.793 312.99C764.373 313.01 765.243 313.02 766.403 313.02C767.563 313.02 768.443 313.01 769.043 312.99C769.103 313.25 769.133 313.54 769.133 313.86C769.133 314.16 769.113 314.43 769.073 314.67L767.873 314.76C768.153 317.02 768.843 319.99 769.943 323.67H770.063C770.503 322.67 770.953 321.25 771.413 319.41C771.873 317.55 772.163 315.98 772.283 314.7ZM797.828 316.65L797.708 320.97C797.708 322.33 797.788 323.66 797.948 324.96L799.058 325.05C799.098 325.37 799.118 325.67 799.118 325.95C799.118 326.21 799.088 326.49 799.028 326.79C798.448 326.81 797.318 326.91 795.638 327.09C795.498 326.71 795.388 326.24 795.308 325.68C793.748 326.86 792.398 327.45 791.258 327.45C790.138 327.45 789.258 327.09 788.618 326.37C787.998 325.63 787.688 324.59 787.688 323.25C787.688 321.89 788.108 320.82 788.948 320.04C789.808 319.26 790.878 318.87 792.158 318.87C793.458 318.87 794.568 319.11 795.488 319.59C795.508 319.37 795.518 319.01 795.518 318.51C795.518 317.03 795.308 315.97 794.888 315.33C794.488 314.67 793.868 314.34 793.028 314.34C792.188 314.34 791.578 314.5 791.198 314.82C791.358 315.14 791.438 315.54 791.438 316.02C791.438 316.5 791.278 316.92 790.958 317.28C790.658 317.62 790.228 317.79 789.668 317.79C788.728 317.79 788.258 317.24 788.258 316.14C788.258 315.02 788.678 314.16 789.518 313.56C790.358 312.96 791.538 312.66 793.058 312.66C794.578 312.66 795.748 313.02 796.568 313.74C797.408 314.44 797.828 315.41 797.828 316.65ZM795.368 321.48C794.548 320.78 793.668 320.43 792.728 320.43C790.928 320.43 790.028 321.23 790.028 322.83C790.028 324.47 790.738 325.29 792.158 325.29C792.678 325.29 793.228 325.16 793.808 324.9C794.408 324.62 794.878 324.28 795.218 323.88C795.318 322.68 795.368 321.88 795.368 321.48ZM805.498 325.26C805.678 323.26 805.768 321.43 805.768 319.77C805.768 318.09 805.688 316.43 805.528 314.79L804.418 314.7C804.358 314.38 804.328 314.05 804.328 313.71C804.328 313.37 804.338 313.14 804.358 313.02C805.378 313 806.618 312.91 808.078 312.75L808.228 312.9C808.208 313.02 808.148 313.61 808.048 314.67C808.508 314.09 809.038 313.61 809.638 313.23C810.258 312.85 810.858 312.66 811.438 312.66C812.038 312.66 812.558 312.87 812.998 313.29C813.438 313.71 813.658 314.26 813.658 314.94C813.658 316.06 813.188 316.62 812.248 316.62C811.708 316.62 811.278 316.45 810.958 316.11C810.638 315.75 810.478 315.28 810.478 314.7C810.438 314.68 810.368 314.67 810.268 314.67C809.528 314.67 808.768 315.23 807.988 316.35C807.968 316.91 807.958 318.17 807.958 320.13C807.958 322.07 808.048 323.78 808.228 325.26L809.338 325.35C809.378 325.79 809.398 326.1 809.398 326.28C809.398 326.44 809.368 326.69 809.308 327.03C808.748 327.01 807.928 327 806.848 327C805.768 327 804.978 327.01 804.478 327.03C804.418 326.73 804.388 326.45 804.388 326.19C804.388 325.91 804.408 325.63 804.448 325.35L805.498 325.26ZM823.309 320.34C822.329 320.34 821.419 320.29 820.579 320.19C820.619 323.59 821.749 325.29 823.969 325.29C825.089 325.29 826.329 324.67 827.689 323.43C828.269 324.03 828.639 324.82 828.799 325.8C827.159 326.9 825.419 327.45 823.579 327.45C821.739 327.45 820.369 326.82 819.469 325.56C818.569 324.28 818.119 322.41 818.119 319.95C818.119 317.49 818.619 315.66 819.619 314.46C820.639 313.26 822.079 312.66 823.939 312.66C825.319 312.66 826.459 313.08 827.359 313.92C828.259 314.76 828.709 315.79 828.709 317.01C828.729 318.23 828.629 319.1 828.409 319.62C826.909 320.1 825.209 320.34 823.309 320.34ZM823.729 314.34C821.869 314.34 820.829 315.71 820.609 318.45C821.509 318.55 822.499 318.6 823.579 318.6C824.659 318.6 825.499 318.5 826.099 318.3C826.179 317.8 826.219 317.43 826.219 317.19C826.219 316.31 825.989 315.62 825.529 315.12C825.089 314.6 824.489 314.34 823.729 314.34ZM853.328 313.38L853.358 311.49C853.358 310.29 853.318 309.32 853.238 308.58L852.038 308.49C851.978 308.25 851.948 307.94 851.948 307.56C851.948 307.18 851.958 306.93 851.978 306.81C853.758 306.73 855.058 306.64 855.878 306.54L855.998 306.69C855.698 309.31 855.548 312.69 855.548 316.83C855.548 320.95 855.638 323.67 855.818 324.99L856.928 325.05C856.968 325.49 856.988 325.82 856.988 326.04C856.988 326.24 856.958 326.49 856.898 326.79C856.118 326.83 855.028 326.93 853.628 327.09C853.468 326.77 853.348 326.26 853.268 325.56C851.888 326.82 850.488 327.45 849.068 327.45C847.668 327.45 846.588 326.81 845.828 325.53C845.088 324.25 844.718 322.44 844.718 320.1C844.718 317.74 845.188 315.91 846.128 314.61C847.088 313.31 848.458 312.66 850.238 312.66C851.238 312.66 852.268 312.9 853.328 313.38ZM850.268 314.43C848.268 314.43 847.268 316.42 847.268 320.4C847.268 321.9 847.488 323.07 847.928 323.91C848.388 324.73 849.018 325.14 849.818 325.14C850.358 325.14 850.948 324.97 851.588 324.63C852.248 324.29 852.818 323.86 853.298 323.34C853.338 320.86 853.358 318.18 853.358 315.3C852.078 314.72 851.048 314.43 850.268 314.43ZM867.728 320.34C866.748 320.34 865.838 320.29 864.998 320.19C865.038 323.59 866.168 325.29 868.388 325.29C869.508 325.29 870.748 324.67 872.108 323.43C872.688 324.03 873.058 324.82 873.218 325.8C871.578 326.9 869.838 327.45 867.998 327.45C866.158 327.45 864.788 326.82 863.888 325.56C862.988 324.28 862.538 322.41 862.538 319.95C862.538 317.49 863.038 315.66 864.038 314.46C865.058 313.26 866.498 312.66 868.358 312.66C869.738 312.66 870.878 313.08 871.778 313.92C872.678 314.76 873.128 315.79 873.128 317.01C873.148 318.23 873.048 319.1 872.828 319.62C871.328 320.1 869.628 320.34 867.728 320.34ZM868.148 314.34C866.288 314.34 865.248 315.71 865.028 318.45C865.928 318.55 866.918 318.6 867.998 318.6C869.078 318.6 869.918 318.5 870.518 318.3C870.598 317.8 870.638 317.43 870.638 317.19C870.638 316.31 870.408 315.62 869.948 315.12C869.508 314.6 868.908 314.34 868.148 314.34ZM886.094 314.67C886.054 314.47 886.034 314.21 886.034 313.89C886.034 313.55 886.064 313.25 886.124 312.99C886.724 313.01 887.554 313.02 888.614 313.02C889.694 313.02 890.524 313.01 891.104 312.99C891.164 313.25 891.194 313.53 891.194 313.83C891.194 314.13 891.174 314.41 891.134 314.67L890.144 314.76C887.624 320.62 886.074 324.7 885.494 327C884.974 327.14 884.504 327.21 884.084 327.21C883.684 327.21 883.414 327.2 883.274 327.18C882.134 323.14 880.584 319 878.624 314.76L877.634 314.67C877.594 314.43 877.574 314.16 877.574 313.86C877.574 313.54 877.604 313.25 877.664 312.99C878.244 313.01 879.104 313.02 880.244 313.02C881.404 313.02 882.284 313.01 882.884 312.99C882.944 313.25 882.974 313.54 882.974 313.86C882.974 314.16 882.954 314.43 882.914 314.67L881.684 314.76C882.084 317.34 883.004 320.31 884.444 323.67H884.564C885.084 322.67 885.614 321.31 886.154 319.59C886.694 317.85 887.094 316.24 887.354 314.76L886.094 314.67ZM900.887 320.34C899.907 320.34 898.997 320.29 898.157 320.19C898.197 323.59 899.327 325.29 901.547 325.29C902.667 325.29 903.907 324.67 905.267 323.43C905.847 324.03 906.217 324.82 906.377 325.8C904.737 326.9 902.997 327.45 901.157 327.45C899.317 327.45 897.947 326.82 897.047 325.56C896.147 324.28 895.697 322.41 895.697 319.95C895.697 317.49 896.197 315.66 897.197 314.46C898.217 313.26 899.657 312.66 901.517 312.66C902.897 312.66 904.037 313.08 904.937 313.92C905.837 314.76 906.287 315.79 906.287 317.01C906.307 318.23 906.207 319.1 905.987 319.62C904.487 320.1 902.787 320.34 900.887 320.34ZM901.307 314.34C899.447 314.34 898.407 315.71 898.187 318.45C899.087 318.55 900.077 318.6 901.157 318.6C902.237 318.6 903.077 318.5 903.677 318.3C903.757 317.8 903.797 317.43 903.797 317.19C903.797 316.31 903.567 315.62 903.107 315.12C902.667 314.6 902.067 314.34 901.307 314.34ZM913.672 320.04V315.93C913.672 312.33 913.622 309.88 913.522 308.58L912.322 308.49C912.262 308.23 912.232 307.93 912.232 307.59C912.232 307.23 912.242 306.97 912.262 306.81C914.082 306.71 915.382 306.62 916.162 306.54L916.282 306.69C916.002 309.07 915.862 311.63 915.862 314.37V319.32C915.862 321.78 915.952 323.76 916.132 325.26L917.242 325.35C917.282 325.67 917.302 325.95 917.302 326.19C917.302 326.41 917.272 326.69 917.212 327.03C916.512 327.01 915.702 327 914.782 327C913.862 327 913.062 327.01 912.382 327.03C912.322 326.73 912.292 326.47 912.292 326.25C912.292 326.01 912.312 325.71 912.352 325.35L913.402 325.26C913.582 323.38 913.672 321.64 913.672 320.04ZM922.79 319.89C922.79 315.07 924.67 312.66 928.43 312.66C932.19 312.66 934.07 315.07 934.07 319.89C934.07 322.11 933.72 323.87 933.02 325.17C932.22 326.69 930.69 327.45 928.43 327.45C926.17 327.45 924.64 326.69 923.84 325.17C923.14 323.87 922.79 322.11 922.79 319.89ZM925.25 319.83C925.25 323.47 926.31 325.29 928.43 325.29C930.55 325.29 931.61 323.47 931.61 319.83C931.61 316.17 930.55 314.34 928.43 314.34C926.31 314.34 925.25 316.17 925.25 319.83ZM947.505 312.66C950.325 312.66 951.735 315.06 951.735 319.86C951.735 321.7 951.375 323.37 950.655 324.87C950.255 325.67 949.655 326.3 948.855 326.76C948.055 327.22 947.165 327.45 946.185 327.45C945.205 327.45 944.185 327.21 943.125 326.73C943.225 329.23 943.315 330.83 943.395 331.53L944.505 331.62L944.565 332.4C944.565 332.8 944.535 333.1 944.475 333.3C943.995 333.28 943.165 333.27 941.985 333.27C940.825 333.27 940.045 333.28 939.645 333.3C939.585 332.96 939.555 332.66 939.555 332.4C939.555 332.14 939.575 331.88 939.615 331.62L940.725 331.53C940.885 329.35 940.965 326.44 940.965 322.8C940.965 319.14 940.885 316.47 940.725 314.79L939.615 314.7C939.555 314.52 939.525 314.24 939.525 313.86C939.525 313.46 939.535 313.18 939.555 313.02C940.475 313 941.705 312.91 943.245 312.75L943.395 312.9C943.315 313.48 943.265 314.05 943.245 314.61C944.625 313.31 946.045 312.66 947.505 312.66ZM945.915 325.29C948.095 325.29 949.185 323.35 949.185 319.47C949.185 317.11 948.795 315.62 948.015 315C947.655 314.72 947.185 314.58 946.605 314.58C946.025 314.58 945.415 314.77 944.775 315.15C944.135 315.53 943.595 315.99 943.155 316.53C943.115 318.19 943.095 320.88 943.095 324.6C944.255 325.06 945.195 325.29 945.915 325.29ZM962.779 320.34C961.799 320.34 960.889 320.29 960.049 320.19C960.089 323.59 961.219 325.29 963.439 325.29C964.559 325.29 965.799 324.67 967.159 323.43C967.739 324.03 968.109 324.82 968.269 325.8C966.629 326.9 964.889 327.45 963.049 327.45C961.209 327.45 959.839 326.82 958.939 325.56C958.039 324.28 957.589 322.41 957.589 319.95C957.589 317.49 958.089 315.66 959.089 314.46C960.109 313.26 961.549 312.66 963.409 312.66C964.789 312.66 965.929 313.08 966.829 313.92C967.729 314.76 968.179 315.79 968.179 317.01C968.199 318.23 968.099 319.1 967.879 319.62C966.379 320.1 964.679 320.34 962.779 320.34ZM963.199 314.34C961.339 314.34 960.299 315.71 960.079 318.45C960.979 318.55 961.969 318.6 963.049 318.6C964.129 318.6 964.969 318.5 965.569 318.3C965.649 317.8 965.689 317.43 965.689 317.19C965.689 316.31 965.459 315.62 964.999 315.12C964.559 314.6 963.959 314.34 963.199 314.34ZM974.904 325.26C975.084 323.26 975.174 321.43 975.174 319.77C975.174 318.09 975.094 316.43 974.934 314.79L973.824 314.7C973.764 314.38 973.734 314.05 973.734 313.71C973.734 313.37 973.744 313.14 973.764 313.02C974.784 313 976.024 312.91 977.484 312.75L977.634 312.9C977.614 313.02 977.554 313.61 977.454 314.67C977.914 314.09 978.444 313.61 979.044 313.23C979.664 312.85 980.264 312.66 980.844 312.66C981.444 312.66 981.964 312.87 982.404 313.29C982.844 313.71 983.064 314.26 983.064 314.94C983.064 316.06 982.594 316.62 981.654 316.62C981.114 316.62 980.684 316.45 980.364 316.11C980.044 315.75 979.884 315.28 979.884 314.7C979.844 314.68 979.774 314.67 979.674 314.67C978.934 314.67 978.174 315.23 977.394 316.35C977.374 316.91 977.364 318.17 977.364 320.13C977.364 322.07 977.454 323.78 977.634 325.26L978.744 325.35C978.784 325.79 978.804 326.1 978.804 326.28C978.804 326.44 978.774 326.69 978.714 327.03C978.154 327.01 977.334 327 976.254 327C975.174 327 974.384 327.01 973.884 327.03C973.824 326.73 973.794 326.45 973.794 326.19C973.794 325.91 973.814 325.63 973.854 325.35L974.904 325.26ZM1001.34 319.32L1001.43 327.39C1001.43 331.33 1000.08 333.3 997.379 333.3C996.219 333.3 995.189 332.98 994.289 332.34C994.289 331.2 994.619 330.37 995.279 329.85C995.499 330.17 995.819 330.45 996.239 330.69C996.659 330.95 997.069 331.08 997.469 331.08C998.589 331.08 999.149 329.68 999.149 326.88V319.92C999.149 318.26 999.069 316.55 998.909 314.79L997.799 314.7C997.739 314.36 997.709 314.04 997.709 313.74C997.709 313.42 997.719 313.18 997.739 313.02C998.899 312.98 1000.14 312.89 1001.46 312.75L1001.61 312.9C1001.43 314.08 1001.34 316.22 1001.34 319.32ZM1001.91 308.61C1001.91 309.85 1001.27 310.47 999.989 310.47C998.989 310.47 998.489 309.96 998.489 308.94C998.489 307.68 999.129 307.05 1000.41 307.05C1001.41 307.05 1001.91 307.57 1001.91 308.61ZM1008.06 319.89C1008.06 315.07 1009.94 312.66 1013.7 312.66C1017.46 312.66 1019.34 315.07 1019.34 319.89C1019.34 322.11 1018.99 323.87 1018.29 325.17C1017.49 326.69 1015.96 327.45 1013.7 327.45C1011.44 327.45 1009.91 326.69 1009.11 325.17C1008.41 323.87 1008.06 322.11 1008.06 319.89ZM1010.52 319.83C1010.52 323.47 1011.58 325.29 1013.7 325.29C1015.82 325.29 1016.88 323.47 1016.88 319.83C1016.88 316.17 1015.82 314.34 1013.7 314.34C1011.58 314.34 1010.52 316.17 1010.52 319.83ZM1034.06 318.87C1034.06 316.01 1033.21 314.58 1031.51 314.58C1030.29 314.58 1029.13 315.23 1028.03 316.53V324.6C1028.95 325.06 1029.92 325.29 1030.94 325.29C1033.02 325.29 1034.06 323.15 1034.06 318.87ZM1028.03 314.7C1029.43 313.34 1030.84 312.66 1032.26 312.66C1033.68 312.66 1034.76 313.24 1035.5 314.4C1036.24 315.56 1036.61 317.18 1036.61 319.26C1036.61 322.08 1036.12 324.15 1035.14 325.47C1034.18 326.79 1032.66 327.45 1030.58 327.45C1029.28 327.45 1027.55 327.19 1025.39 326.67C1025.71 324.71 1025.87 321.53 1025.87 317.13C1025.87 312.73 1025.82 309.88 1025.72 308.58L1024.52 308.49C1024.46 308.25 1024.43 307.94 1024.43 307.56C1024.43 307.18 1024.44 306.93 1024.46 306.81C1026.24 306.73 1027.54 306.64 1028.36 306.54L1028.48 306.69C1028.2 309.09 1028.05 311.76 1028.03 314.7ZM1047.15 312.66C1048.55 312.66 1049.66 312.99 1050.48 313.65C1051.32 314.31 1051.74 315.17 1051.74 316.23C1051.74 317.27 1051.27 317.79 1050.33 317.79C1049.77 317.79 1049.33 317.62 1049.01 317.28C1048.71 316.92 1048.56 316.5 1048.56 316.02C1048.56 315.54 1048.64 315.14 1048.8 314.82C1048.32 314.44 1047.75 314.25 1047.09 314.25C1046.43 314.25 1045.88 314.41 1045.44 314.73C1045.02 315.05 1044.81 315.52 1044.81 316.14C1044.81 316.76 1045.05 317.3 1045.53 317.76C1046.03 318.22 1046.63 318.6 1047.33 318.9C1048.03 319.18 1048.73 319.48 1049.43 319.8C1050.13 320.1 1050.72 320.54 1051.2 321.12C1051.7 321.68 1051.95 322.38 1051.95 323.22C1051.95 324.52 1051.51 325.55 1050.63 326.31C1049.77 327.07 1048.59 327.45 1047.09 327.45C1045.59 327.45 1044.36 327.13 1043.4 326.49C1042.46 325.85 1041.99 325.01 1041.99 323.97V323.85C1041.99 322.77 1042.46 322.23 1043.4 322.23C1043.96 322.23 1044.39 322.41 1044.69 322.77C1045.01 323.11 1045.17 323.51 1045.17 323.97C1045.17 324.43 1045.12 324.79 1045.02 325.05C1045.42 325.31 1046.05 325.44 1046.91 325.44C1047.79 325.44 1048.45 325.29 1048.89 324.99C1049.35 324.69 1049.58 324.28 1049.58 323.76C1049.58 323.22 1049.33 322.74 1048.83 322.32C1048.35 321.9 1047.76 321.55 1047.06 321.27C1046.36 320.97 1045.66 320.66 1044.96 320.34C1044.26 320 1043.66 319.52 1043.16 318.9C1042.68 318.28 1042.44 317.54 1042.44 316.68C1042.44 315.44 1042.87 314.46 1043.73 313.74C1044.61 313.02 1045.75 312.66 1047.15 312.66ZM1062.82 325.35C1062.82 325.95 1062.64 326.45 1062.28 326.85C1061.92 327.25 1061.37 327.45 1060.63 327.45C1059.49 327.45 1058.92 326.87 1058.92 325.71C1058.92 324.27 1059.65 323.55 1061.11 323.55C1062.25 323.55 1062.82 324.15 1062.82 325.35Z" fill="#393939"/>
<path d="M140.764 21.4359C119.328 23.3304 102.804 34.9079 96.6993 52.2742C95.5766 55.4317 94.3838 60.8696 93.9979 64.3779C93.8576 65.5357 93.4716 67.9915 93.1208 69.8158C92.7349 71.6402 92.349 74.7275 92.2086 76.6571C91.9631 80.0602 91.9631 80.2005 90.9106 80.8671C89.4371 81.8143 88.6301 83.3229 88.0337 86.1647C85.9638 95.8828 90.3843 110.898 96.1029 113.705C96.9098 114.126 97.4711 115.179 99.4709 120.125C105.926 136.088 112.522 146.894 119.574 153.034C126.345 158.928 132.73 162.401 139.676 163.98C142.974 164.716 149.78 164.716 153.394 163.98C162.761 162.05 173.812 154.542 180.373 145.701C184.758 139.807 189.46 130.756 193.845 119.88C195.283 116.301 196.476 113.74 196.862 113.565C199.072 112.407 201.423 108.864 203.072 104.303C206.089 95.7775 205.844 84.6912 202.511 81.3933L201.423 80.2707L201.493 75.8502C201.669 65.0445 199.564 54.6248 195.669 46.8713C191.319 38.2408 183.636 30.8032 174.725 26.6283C165.357 22.2428 152.938 20.3483 140.764 21.4359ZM129.432 67.2197C139.01 69.7457 149.149 70.0263 156.516 67.9915C160.13 66.9741 165.357 66.7636 168.69 67.5354C170.164 67.8512 173.181 69.044 175.882 70.3421C178.479 71.6051 180.654 72.5523 180.759 72.4822C180.829 72.3769 180.513 71.1841 179.987 69.8158C179.496 68.4476 179.075 67.2548 179.075 67.1495C179.075 66.7285 180.724 67.5003 181.671 68.3774C184.337 70.7982 188.267 78.5165 190.021 84.7613L190.793 87.6382L192.372 87.568C193.775 87.5329 194.02 87.6382 194.722 88.6907C197.003 91.9885 196.371 100.514 193.424 106.338C192.126 108.934 190.582 110.232 188.968 110.092L187.776 109.986L186.442 113.67C182.338 125.283 176.409 136.334 170.76 142.894C163.744 151.104 152.798 155.84 143.641 154.682C135.607 153.7 127.888 149.315 122.135 142.509C116.311 135.562 109.575 122.792 105.961 111.74C105.4 109.986 105.4 109.986 104.067 110.092C102.874 110.197 102.593 110.056 101.4 108.758C99.8919 107.074 98.6991 104.583 97.822 101.321C97.3659 99.5314 97.2957 98.2334 97.4711 94.5847C97.7869 88.6556 98.5587 87.0769 101.015 87.4628L102.207 87.6733L102.628 85.6735C104.488 76.5518 109.926 69.465 116.802 67.1846C120.977 65.8163 124.134 65.8163 129.432 67.2197Z" fill="#393939"/>
<path d="M101.716 168.575C100.383 168.821 96.2784 169.207 92.5946 169.452C82.0345 170.084 73.404 171.417 68.1766 173.241C55.3712 177.697 45.0918 189.169 37.8646 207.027C36.1104 211.412 33.4792 219.376 33.4792 220.358C33.4792 221.025 36.2859 221.025 147.535 221.025H261.591L261.345 219.762C260.96 217.622 258.013 209.167 256.188 204.887C252.083 195.274 247.558 188.433 241.313 182.433C232.296 173.733 223.14 170.68 202.405 169.452C196.652 169.102 192.793 168.681 190.793 168.189C190.161 168.014 189.951 168.225 189.6 169.347C187.706 175.136 179.286 180.293 167.147 183.1C145.676 188.047 118.626 183.942 108.698 174.189C106.803 172.329 106.032 171.277 105.54 169.873C105.19 168.891 104.733 168.084 104.523 168.084C104.348 168.119 103.085 168.33 101.716 168.575Z" fill="#393939"/>
<path d="M13.0256 224.182C8.64017 224.744 4.25475 228.007 2.36025 232.111C0.465751 236.286 -0.481499 231.024 14.9552 303.541C22.6384 339.677 29.0938 370.41 29.2692 371.813C29.9007 376.69 32.8477 380.83 37.1629 382.97L39.2679 383.987H147.5H255.732L257.837 382.97C262.152 380.83 265.099 376.69 265.731 371.813C265.906 370.41 272.362 339.677 280.045 303.541C292.57 244.636 294.008 237.654 293.762 235.935C292.956 229.901 287.868 224.954 281.659 224.147C278.747 223.797 15.9726 223.797 13.0256 224.182ZM150.482 298.524C152.166 299.296 153.955 301.12 154.517 302.594C155.148 304.278 155.008 307.084 154.201 308.628C151.324 314.277 143.676 314.277 140.799 308.628C139.992 307.084 139.852 304.278 140.483 302.594C141.431 300.033 144.658 297.858 147.5 297.858C148.377 297.858 149.71 298.173 150.482 298.524Z" fill="#393939"/>
<path d="M28.0412 388.513C25.2346 389.741 23.726 393.214 24.8837 395.915C25.6205 397.74 26.3572 398.512 28.0412 399.283C29.4095 399.915 33.6897 399.95 147.5 399.95C261.661 399.95 265.591 399.915 266.994 399.283C269.695 398.055 271.064 395.179 270.292 392.372C269.836 390.758 268.222 388.969 266.678 388.408C265.976 388.127 229.981 388.022 147.395 388.022C50.4244 388.057 28.9183 388.127 28.0412 388.513Z" fill="#393939"/>
<path d="M147.168 306.164C146.12 311.538 146.802 307.725 145.203 305.594C144.48 304.63 150.159 305.594 150.337 305.594C152.035 305.594 152.636 305.496 153.443 303.883C153.761 303.245 154.429 300.863 153.189 302.457C152.311 303.586 149.842 306.04 148.626 306.735C146.911 307.715 147.013 301.64 146.471 301.158C145.867 300.62 145.305 302.574 144.887 302.742C144.684 302.823 144.081 303.123 144.633 303.281C144.912 303.361 145.251 302.79 145.457 302.995C145.756 303.295 145.359 304.822 145.489 305.277C145.774 306.276 146.067 304.176 146.471 304.58C147.044 305.153 145.507 308.122 145.14 308.7C144.915 309.054 144.037 310.804 143.872 310.474C143.57 309.869 146.027 302.44 146.027 307.527C146.027 310.85 146.083 320.755 146.629 317.477C147.31 313.396 150.742 309.764 152.27 305.943C152.349 305.746 151.554 307.736 151.288 307.052C150.686 305.505 152.513 302.843 152.872 301.316C153.673 297.913 155.692 296.85 153.443 301.348C152.914 302.406 151.568 302.866 151.161 303.883C150.627 305.217 151.695 305.077 151.731 304.453C151.762 303.94 150.74 302.314 150.242 302.203C148.406 301.795 148.27 305.488 147.612 306.608C147.223 307.271 144.424 311.043 144.348 310.664C144.087 309.359 144.965 308.065 144.887 306.735C144.77 304.762 141.14 308.815 140.894 309.555C140.203 311.626 140.538 309.602 140.767 308.573C141.304 306.158 142.237 304.279 143.144 302.013C143.516 301.081 143.12 304.022 143.175 305.024C143.25 306.369 144.832 305.048 145.235 304.707C147.151 303.086 151.068 298.757 150.559 303.598C150.379 305.304 150.126 307.211 149.767 308.89C149.735 309.039 151.648 305.596 152.175 304.643C153.204 302.783 153.74 300.618 154.869 298.813C155.555 297.714 154.511 301.047 154.267 301.474C153.031 303.637 153.141 305.218 152.872 301.728C152.588 298.039 149.657 300.388 148.309 301.601C146.905 302.865 145.472 303.871 144.031 305.024C141.801 306.807 140.102 301.385 139.785 299.636C139.481 297.968 138.042 305.554 138.042 306.925C138.042 310.746 141.076 307.624 143.144 306.418C144.519 305.616 145.904 304.095 146.027 307.178C146.139 309.979 149.876 307.721 151.034 306.608C151.464 306.195 152.465 304.27 152.27 305.34C151.746 308.224 147.38 308.86 145.71 310.854C145.386 311.242 144.593 314.189 144.918 312.724C145.084 311.976 145.438 311.022 146.027 310.728" stroke="#393939" stroke-width="10" stroke-linecap="round" stroke-linejoin="round"/>
<path d="M98.3125 309.453V305.156L125.969 290.938V299.062L109.25 307.188L125.969 315.859V323.828L98.3125 309.453ZM136.219 331.562L149.891 273.828H157.781L144.188 331.562H136.219ZM168.031 323.828V315.859L184.75 307.188L168.031 299.062V290.938L195.688 305.156V309.453L168.031 323.828Z" fill="#E5E5E5"/>
</g>
<defs>
<clipPath id="clip0">
<rect width="1062" height="421" fill="white"/>
</clipPath>
</defs>
</svg>
