<svg width="693" height="172" viewBox="0 0 693 172" fill="none" xmlns="http://www.w3.org/2000/svg">
<g clip-path="url(#clip0)">
<path d="M47.3594 88.3125L63.1406 82.6875C63.7656 89.4583 67.4635 94.1458 74.2344 96.75C75.4844 97.1667 76.1094 97.375 76.1094 97.375V113.469C67.151 113.469 59.5469 109.615 53.2969 101.906C49.4427 97.0104 47.4635 92.4792 47.3594 88.3125ZM48.6094 33.3125C48.6094 21.9583 53.5052 13.4167 63.2969 7.6875C67.8802 5.08333 72.151 3.72917 76.1094 3.625V20.0312C72.8802 20.5521 70.0677 22.4271 67.6719 25.6562C66.1094 27.9479 65.3281 30.3958 65.3281 33C65.3281 38.4167 69.2344 42.7396 77.0469 45.9688C78.9219 46.6979 81.8385 47.6875 85.7969 48.9375C90.7969 50.5 94.2865 51.75 96.2656 52.6875C105.328 57.1667 111.214 62.4792 113.922 68.625C115.484 72.2708 116.266 76.2812 116.266 80.6562C116.266 89.8229 112.724 97.7917 105.641 104.562C99.2865 110.5 92.151 113.469 84.2344 113.469V97.375C88.1927 97.1667 91.7344 95.2917 94.8594 91.75C97.4635 88.625 98.7656 85.0312 98.7656 80.9688C98.7656 74.6146 94.3385 69.8229 85.4844 66.5938C83.6094 65.8646 80.6927 64.9271 76.7344 63.7812C72.3594 62.5312 69.3906 61.5417 67.8281 60.8125C59.0781 56.9583 53.4531 52.0104 50.9531 45.9688C49.3906 42.3229 48.6094 38.1042 48.6094 33.3125ZM84.2344 20.0312V3.625C93.1927 3.625 100.693 7.47917 106.734 15.1875C109.964 19.3542 111.682 23.1562 111.891 26.5938L95.7969 31.9062C95.3802 28.7812 94.1823 26.2292 92.2031 24.25C90.3281 22.2708 88.5573 21.0729 86.8906 20.6562L84.2344 20.0312ZM133.797 89.4062V49.875C133.797 44.7708 136.089 39.8229 140.672 35.0312C146.089 29.3021 152.911 26.4375 161.141 26.4375V42.5312C155.724 42.5312 152.234 44.7708 150.672 49.25C150.359 50.1875 150.203 51.125 150.203 52.0625V87.2188C150.203 91.1771 152.026 94.0417 155.672 95.8125C157.339 96.6458 159.214 97.0625 161.297 97.0625V113.156C151.193 113.156 143.38 109.094 137.859 100.969C135.151 96.9062 133.797 93.0521 133.797 89.4062ZM168.172 113.156V97.0625C173.172 97.0625 176.453 94.9271 178.016 90.6562C178.432 89.5104 178.641 88.4688 178.641 87.5312V52.0625C178.641 47.6875 176.609 44.7708 172.547 43.3125C171.193 42.7917 169.682 42.5312 168.016 42.5312V26.4375C177.807 26.4375 185.359 30.3958 190.672 38.3125C193.38 42.375 194.734 46.2292 194.734 49.875V89.4062C194.734 94.5104 192.547 99.5104 188.172 104.406C182.859 110.135 176.193 113.052 168.172 113.156ZM211.641 50.0312V33.7812H222.266V26.125C222.266 20.9167 224.193 15.8646 228.047 10.9688C232.839 5.03125 238.984 2.01042 246.484 1.90625H254.453L250.703 18H246.484C242.005 18.9375 239.505 21.6458 238.984 26.125V33.7812H249.922V50.0312H238.984V113H222.266V50.0312H211.641ZM265.734 43V26.9062H276.359V1.90625H292.922V26.9062H303.234V43.1562H292.922L293.078 86.4375C293.286 92.6875 296.411 95.8646 302.453 95.9688H305.734L309.484 113H302.141C288.911 113 280.839 107.948 277.922 97.8438C276.88 94.1979 276.359 89.875 276.359 84.875V43H265.734ZM319.828 26.4375L347.328 113H356.703L362.016 96.2812L338.422 26.4375H319.828ZM355.453 58.4688L364.047 83.4688H366.078L374.984 55.5L393.266 113H402.641L407.953 96.2812L384.359 26.4375H365.766L355.453 58.4688ZM401.547 58.4688L409.984 83.4688H412.016L430.297 26.4375H411.703L401.547 58.4688ZM445.484 89.4062V49.875C445.484 44.7708 447.776 39.8229 452.359 35.0312C457.776 29.3021 464.599 26.4375 472.828 26.4375V42.5312C467.411 42.5312 463.922 44.7708 462.359 49.25C462.047 50.1875 461.891 51.125 461.891 52.0625V87.2188C461.891 91.1771 463.714 94.0417 467.359 95.8125C469.026 96.6458 470.901 97.0625 472.984 97.0625V113.156C462.88 113.156 455.068 109.094 449.547 100.969C446.839 96.9062 445.484 93.0521 445.484 89.4062ZM479.859 113.156V97.0625C484.859 97.0625 488.141 94.9271 489.703 90.6562C490.12 89.5104 490.328 88.4688 490.328 87.5312V52.0625C490.328 47.6875 488.297 44.7708 484.234 43.3125C482.88 42.7917 481.37 42.5312 479.703 42.5312V26.4375C489.495 26.4375 497.047 30.3958 502.359 38.3125C505.068 42.375 506.422 46.2292 506.422 49.875V89.4062C506.422 94.5104 504.234 99.5104 499.859 104.406C494.547 110.135 487.88 113.052 479.859 113.156ZM526.922 113V26.4375H543.797V37.2188C546.714 32.6354 551.089 29.3542 556.922 27.375C559.63 26.4375 562.286 25.9688 564.891 25.9688H568.953L565.047 42.375C558.901 42.4792 553.536 45.4479 548.953 51.2812C545.516 55.7604 543.797 60.3958 543.797 65.1875V113H526.922ZM585.391 113V1.90625H602.578V113H585.391ZM606.797 69.4062L632.891 26.4375H651.953L625.391 69.4062L652.109 113H633.203L606.797 69.4062Z" fill="#393939"/>
<path d="M131.386 147.39C131.346 147.07 131.326 146.8 131.326 146.58C131.326 146.34 131.356 146.05 131.416 145.71C132.116 145.73 133.006 145.74 134.086 145.74C135.166 145.74 136.046 145.73 136.726 145.71C136.786 146.01 136.816 146.31 136.816 146.61C136.816 146.91 136.796 147.17 136.756 147.39L135.706 147.48C136.646 153.82 137.776 158.79 139.096 162.39H139.276C139.896 160.87 140.486 158.77 141.046 156.09C141.626 153.39 142.066 150.86 142.366 148.5C142.966 148.26 143.456 148.14 143.836 148.14C144.236 148.14 144.596 148.16 144.916 148.2C145.816 154.28 146.916 159.01 148.216 162.39H148.396C149.076 160.49 149.716 158.09 150.316 155.19C150.916 152.27 151.336 149.7 151.576 147.48L150.496 147.39C150.456 147.23 150.436 147 150.436 146.7C150.436 146.38 150.466 146.05 150.526 145.71C151.246 145.73 152.116 145.74 153.136 145.74C154.156 145.74 154.976 145.73 155.596 145.71C155.656 146.01 155.686 146.27 155.686 146.49C155.686 146.69 155.666 146.99 155.626 147.39L154.576 147.48C153.996 149.3 153.156 152.17 152.056 156.09C150.956 159.99 150.146 162.96 149.626 165C148.906 165.18 148.246 165.27 147.646 165.27C147.066 165.27 146.686 165.26 146.506 165.24C146.226 164.28 145.746 162.47 145.066 159.81C144.406 157.15 143.916 155.21 143.596 153.99H143.446C142.106 158.85 141.126 162.52 140.506 165C139.786 165.18 139.126 165.27 138.526 165.27C137.946 165.27 137.566 165.26 137.386 165.24C137.306 164.98 136.646 162.45 135.406 157.65C134.186 152.83 133.216 149.44 132.496 147.48L131.386 147.39ZM165.269 158.34C164.289 158.34 163.379 158.29 162.539 158.19C162.579 161.59 163.709 163.29 165.929 163.29C167.049 163.29 168.289 162.67 169.649 161.43C170.229 162.03 170.599 162.82 170.759 163.8C169.119 164.9 167.379 165.45 165.539 165.45C163.699 165.45 162.329 164.82 161.429 163.56C160.529 162.28 160.079 160.41 160.079 157.95C160.079 155.49 160.579 153.66 161.579 152.46C162.599 151.26 164.039 150.66 165.899 150.66C167.279 150.66 168.419 151.08 169.319 151.92C170.219 152.76 170.669 153.79 170.669 155.01C170.689 156.23 170.589 157.1 170.369 157.62C168.869 158.1 167.169 158.34 165.269 158.34ZM165.689 152.34C163.829 152.34 162.789 153.71 162.569 156.45C163.469 156.55 164.459 156.6 165.539 156.6C166.619 156.6 167.459 156.5 168.059 156.3C168.139 155.8 168.179 155.43 168.179 155.19C168.179 154.31 167.949 153.62 167.489 153.12C167.049 152.6 166.449 152.34 165.689 152.34ZM178.055 158.04V153.93C178.055 150.33 178.005 147.88 177.905 146.58L176.705 146.49C176.645 146.23 176.615 145.93 176.615 145.59C176.615 145.23 176.625 144.97 176.645 144.81C178.465 144.71 179.765 144.62 180.545 144.54L180.665 144.69C180.385 147.07 180.245 149.63 180.245 152.37V157.32C180.245 159.78 180.335 161.76 180.515 163.26L181.625 163.35C181.665 163.67 181.685 163.95 181.685 164.19C181.685 164.41 181.655 164.69 181.595 165.03C180.895 165.01 180.085 165 179.165 165C178.245 165 177.445 165.01 176.765 165.03C176.705 164.73 176.675 164.47 176.675 164.25C176.675 164.01 176.695 163.71 176.735 163.35L177.785 163.26C177.965 161.38 178.055 159.64 178.055 158.04ZM195.933 155.79C195.373 155.79 194.933 155.62 194.613 155.28C194.313 154.92 194.163 154.49 194.163 153.99C194.163 153.47 194.233 153.08 194.373 152.82C193.933 152.48 193.413 152.31 192.813 152.31C190.693 152.31 189.633 154.19 189.633 157.95C189.633 159.67 189.903 160.99 190.443 161.91C190.983 162.83 191.743 163.29 192.723 163.29C193.723 163.29 194.953 162.67 196.413 161.43C196.993 162.03 197.363 162.82 197.523 163.8C195.843 164.9 194.133 165.45 192.393 165.45C190.653 165.45 189.343 164.82 188.463 163.56C187.603 162.3 187.173 160.44 187.173 157.98C187.173 155.52 187.653 153.69 188.613 152.49C189.573 151.27 190.933 150.66 192.693 150.66C194.073 150.66 195.193 150.99 196.053 151.65C196.913 152.29 197.343 153.14 197.343 154.2C197.343 155.26 196.873 155.79 195.933 155.79ZM203.064 157.89C203.064 153.07 204.944 150.66 208.704 150.66C212.464 150.66 214.344 153.07 214.344 157.89C214.344 160.11 213.994 161.87 213.294 163.17C212.494 164.69 210.964 165.45 208.704 165.45C206.444 165.45 204.914 164.69 204.114 163.17C203.414 161.87 203.064 160.11 203.064 157.89ZM205.524 157.83C205.524 161.47 206.584 163.29 208.704 163.29C210.824 163.29 211.884 161.47 211.884 157.83C211.884 154.17 210.824 152.34 208.704 152.34C206.584 152.34 205.524 154.17 205.524 157.83ZM238.848 154.95L238.818 157.41C238.818 159.51 238.938 161.46 239.178 163.26L240.258 163.35C240.298 163.53 240.318 163.77 240.318 164.07C240.318 164.37 240.288 164.69 240.228 165.03C239.668 165.01 238.828 165 237.708 165C236.588 165 235.788 165.01 235.308 165.03C235.248 164.73 235.218 164.45 235.218 164.19C235.218 163.91 235.238 163.63 235.278 163.35L236.298 163.26C236.458 160.92 236.538 158.92 236.538 157.26C236.538 155.58 236.388 154.38 236.088 153.66C235.788 152.94 235.288 152.58 234.588 152.58C233.588 152.58 232.518 153.24 231.378 154.56L231.348 157.41C231.348 159.51 231.468 161.46 231.708 163.26L232.758 163.35C232.798 163.67 232.818 163.95 232.818 164.19C232.818 164.41 232.788 164.69 232.728 165.03C232.168 165.01 231.328 165 230.208 165C229.088 165 228.288 165.01 227.808 165.03C227.748 164.73 227.718 164.45 227.718 164.19C227.718 163.91 227.738 163.63 227.778 163.35L228.828 163.26C228.988 160.92 229.068 158.92 229.068 157.26C229.068 155.58 228.918 154.38 228.618 153.66C228.318 152.94 227.818 152.58 227.118 152.58C226.098 152.58 225.028 153.23 223.908 154.53C223.888 155.05 223.878 156.27 223.878 158.19C223.878 160.09 223.968 161.78 224.148 163.26L225.258 163.35C225.298 163.79 225.318 164.1 225.318 164.28C225.318 164.44 225.288 164.69 225.228 165.03C224.668 165.01 223.848 165 222.768 165C221.688 165 220.898 165.01 220.398 165.03C220.338 164.73 220.308 164.45 220.308 164.19C220.308 163.91 220.328 163.63 220.368 163.35L221.418 163.26C221.598 161.26 221.688 159.43 221.688 157.77C221.688 156.09 221.608 154.43 221.448 152.79L220.338 152.7C220.278 152.36 220.248 152.03 220.248 151.71C220.248 151.37 220.258 151.14 220.278 151.02C221.298 151 222.538 150.91 223.998 150.75L224.148 150.9C224.088 151.32 224.028 151.91 223.968 152.67C224.548 152.07 225.218 151.59 225.978 151.23C226.738 150.85 227.448 150.66 228.108 150.66C229.748 150.66 230.778 151.43 231.198 152.97C231.778 152.29 232.468 151.74 233.268 151.32C234.088 150.88 234.858 150.66 235.578 150.66C236.698 150.66 237.518 151.01 238.038 151.71C238.578 152.39 238.848 153.47 238.848 154.95ZM251.109 158.34C250.129 158.34 249.219 158.29 248.379 158.19C248.419 161.59 249.549 163.29 251.769 163.29C252.889 163.29 254.129 162.67 255.489 161.43C256.069 162.03 256.439 162.82 256.599 163.8C254.959 164.9 253.219 165.45 251.379 165.45C249.539 165.45 248.169 164.82 247.269 163.56C246.369 162.28 245.919 160.41 245.919 157.95C245.919 155.49 246.419 153.66 247.419 152.46C248.439 151.26 249.879 150.66 251.739 150.66C253.119 150.66 254.259 151.08 255.159 151.92C256.059 152.76 256.509 153.79 256.509 155.01C256.529 156.23 256.429 157.1 256.209 157.62C254.709 158.1 253.009 158.34 251.109 158.34ZM251.529 152.34C249.669 152.34 248.629 153.71 248.409 156.45C249.309 156.55 250.299 156.6 251.379 156.6C252.459 156.6 253.299 156.5 253.899 156.3C253.979 155.8 254.019 155.43 254.019 155.19C254.019 154.31 253.789 153.62 253.329 153.12C252.889 152.6 252.289 152.34 251.529 152.34ZM281.399 156.87C281.399 154.01 280.549 152.58 278.849 152.58C277.629 152.58 276.469 153.23 275.369 154.53V162.6C276.289 163.06 277.259 163.29 278.279 163.29C280.359 163.29 281.399 161.15 281.399 156.87ZM275.369 152.7C276.769 151.34 278.179 150.66 279.599 150.66C281.019 150.66 282.099 151.24 282.839 152.4C283.579 153.56 283.949 155.18 283.949 157.26C283.949 160.08 283.459 162.15 282.479 163.47C281.519 164.79 279.999 165.45 277.919 165.45C276.619 165.45 274.889 165.19 272.729 164.67C273.049 162.71 273.209 159.53 273.209 155.13C273.209 150.73 273.159 147.88 273.059 146.58L271.859 146.49C271.799 146.25 271.769 145.94 271.769 145.56C271.769 145.18 271.779 144.93 271.799 144.81C273.579 144.73 274.879 144.64 275.699 144.54L275.819 144.69C275.539 147.09 275.389 149.76 275.369 152.7ZM300.102 154.65L299.982 158.97C299.982 160.33 300.062 161.66 300.222 162.96L301.332 163.05C301.372 163.37 301.392 163.67 301.392 163.95C301.392 164.21 301.362 164.49 301.302 164.79C300.722 164.81 299.592 164.91 297.912 165.09C297.772 164.71 297.662 164.24 297.582 163.68C296.022 164.86 294.672 165.45 293.532 165.45C292.412 165.45 291.532 165.09 290.892 164.37C290.272 163.63 289.962 162.59 289.962 161.25C289.962 159.89 290.382 158.82 291.222 158.04C292.082 157.26 293.152 156.87 294.432 156.87C295.732 156.87 296.842 157.11 297.762 157.59C297.782 157.37 297.792 157.01 297.792 156.51C297.792 155.03 297.582 153.97 297.162 153.33C296.762 152.67 296.142 152.34 295.302 152.34C294.462 152.34 293.852 152.5 293.472 152.82C293.632 153.14 293.712 153.54 293.712 154.02C293.712 154.5 293.552 154.92 293.232 155.28C292.932 155.62 292.502 155.79 291.942 155.79C291.002 155.79 290.532 155.24 290.532 154.14C290.532 153.02 290.952 152.16 291.792 151.56C292.632 150.96 293.812 150.66 295.332 150.66C296.852 150.66 298.022 151.02 298.842 151.74C299.682 152.44 300.102 153.41 300.102 154.65ZM297.642 159.48C296.822 158.78 295.942 158.43 295.002 158.43C293.202 158.43 292.302 159.23 292.302 160.83C292.302 162.47 293.012 163.29 294.432 163.29C294.952 163.29 295.502 163.16 296.082 162.9C296.682 162.62 297.152 162.28 297.492 161.88C297.592 160.68 297.642 159.88 297.642 159.48ZM315.752 155.79C315.192 155.79 314.752 155.62 314.432 155.28C314.132 154.92 313.982 154.49 313.982 153.99C313.982 153.47 314.052 153.08 314.192 152.82C313.752 152.48 313.232 152.31 312.632 152.31C310.512 152.31 309.452 154.19 309.452 157.95C309.452 159.67 309.722 160.99 310.262 161.91C310.802 162.83 311.562 163.29 312.542 163.29C313.542 163.29 314.772 162.67 316.232 161.43C316.812 162.03 317.182 162.82 317.342 163.8C315.662 164.9 313.952 165.45 312.212 165.45C310.472 165.45 309.162 164.82 308.282 163.56C307.422 162.3 306.992 160.44 306.992 157.98C306.992 155.52 307.472 153.69 308.432 152.49C309.392 151.27 310.752 150.66 312.512 150.66C313.892 150.66 315.012 150.99 315.872 151.65C316.732 152.29 317.162 153.14 317.162 154.2C317.162 155.26 316.692 155.79 315.752 155.79ZM324.322 158.04V153.93C324.322 150.33 324.272 147.88 324.172 146.58L322.972 146.49C322.912 146.23 322.882 145.93 322.882 145.59C322.882 145.23 322.892 144.97 322.912 144.81C324.732 144.71 326.032 144.62 326.812 144.54L326.932 144.69C326.652 147.07 326.512 149.63 326.512 152.37V157.32C326.512 159.78 326.602 161.76 326.782 163.26L327.892 163.35C327.932 163.67 327.952 163.95 327.952 164.19C327.952 164.41 327.922 164.69 327.862 165.03C327.162 165.01 326.352 165 325.432 165C324.512 165 323.712 165.01 323.032 165.03C322.972 164.73 322.942 164.47 322.942 164.25C322.942 164.01 322.962 163.71 323.002 163.35L324.052 163.26C324.232 161.38 324.322 159.64 324.322 158.04ZM331.072 150.99C331.572 151.01 332.172 151.02 332.872 151.02C333.592 151.02 334.232 151.01 334.792 150.99C334.852 151.25 334.882 151.54 334.882 151.86C334.882 152.16 334.862 152.43 334.822 152.67L333.532 152.76C333.172 153.2 332.532 153.94 331.612 154.98C330.692 156.02 330.012 156.8 329.572 157.32C331.512 160.08 333.012 162.06 334.072 163.26L335.362 163.35C335.402 163.59 335.422 163.87 335.422 164.19C335.422 164.49 335.392 164.77 335.332 165.03C334.612 165.01 333.852 165 333.052 165C332.252 165 331.592 165.01 331.072 165.03C330.992 164.19 330.882 163.6 330.742 163.26C330.042 161.88 328.792 160.19 326.992 158.19L327.082 157.89C328.662 155.97 329.872 154.26 330.712 152.76C330.872 152.36 330.992 151.77 331.072 150.99ZM342.43 153.75C342.43 150.07 342.17 147.19 341.65 145.11C342.25 144.89 342.83 144.78 343.39 144.78C343.95 144.78 344.47 144.84 344.95 144.96C344.55 148.74 344.35 152.97 344.35 157.65C344.35 158.31 344.37 158.96 344.41 159.6C344.03 159.72 343.69 159.78 343.39 159.78C343.09 159.78 342.75 159.72 342.37 159.6C342.41 157.48 342.43 155.53 342.43 153.75ZM345.4 163.35C345.4 163.95 345.22 164.45 344.86 164.85C344.5 165.25 343.95 165.45 343.21 165.45C342.07 165.45 341.5 164.87 341.5 163.71C341.5 162.27 342.23 161.55 343.69 161.55C344.83 161.55 345.4 162.15 345.4 163.35ZM362.32 159.15C362.94 159.15 363.42 159.34 363.76 159.72C364.1 160.1 364.27 160.57 364.27 161.13C364.27 161.67 364.18 162.11 364 162.45C364.88 163.17 365.89 163.53 367.03 163.53C368.19 163.53 369.06 163.27 369.64 162.75C370.22 162.21 370.51 161.48 370.51 160.56C370.51 159.64 370.19 158.85 369.55 158.19C368.91 157.53 368.13 156.98 367.21 156.54C366.31 156.1 365.41 155.64 364.51 155.16C363.61 154.66 362.84 154 362.2 153.18C361.56 152.36 361.24 151.39 361.24 150.27C361.24 148.73 361.75 147.53 362.77 146.67C363.79 145.79 365.1 145.35 366.7 145.35C368.3 145.35 369.68 145.73 370.84 146.49C372.02 147.25 372.61 148.28 372.61 149.58C372.61 150.86 372.09 151.5 371.05 151.5C370.43 151.5 369.95 151.31 369.61 150.93C369.27 150.55 369.1 150.06 369.1 149.46C369.1 148.86 369.22 148.4 369.46 148.08C368.76 147.44 367.9 147.12 366.88 147.12C365.86 147.12 365.09 147.38 364.57 147.9C364.07 148.42 363.82 149.07 363.82 149.85C363.82 150.63 364.05 151.3 364.51 151.86C364.97 152.4 365.54 152.85 366.22 153.21C366.9 153.55 367.64 153.95 368.44 154.41C369.24 154.85 369.98 155.29 370.66 155.73C371.34 156.17 371.91 156.77 372.37 157.53C372.83 158.27 373.06 159.12 373.06 160.08C373.06 161.66 372.51 162.95 371.41 163.95C370.33 164.95 368.94 165.45 367.24 165.45C365.54 165.45 364.03 165.06 362.71 164.28C361.41 163.48 360.76 162.37 360.76 160.95C360.76 159.75 361.28 159.15 362.32 159.15ZM379.944 163.26C380.124 161.3 380.214 159.51 380.214 157.89C380.214 156.25 380.134 154.55 379.974 152.79L378.864 152.7C378.804 152.36 378.774 152.04 378.774 151.74C378.774 151.42 378.784 151.18 378.804 151.02C379.964 150.98 381.204 150.89 382.524 150.75L382.674 150.9C382.494 152.08 382.404 154.06 382.404 156.84C382.404 159.62 382.494 161.76 382.674 163.26L383.784 163.35C383.824 163.67 383.844 163.95 383.844 164.19C383.844 164.41 383.814 164.69 383.754 165.03C383.054 165.01 382.244 165 381.324 165C380.404 165 379.604 165.01 378.924 165.03C378.864 164.73 378.834 164.42 378.834 164.1C378.834 163.78 378.854 163.53 378.894 163.35L379.944 163.26ZM382.974 146.61C382.974 147.85 382.334 148.47 381.054 148.47C380.054 148.47 379.554 147.96 379.554 146.94C379.554 145.68 380.194 145.05 381.474 145.05C382.474 145.05 382.974 145.57 382.974 146.61ZM394.695 150.66C394.935 150.66 395.115 150.67 395.235 150.69C396.495 148.77 397.865 147.81 399.345 147.81C400.645 147.81 401.295 148.44 401.295 149.7C401.295 150.58 400.855 151.02 399.975 151.02C399.115 151.02 398.615 150.57 398.475 149.67C397.895 149.67 397.355 150.1 396.855 150.96C398.795 151.6 399.765 153.2 399.765 155.76C399.765 157.32 399.455 158.62 398.835 159.66C398.135 160.82 396.755 161.4 394.695 161.4C393.835 161.4 393.135 161.3 392.595 161.1C392.175 161.84 391.865 162.65 391.665 163.53C392.005 163.59 392.365 163.62 392.745 163.62C393.125 163.62 393.885 163.55 395.025 163.41C396.165 163.27 396.985 163.2 397.485 163.2C398.525 163.2 399.365 163.46 400.005 163.98C400.645 164.5 400.965 165.3 400.965 166.38C400.965 167.46 400.615 168.4 399.915 169.2C398.695 170.6 396.795 171.3 394.215 171.3C392.475 171.3 391.145 171.08 390.225 170.64C389.305 170.2 388.845 169.38 388.845 168.18C388.845 167.3 389.315 166.39 390.255 165.45C389.875 165.17 389.685 164.78 389.685 164.28C389.685 163.22 390.195 161.92 391.215 160.38C390.155 159.52 389.625 157.98 389.625 155.76C389.625 152.36 391.315 150.66 394.695 150.66ZM392.055 155.79C392.055 158.15 392.935 159.33 394.695 159.33C396.455 159.33 397.335 158.15 397.335 155.79C397.335 153.43 396.455 152.25 394.695 152.25C392.935 152.25 392.055 153.43 392.055 155.79ZM391.275 167.73C391.275 169.01 392.445 169.65 394.785 169.65C395.785 169.65 396.675 169.43 397.455 168.99C398.255 168.55 398.655 167.89 398.655 167.01C398.655 166.03 398.125 165.54 397.065 165.54C396.545 165.54 395.725 165.6 394.605 165.72C393.485 165.86 392.585 165.93 391.905 165.93H391.665C391.405 166.49 391.275 167.09 391.275 167.73ZM418.359 154.5L418.329 157.41C418.329 159.51 418.449 161.46 418.689 163.26L419.739 163.35C419.779 163.79 419.799 164.1 419.799 164.28C419.799 164.44 419.769 164.69 419.709 165.03C419.149 165.01 418.309 165 417.189 165C416.069 165 415.269 165.01 414.789 165.03C414.729 164.73 414.699 164.45 414.699 164.19C414.699 163.91 414.719 163.63 414.759 163.35L415.809 163.26C415.969 160.92 416.049 158.92 416.049 157.26C416.049 155.58 415.879 154.38 415.539 153.66C415.219 152.94 414.659 152.58 413.859 152.58C412.779 152.58 411.589 153.23 410.289 154.53C410.269 155.05 410.259 156.27 410.259 158.19C410.259 160.09 410.349 161.78 410.529 163.26L411.639 163.35C411.679 163.79 411.699 164.1 411.699 164.28C411.699 164.44 411.669 164.69 411.609 165.03C411.049 165.01 410.229 165 409.149 165C408.069 165 407.279 165.01 406.779 165.03C406.719 164.73 406.689 164.45 406.689 164.19C406.689 163.91 406.709 163.63 406.749 163.35L407.799 163.26C407.979 161.26 408.069 159.43 408.069 157.77C408.069 156.09 407.989 154.43 407.829 152.79L406.719 152.7C406.659 152.36 406.629 152.03 406.629 151.71C406.629 151.37 406.639 151.14 406.659 151.02C407.679 151 408.919 150.91 410.379 150.75L410.529 150.9C410.489 151.14 410.429 151.74 410.349 152.7C410.969 152.08 411.689 151.59 412.509 151.23C413.329 150.85 414.099 150.66 414.819 150.66C417.179 150.66 418.359 151.94 418.359 154.5ZM436.709 163.26C436.889 161.3 436.979 159.51 436.979 157.89C436.979 156.25 436.899 154.55 436.739 152.79L435.629 152.7C435.569 152.36 435.539 152.04 435.539 151.74C435.539 151.42 435.549 151.18 435.569 151.02C436.729 150.98 437.969 150.89 439.289 150.75L439.439 150.9C439.259 152.08 439.169 154.06 439.169 156.84C439.169 159.62 439.259 161.76 439.439 163.26L440.549 163.35C440.589 163.67 440.609 163.95 440.609 164.19C440.609 164.41 440.579 164.69 440.519 165.03C439.819 165.01 439.009 165 438.089 165C437.169 165 436.369 165.01 435.689 165.03C435.629 164.73 435.599 164.42 435.599 164.1C435.599 163.78 435.619 163.53 435.659 163.35L436.709 163.26ZM439.739 146.61C439.739 147.85 439.099 148.47 437.819 148.47C436.819 148.47 436.319 147.96 436.319 146.94C436.319 145.68 436.959 145.05 438.239 145.05C439.239 145.05 439.739 145.57 439.739 146.61ZM458.15 154.5L458.12 157.41C458.12 159.51 458.24 161.46 458.48 163.26L459.53 163.35C459.57 163.79 459.59 164.1 459.59 164.28C459.59 164.44 459.56 164.69 459.5 165.03C458.94 165.01 458.1 165 456.98 165C455.86 165 455.06 165.01 454.58 165.03C454.52 164.73 454.49 164.45 454.49 164.19C454.49 163.91 454.51 163.63 454.55 163.35L455.6 163.26C455.76 160.92 455.84 158.92 455.84 157.26C455.84 155.58 455.67 154.38 455.33 153.66C455.01 152.94 454.45 152.58 453.65 152.58C452.57 152.58 451.38 153.23 450.08 154.53C450.06 155.05 450.05 156.27 450.05 158.19C450.05 160.09 450.14 161.78 450.32 163.26L451.43 163.35C451.47 163.79 451.49 164.1 451.49 164.28C451.49 164.44 451.46 164.69 451.4 165.03C450.84 165.01 450.02 165 448.94 165C447.86 165 447.07 165.01 446.57 165.03C446.51 164.73 446.48 164.45 446.48 164.19C446.48 163.91 446.5 163.63 446.54 163.35L447.59 163.26C447.77 161.26 447.86 159.43 447.86 157.77C447.86 156.09 447.78 154.43 447.62 152.79L446.51 152.7C446.45 152.36 446.42 152.03 446.42 151.71C446.42 151.37 446.43 151.14 446.45 151.02C447.47 151 448.71 150.91 450.17 150.75L450.32 150.9C450.28 151.14 450.22 151.74 450.14 152.7C450.76 152.08 451.48 151.59 452.3 151.23C453.12 150.85 453.89 150.66 454.61 150.66C456.97 150.66 458.15 151.94 458.15 154.5ZM484.151 156.87C484.151 154.01 483.301 152.58 481.601 152.58C480.381 152.58 479.221 153.23 478.121 154.53V162.6C479.041 163.06 480.011 163.29 481.031 163.29C483.111 163.29 484.151 161.15 484.151 156.87ZM478.121 152.7C479.521 151.34 480.931 150.66 482.351 150.66C483.771 150.66 484.851 151.24 485.591 152.4C486.331 153.56 486.701 155.18 486.701 157.26C486.701 160.08 486.211 162.15 485.231 163.47C484.271 164.79 482.751 165.45 480.671 165.45C479.371 165.45 477.641 165.19 475.481 164.67C475.801 162.71 475.961 159.53 475.961 155.13C475.961 150.73 475.911 147.88 475.811 146.58L474.611 146.49C474.551 146.25 474.521 145.94 474.521 145.56C474.521 145.18 474.531 144.93 474.551 144.81C476.331 144.73 477.631 144.64 478.451 144.54L478.571 144.69C478.291 147.09 478.141 149.76 478.121 152.7ZM497.754 158.34C496.774 158.34 495.864 158.29 495.024 158.19C495.064 161.59 496.194 163.29 498.414 163.29C499.534 163.29 500.774 162.67 502.134 161.43C502.714 162.03 503.084 162.82 503.244 163.8C501.604 164.9 499.864 165.45 498.024 165.45C496.184 165.45 494.814 164.82 493.914 163.56C493.014 162.28 492.564 160.41 492.564 157.95C492.564 155.49 493.064 153.66 494.064 152.46C495.084 151.26 496.524 150.66 498.384 150.66C499.764 150.66 500.904 151.08 501.804 151.92C502.704 152.76 503.154 153.79 503.154 155.01C503.174 156.23 503.074 157.1 502.854 157.62C501.354 158.1 499.654 158.34 497.754 158.34ZM498.174 152.34C496.314 152.34 495.274 153.71 495.054 156.45C495.954 156.55 496.944 156.6 498.024 156.6C499.104 156.6 499.944 156.5 500.544 156.3C500.624 155.8 500.664 155.43 500.664 155.19C500.664 154.31 500.434 153.62 499.974 153.12C499.534 152.6 498.934 152.34 498.174 152.34ZM510.539 158.04V153.93C510.539 150.33 510.489 147.88 510.389 146.58L509.189 146.49C509.129 146.23 509.099 145.93 509.099 145.59C509.099 145.23 509.109 144.97 509.129 144.81C510.949 144.71 512.249 144.62 513.029 144.54L513.149 144.69C512.869 147.07 512.729 149.63 512.729 152.37V157.32C512.729 159.78 512.819 161.76 512.999 163.26L514.109 163.35C514.149 163.67 514.169 163.95 514.169 164.19C514.169 164.41 514.139 164.69 514.079 165.03C513.379 165.01 512.569 165 511.649 165C510.729 165 509.929 165.01 509.249 165.03C509.189 164.73 509.159 164.47 509.159 164.25C509.159 164.01 509.179 163.71 509.219 163.35L510.269 163.26C510.449 161.38 510.539 159.64 510.539 158.04ZM519.658 157.89C519.658 153.07 521.538 150.66 525.298 150.66C529.058 150.66 530.938 153.07 530.938 157.89C530.938 160.11 530.588 161.87 529.888 163.17C529.088 164.69 527.558 165.45 525.298 165.45C523.038 165.45 521.508 164.69 520.708 163.17C520.008 161.87 519.658 160.11 519.658 157.89ZM522.118 157.83C522.118 161.47 523.178 163.29 525.298 163.29C527.418 163.29 528.478 161.47 528.478 157.83C528.478 154.17 527.418 152.34 525.298 152.34C523.178 152.34 522.118 154.17 522.118 157.83ZM543.712 152.7C544.312 152.56 544.822 152.49 545.242 152.49C545.682 152.49 546.082 152.52 546.442 152.58C546.842 155.86 547.412 158.89 548.152 161.67H548.272C548.732 160.67 549.182 159.31 549.622 157.59C550.082 155.87 550.412 154.26 550.612 152.76L549.382 152.67C549.342 152.47 549.322 152.21 549.322 151.89C549.322 151.55 549.352 151.25 549.412 150.99C550.012 151.01 550.842 151.02 551.902 151.02C552.982 151.02 553.812 151.01 554.392 150.99C554.452 151.25 554.482 151.53 554.482 151.83C554.482 152.13 554.462 152.41 554.422 152.67L553.402 152.76C551.082 158.72 549.642 162.8 549.082 165C548.562 165.14 548.092 165.21 547.672 165.21C547.272 165.21 547.002 165.2 546.862 165.18C546.642 163.62 545.982 160.75 544.882 156.57H544.762C543.622 160.01 542.802 162.82 542.302 165C541.782 165.14 541.312 165.21 540.892 165.21C540.492 165.21 540.222 165.2 540.082 165.18C539.722 163.56 539.172 161.57 538.432 159.21C537.692 156.83 536.942 154.68 536.182 152.76L535.192 152.67C535.152 152.43 535.132 152.16 535.132 151.86C535.132 151.54 535.162 151.25 535.222 150.99C535.802 151.01 536.672 151.02 537.832 151.02C538.992 151.02 539.872 151.01 540.472 150.99C540.532 151.25 540.562 151.54 540.562 151.86C540.562 152.16 540.542 152.43 540.502 152.67L539.302 152.76C539.582 155.02 540.272 157.99 541.372 161.67H541.492C541.932 160.67 542.382 159.25 542.842 157.41C543.302 155.55 543.592 153.98 543.712 152.7ZM564.218 163.35C564.218 163.95 564.038 164.45 563.678 164.85C563.318 165.25 562.768 165.45 562.028 165.45C560.888 165.45 560.318 164.87 560.318 163.71C560.318 162.27 561.048 161.55 562.508 161.55C563.648 161.55 564.218 162.15 564.218 163.35Z" fill="#393939"/>
</g>
<defs>
<clipPath id="clip0">
<rect width="693" height="172" fill="white"/>
</clipPath>
</defs>
</svg>
