<svg width="693" height="175" viewBox="0 0 693 175" fill="none" xmlns="http://www.w3.org/2000/svg">
<g clip-path="url(#clip0)">
<path d="M47.3594 88.3125L63.1406 82.6875C63.7656 89.4583 67.4635 94.1458 74.2344 96.75C75.4844 97.1667 76.1094 97.375 76.1094 97.375V113.469C67.151 113.469 59.5469 109.615 53.2969 101.906C49.4427 97.0104 47.4635 92.4792 47.3594 88.3125ZM48.6094 33.3125C48.6094 21.9583 53.5052 13.4167 63.2969 7.6875C67.8802 5.08333 72.151 3.72917 76.1094 3.625V20.0312C72.8802 20.5521 70.0677 22.4271 67.6719 25.6562C66.1094 27.9479 65.3281 30.3958 65.3281 33C65.3281 38.4167 69.2344 42.7396 77.0469 45.9688C78.9219 46.6979 81.8385 47.6875 85.7969 48.9375C90.7969 50.5 94.2865 51.75 96.2656 52.6875C105.328 57.1667 111.214 62.4792 113.922 68.625C115.484 72.2708 116.266 76.2812 116.266 80.6562C116.266 89.8229 112.724 97.7917 105.641 104.562C99.2865 110.5 92.151 113.469 84.2344 113.469V97.375C88.1927 97.1667 91.7344 95.2917 94.8594 91.75C97.4635 88.625 98.7656 85.0312 98.7656 80.9688C98.7656 74.6146 94.3385 69.8229 85.4844 66.5938C83.6094 65.8646 80.6927 64.9271 76.7344 63.7812C72.3594 62.5312 69.3906 61.5417 67.8281 60.8125C59.0781 56.9583 53.4531 52.0104 50.9531 45.9688C49.3906 42.3229 48.6094 38.1042 48.6094 33.3125ZM84.2344 20.0312V3.625C93.1927 3.625 100.693 7.47917 106.734 15.1875C109.964 19.3542 111.682 23.1562 111.891 26.5938L95.7969 31.9062C95.3802 28.7812 94.1823 26.2292 92.2031 24.25C90.3281 22.2708 88.5573 21.0729 86.8906 20.6562L84.2344 20.0312ZM133.797 89.4062V49.875C133.797 44.7708 136.089 39.8229 140.672 35.0312C146.089 29.3021 152.911 26.4375 161.141 26.4375V42.5312C155.724 42.5312 152.234 44.7708 150.672 49.25C150.359 50.1875 150.203 51.125 150.203 52.0625V87.2188C150.203 91.1771 152.026 94.0417 155.672 95.8125C157.339 96.6458 159.214 97.0625 161.297 97.0625V113.156C151.193 113.156 143.38 109.094 137.859 100.969C135.151 96.9062 133.797 93.0521 133.797 89.4062ZM168.172 113.156V97.0625C173.172 97.0625 176.453 94.9271 178.016 90.6562C178.432 89.5104 178.641 88.4688 178.641 87.5312V52.0625C178.641 47.6875 176.609 44.7708 172.547 43.3125C171.193 42.7917 169.682 42.5312 168.016 42.5312V26.4375C177.807 26.4375 185.359 30.3958 190.672 38.3125C193.38 42.375 194.734 46.2292 194.734 49.875V89.4062C194.734 94.5104 192.547 99.5104 188.172 104.406C182.859 110.135 176.193 113.052 168.172 113.156ZM211.641 50.0312V33.7812H222.266V26.125C222.266 20.9167 224.193 15.8646 228.047 10.9688C232.839 5.03125 238.984 2.01042 246.484 1.90625H254.453L250.703 18H246.484C242.005 18.9375 239.505 21.6458 238.984 26.125V33.7812H249.922V50.0312H238.984V113H222.266V50.0312H211.641ZM265.734 43V26.9062H276.359V1.90625H292.922V26.9062H303.234V43.1562H292.922L293.078 86.4375C293.286 92.6875 296.411 95.8646 302.453 95.9688H305.734L309.484 113H302.141C288.911 113 280.839 107.948 277.922 97.8438C276.88 94.1979 276.359 89.875 276.359 84.875V43H265.734ZM319.828 26.4375L347.328 113H356.703L362.016 96.2812L338.422 26.4375H319.828ZM355.453 58.4688L364.047 83.4688H366.078L374.984 55.5L393.266 113H402.641L407.953 96.2812L384.359 26.4375H365.766L355.453 58.4688ZM401.547 58.4688L409.984 83.4688H412.016L430.297 26.4375H411.703L401.547 58.4688ZM445.484 89.4062V49.875C445.484 44.7708 447.776 39.8229 452.359 35.0312C457.776 29.3021 464.599 26.4375 472.828 26.4375V42.5312C467.411 42.5312 463.922 44.7708 462.359 49.25C462.047 50.1875 461.891 51.125 461.891 52.0625V87.2188C461.891 91.1771 463.714 94.0417 467.359 95.8125C469.026 96.6458 470.901 97.0625 472.984 97.0625V113.156C462.88 113.156 455.068 109.094 449.547 100.969C446.839 96.9062 445.484 93.0521 445.484 89.4062ZM479.859 113.156V97.0625C484.859 97.0625 488.141 94.9271 489.703 90.6562C490.12 89.5104 490.328 88.4688 490.328 87.5312V52.0625C490.328 47.6875 488.297 44.7708 484.234 43.3125C482.88 42.7917 481.37 42.5312 479.703 42.5312V26.4375C489.495 26.4375 497.047 30.3958 502.359 38.3125C505.068 42.375 506.422 46.2292 506.422 49.875V89.4062C506.422 94.5104 504.234 99.5104 499.859 104.406C494.547 110.135 487.88 113.052 479.859 113.156ZM526.922 113V26.4375H543.797V37.2188C546.714 32.6354 551.089 29.3542 556.922 27.375C559.63 26.4375 562.286 25.9688 564.891 25.9688H568.953L565.047 42.375C558.901 42.4792 553.536 45.4479 548.953 51.2812C545.516 55.7604 543.797 60.3958 543.797 65.1875V113H526.922ZM585.391 113V1.90625H602.578V113H585.391ZM606.797 69.4062L632.891 26.4375H651.953L625.391 69.4062L652.109 113H633.203L606.797 69.4062Z" fill="#393939"/>
<path d="M12.1504 147.78C12.0104 149.34 11.9404 151.85 11.9404 155.31C11.9404 158.75 12.0204 161.4 12.1804 163.26L13.9204 163.44C13.9604 163.76 13.9804 164.02 13.9804 164.22C13.9804 164.4 13.9504 164.67 13.8904 165.03C13.1704 165.01 12.1304 165 10.7704 165C9.43043 165 8.45043 165.01 7.83043 165.03C7.77043 164.73 7.74043 164.48 7.74043 164.28C7.74043 164.08 7.76043 163.8 7.80043 163.44L9.45043 163.26C9.61043 161.12 9.69043 158.41 9.69043 155.13C9.69043 151.83 9.60043 149.38 9.42043 147.78C8.64043 147.8 7.56043 147.87 6.18043 147.99L6.09043 150.21C5.77043 150.27 5.47043 150.3 5.19043 150.3C4.91043 150.3 4.65043 150.29 4.41043 150.27C4.35043 148.63 4.26043 147.11 4.14043 145.71L4.29043 145.56C5.77043 145.74 8.14043 145.83 11.4004 145.83C14.6604 145.83 16.7004 145.74 17.5204 145.56L17.6704 145.71C17.5304 147.25 17.4404 148.67 17.4004 149.97C17.1604 149.99 16.9004 150 16.6204 150C16.3604 150 16.0604 149.97 15.7204 149.91L15.6304 147.9C14.7904 147.86 13.6304 147.82 12.1504 147.78ZM34.4238 154.5L34.3938 157.41C34.3938 159.53 34.5138 161.48 34.7538 163.26L35.8038 163.35C35.8438 163.67 35.8638 163.95 35.8638 164.19C35.8638 164.41 35.8338 164.69 35.7738 165.03C35.0738 165.01 34.2438 165 33.2838 165C32.3438 165 31.5338 165.01 30.8538 165.03C30.7938 164.73 30.7638 164.47 30.7638 164.25C30.7638 164.01 30.7838 163.71 30.8238 163.35L31.8738 163.26C32.0338 161.1 32.1138 159.18 32.1138 157.5C32.1138 155.82 31.9638 154.58 31.6638 153.78C31.3838 152.98 30.8038 152.58 29.9238 152.58C28.8038 152.58 27.6038 153.22 26.3238 154.5V157.32C26.3238 159.78 26.4138 161.76 26.5938 163.26L27.7038 163.35C27.7438 163.67 27.7638 163.95 27.7638 164.19C27.7638 164.41 27.7338 164.69 27.6738 165.03C26.9738 165.01 26.1638 165 25.2438 165C24.3238 165 23.5238 165.01 22.8438 165.03C22.7838 164.73 22.7538 164.47 22.7538 164.25C22.7538 164.01 22.7738 163.71 22.8138 163.35L23.8638 163.26C24.0438 161.38 24.1338 159.64 24.1338 158.04V153.93C24.1338 150.33 24.0838 147.88 23.9838 146.58L22.7838 146.49C22.7238 146.23 22.6938 145.93 22.6938 145.59C22.6938 145.23 22.7038 144.97 22.7238 144.81C24.5438 144.71 25.8438 144.62 26.6238 144.54L26.7438 144.69C26.4638 147.07 26.3238 149.75 26.3238 152.73C26.9238 152.13 27.6438 151.64 28.4838 151.26C29.3238 150.86 30.1238 150.66 30.8838 150.66C33.2438 150.66 34.4238 151.94 34.4238 154.5ZM46.6699 158.34C45.6899 158.34 44.7799 158.29 43.9399 158.19C43.9799 161.59 45.1099 163.29 47.3299 163.29C48.4499 163.29 49.6899 162.67 51.0499 161.43C51.6299 162.03 51.9999 162.82 52.1599 163.8C50.5199 164.9 48.7799 165.45 46.9399 165.45C45.0999 165.45 43.7299 164.82 42.8299 163.56C41.9299 162.28 41.4799 160.41 41.4799 157.95C41.4799 155.49 41.9799 153.66 42.9799 152.46C43.9999 151.26 45.4399 150.66 47.2999 150.66C48.6799 150.66 49.8199 151.08 50.7199 151.92C51.6199 152.76 52.0699 153.79 52.0699 155.01C52.0899 156.23 51.9899 157.1 51.7699 157.62C50.2699 158.1 48.5699 158.34 46.6699 158.34ZM47.0899 152.34C45.2299 152.34 44.1899 153.71 43.9699 156.45C44.8699 156.55 45.8599 156.6 46.9399 156.6C48.0199 156.6 48.8599 156.5 49.4599 156.3C49.5399 155.8 49.5799 155.43 49.5799 155.19C49.5799 154.31 49.3499 153.62 48.8899 153.12C48.4499 152.6 47.8499 152.34 47.0899 152.34ZM72.6091 150.66C74.0091 150.66 75.1191 150.99 75.9391 151.65C76.7791 152.31 77.1991 153.17 77.1991 154.23C77.1991 155.27 76.7291 155.79 75.7891 155.79C75.2291 155.79 74.7891 155.62 74.4691 155.28C74.1691 154.92 74.0191 154.5 74.0191 154.02C74.0191 153.54 74.0991 153.14 74.2591 152.82C73.7791 152.44 73.2091 152.25 72.5491 152.25C71.8891 152.25 71.3391 152.41 70.8991 152.73C70.4791 153.05 70.2691 153.52 70.2691 154.14C70.2691 154.76 70.5091 155.3 70.9891 155.76C71.4891 156.22 72.0891 156.6 72.7891 156.9C73.4891 157.18 74.1891 157.48 74.8891 157.8C75.5891 158.1 76.1791 158.54 76.6591 159.12C77.1591 159.68 77.4091 160.38 77.4091 161.22C77.4091 162.52 76.9691 163.55 76.0891 164.31C75.2291 165.07 74.0491 165.45 72.5491 165.45C71.0491 165.45 69.8191 165.13 68.8591 164.49C67.9191 163.85 67.4491 163.01 67.4491 161.97V161.85C67.4491 160.77 67.9191 160.23 68.8591 160.23C69.4191 160.23 69.8491 160.41 70.1491 160.77C70.4691 161.11 70.6291 161.51 70.6291 161.97C70.6291 162.43 70.5791 162.79 70.4791 163.05C70.8791 163.31 71.5091 163.44 72.3691 163.44C73.2491 163.44 73.9091 163.29 74.3491 162.99C74.8091 162.69 75.0391 162.28 75.0391 161.76C75.0391 161.22 74.7891 160.74 74.2891 160.32C73.8091 159.9 73.2191 159.55 72.5191 159.27C71.8191 158.97 71.1191 158.66 70.4191 158.34C69.7191 158 69.1191 157.52 68.6191 156.9C68.1391 156.28 67.8991 155.54 67.8991 154.68C67.8991 153.44 68.3291 152.46 69.1891 151.74C70.0691 151.02 71.2091 150.66 72.6091 150.66ZM88.2187 158.34C87.2387 158.34 86.3287 158.29 85.4887 158.19C85.5287 161.59 86.6587 163.29 88.8787 163.29C89.9987 163.29 91.2387 162.67 92.5987 161.43C93.1787 162.03 93.5487 162.82 93.7087 163.8C92.0687 164.9 90.3287 165.45 88.4887 165.45C86.6487 165.45 85.2787 164.82 84.3787 163.56C83.4787 162.28 83.0287 160.41 83.0287 157.95C83.0287 155.49 83.5287 153.66 84.5287 152.46C85.5487 151.26 86.9887 150.66 88.8487 150.66C90.2287 150.66 91.3687 151.08 92.2687 151.92C93.1687 152.76 93.6187 153.79 93.6187 155.01C93.6387 156.23 93.5387 157.1 93.3187 157.62C91.8187 158.1 90.1187 158.34 88.2187 158.34ZM88.6387 152.34C86.7787 152.34 85.7387 153.71 85.5187 156.45C86.4187 156.55 87.4087 156.6 88.4887 156.6C89.5687 156.6 90.4087 156.5 91.0087 156.3C91.0887 155.8 91.1287 155.43 91.1287 155.19C91.1287 154.31 90.8987 153.62 90.4387 153.12C89.9987 152.6 89.3987 152.34 88.6387 152.34ZM109.854 154.65L109.734 158.97C109.734 160.33 109.814 161.66 109.974 162.96L111.084 163.05C111.124 163.37 111.144 163.67 111.144 163.95C111.144 164.21 111.114 164.49 111.054 164.79C110.474 164.81 109.344 164.91 107.664 165.09C107.524 164.71 107.414 164.24 107.334 163.68C105.774 164.86 104.424 165.45 103.284 165.45C102.164 165.45 101.284 165.09 100.644 164.37C100.024 163.63 99.7139 162.59 99.7139 161.25C99.7139 159.89 100.134 158.82 100.974 158.04C101.834 157.26 102.904 156.87 104.184 156.87C105.484 156.87 106.594 157.11 107.514 157.59C107.534 157.37 107.544 157.01 107.544 156.51C107.544 155.03 107.334 153.97 106.914 153.33C106.514 152.67 105.894 152.34 105.054 152.34C104.214 152.34 103.604 152.5 103.224 152.82C103.384 153.14 103.464 153.54 103.464 154.02C103.464 154.5 103.304 154.92 102.984 155.28C102.684 155.62 102.254 155.79 101.694 155.79C100.754 155.79 100.284 155.24 100.284 154.14C100.284 153.02 100.704 152.16 101.544 151.56C102.384 150.96 103.564 150.66 105.084 150.66C106.604 150.66 107.774 151.02 108.594 151.74C109.434 152.44 109.854 153.41 109.854 154.65ZM107.394 159.48C106.574 158.78 105.694 158.43 104.754 158.43C102.954 158.43 102.054 159.23 102.054 160.83C102.054 162.47 102.764 163.29 104.184 163.29C104.704 163.29 105.254 163.16 105.834 162.9C106.434 162.62 106.904 162.28 107.244 161.88C107.344 160.68 107.394 159.88 107.394 159.48ZM117.524 163.26C117.704 161.26 117.794 159.43 117.794 157.77C117.794 156.09 117.714 154.43 117.554 152.79L116.444 152.7C116.384 152.38 116.354 152.05 116.354 151.71C116.354 151.37 116.364 151.14 116.384 151.02C117.404 151 118.644 150.91 120.104 150.75L120.254 150.9C120.234 151.02 120.174 151.61 120.074 152.67C120.534 152.09 121.064 151.61 121.664 151.23C122.284 150.85 122.884 150.66 123.464 150.66C124.064 150.66 124.584 150.87 125.024 151.29C125.464 151.71 125.684 152.26 125.684 152.94C125.684 154.06 125.214 154.62 124.274 154.62C123.734 154.62 123.304 154.45 122.984 154.11C122.664 153.75 122.504 153.28 122.504 152.7C122.464 152.68 122.394 152.67 122.294 152.67C121.554 152.67 120.794 153.23 120.014 154.35C119.994 154.91 119.984 156.17 119.984 158.13C119.984 160.07 120.074 161.78 120.254 163.26L121.364 163.35C121.404 163.79 121.424 164.1 121.424 164.28C121.424 164.44 121.394 164.69 121.334 165.03C120.774 165.01 119.954 165 118.874 165C117.794 165 117.004 165.01 116.504 165.03C116.444 164.73 116.414 164.45 116.414 164.19C116.414 163.91 116.434 163.63 116.474 163.35L117.524 163.26ZM138.904 155.79C138.344 155.79 137.904 155.62 137.584 155.28C137.284 154.92 137.134 154.49 137.134 153.99C137.134 153.47 137.204 153.08 137.344 152.82C136.904 152.48 136.384 152.31 135.784 152.31C133.664 152.31 132.604 154.19 132.604 157.95C132.604 159.67 132.874 160.99 133.414 161.91C133.954 162.83 134.714 163.29 135.694 163.29C136.694 163.29 137.924 162.67 139.384 161.43C139.964 162.03 140.334 162.82 140.494 163.8C138.814 164.9 137.104 165.45 135.364 165.45C133.624 165.45 132.314 164.82 131.434 163.56C130.574 162.3 130.144 160.44 130.144 157.98C130.144 155.52 130.624 153.69 131.584 152.49C132.544 151.27 133.904 150.66 135.664 150.66C137.044 150.66 138.164 150.99 139.024 151.65C139.884 152.29 140.314 153.14 140.314 154.2C140.314 155.26 139.844 155.79 138.904 155.79ZM157.975 154.5L157.945 157.41C157.945 159.53 158.065 161.48 158.305 163.26L159.355 163.35C159.395 163.67 159.415 163.95 159.415 164.19C159.415 164.41 159.385 164.69 159.325 165.03C158.625 165.01 157.795 165 156.835 165C155.895 165 155.085 165.01 154.405 165.03C154.345 164.73 154.315 164.47 154.315 164.25C154.315 164.01 154.335 163.71 154.375 163.35L155.425 163.26C155.585 161.1 155.665 159.18 155.665 157.5C155.665 155.82 155.515 154.58 155.215 153.78C154.935 152.98 154.355 152.58 153.475 152.58C152.355 152.58 151.155 153.22 149.875 154.5V157.32C149.875 159.78 149.965 161.76 150.145 163.26L151.255 163.35C151.295 163.67 151.315 163.95 151.315 164.19C151.315 164.41 151.285 164.69 151.225 165.03C150.525 165.01 149.715 165 148.795 165C147.875 165 147.075 165.01 146.395 165.03C146.335 164.73 146.305 164.47 146.305 164.25C146.305 164.01 146.325 163.71 146.365 163.35L147.415 163.26C147.595 161.38 147.685 159.64 147.685 158.04V153.93C147.685 150.33 147.635 147.88 147.535 146.58L146.335 146.49C146.275 146.23 146.245 145.93 146.245 145.59C146.245 145.23 146.255 144.97 146.275 144.81C148.095 144.71 149.395 144.62 150.175 144.54L150.295 144.69C150.015 147.07 149.875 149.75 149.875 152.73C150.475 152.13 151.195 151.64 152.035 151.26C152.875 150.86 153.675 150.66 154.435 150.66C156.795 150.66 157.975 151.94 157.975 154.5ZM180.135 158.34C179.155 158.34 178.245 158.29 177.405 158.19C177.445 161.59 178.575 163.29 180.795 163.29C181.915 163.29 183.155 162.67 184.515 161.43C185.095 162.03 185.465 162.82 185.625 163.8C183.985 164.9 182.245 165.45 180.405 165.45C178.565 165.45 177.195 164.82 176.295 163.56C175.395 162.28 174.945 160.41 174.945 157.95C174.945 155.49 175.445 153.66 176.445 152.46C177.465 151.26 178.905 150.66 180.765 150.66C182.145 150.66 183.285 151.08 184.185 151.92C185.085 152.76 185.535 153.79 185.535 155.01C185.555 156.23 185.455 157.1 185.235 157.62C183.735 158.1 182.035 158.34 180.135 158.34ZM180.555 152.34C178.695 152.34 177.655 153.71 177.435 156.45C178.335 156.55 179.325 156.6 180.405 156.6C181.485 156.6 182.325 156.5 182.925 156.3C183.005 155.8 183.045 155.43 183.045 155.19C183.045 154.31 182.815 153.62 182.355 153.12C181.915 152.6 181.315 152.34 180.555 152.34ZM203.42 154.5L203.39 157.41C203.39 159.51 203.51 161.46 203.75 163.26L204.8 163.35C204.84 163.79 204.86 164.1 204.86 164.28C204.86 164.44 204.83 164.69 204.77 165.03C204.21 165.01 203.37 165 202.25 165C201.13 165 200.33 165.01 199.85 165.03C199.79 164.73 199.76 164.45 199.76 164.19C199.76 163.91 199.78 163.63 199.82 163.35L200.87 163.26C201.03 160.92 201.11 158.92 201.11 157.26C201.11 155.58 200.94 154.38 200.6 153.66C200.28 152.94 199.72 152.58 198.92 152.58C197.84 152.58 196.65 153.23 195.35 154.53C195.33 155.05 195.32 156.27 195.32 158.19C195.32 160.09 195.41 161.78 195.59 163.26L196.7 163.35C196.74 163.79 196.76 164.1 196.76 164.28C196.76 164.44 196.73 164.69 196.67 165.03C196.11 165.01 195.29 165 194.21 165C193.13 165 192.34 165.01 191.84 165.03C191.78 164.73 191.75 164.45 191.75 164.19C191.75 163.91 191.77 163.63 191.81 163.35L192.86 163.26C193.04 161.26 193.13 159.43 193.13 157.77C193.13 156.09 193.05 154.43 192.89 152.79L191.78 152.7C191.72 152.36 191.69 152.03 191.69 151.71C191.69 151.37 191.7 151.14 191.72 151.02C192.74 151 193.98 150.91 195.44 150.75L195.59 150.9C195.55 151.14 195.49 151.74 195.41 152.7C196.03 152.08 196.75 151.59 197.57 151.23C198.39 150.85 199.16 150.66 199.88 150.66C202.24 150.66 203.42 151.94 203.42 154.5ZM215.726 150.66C215.966 150.66 216.146 150.67 216.266 150.69C217.526 148.77 218.896 147.81 220.376 147.81C221.676 147.81 222.326 148.44 222.326 149.7C222.326 150.58 221.886 151.02 221.006 151.02C220.146 151.02 219.646 150.57 219.506 149.67C218.926 149.67 218.386 150.1 217.886 150.96C219.826 151.6 220.796 153.2 220.796 155.76C220.796 157.32 220.486 158.62 219.866 159.66C219.166 160.82 217.786 161.4 215.726 161.4C214.866 161.4 214.166 161.3 213.626 161.1C213.206 161.84 212.896 162.65 212.696 163.53C213.036 163.59 213.396 163.62 213.776 163.62C214.156 163.62 214.916 163.55 216.056 163.41C217.196 163.27 218.016 163.2 218.516 163.2C219.556 163.2 220.396 163.46 221.036 163.98C221.676 164.5 221.996 165.3 221.996 166.38C221.996 167.46 221.646 168.4 220.946 169.2C219.726 170.6 217.826 171.3 215.246 171.3C213.506 171.3 212.176 171.08 211.256 170.64C210.336 170.2 209.876 169.38 209.876 168.18C209.876 167.3 210.346 166.39 211.286 165.45C210.906 165.17 210.716 164.78 210.716 164.28C210.716 163.22 211.226 161.92 212.246 160.38C211.186 159.52 210.656 157.98 210.656 155.76C210.656 152.36 212.346 150.66 215.726 150.66ZM213.086 155.79C213.086 158.15 213.966 159.33 215.726 159.33C217.486 159.33 218.366 158.15 218.366 155.79C218.366 153.43 217.486 152.25 215.726 152.25C213.966 152.25 213.086 153.43 213.086 155.79ZM212.306 167.73C212.306 169.01 213.476 169.65 215.816 169.65C216.816 169.65 217.706 169.43 218.486 168.99C219.286 168.55 219.686 167.89 219.686 167.01C219.686 166.03 219.156 165.54 218.096 165.54C217.576 165.54 216.756 165.6 215.636 165.72C214.516 165.86 213.616 165.93 212.936 165.93H212.696C212.436 166.49 212.306 167.09 212.306 167.73ZM228.831 163.26C229.011 161.3 229.101 159.51 229.101 157.89C229.101 156.25 229.021 154.55 228.861 152.79L227.751 152.7C227.691 152.36 227.661 152.04 227.661 151.74C227.661 151.42 227.671 151.18 227.691 151.02C228.851 150.98 230.091 150.89 231.411 150.75L231.561 150.9C231.381 152.08 231.291 154.06 231.291 156.84C231.291 159.62 231.381 161.76 231.561 163.26L232.671 163.35C232.711 163.67 232.731 163.95 232.731 164.19C232.731 164.41 232.701 164.69 232.641 165.03C231.941 165.01 231.131 165 230.211 165C229.291 165 228.491 165.01 227.811 165.03C227.751 164.73 227.721 164.42 227.721 164.1C227.721 163.78 227.741 163.53 227.781 163.35L228.831 163.26ZM231.861 146.61C231.861 147.85 231.221 148.47 229.941 148.47C228.941 148.47 228.441 147.96 228.441 146.94C228.441 145.68 229.081 145.05 230.361 145.05C231.361 145.05 231.861 145.57 231.861 146.61ZM250.271 154.5L250.241 157.41C250.241 159.51 250.361 161.46 250.601 163.26L251.651 163.35C251.691 163.79 251.711 164.1 251.711 164.28C251.711 164.44 251.681 164.69 251.621 165.03C251.061 165.01 250.221 165 249.101 165C247.981 165 247.181 165.01 246.701 165.03C246.641 164.73 246.611 164.45 246.611 164.19C246.611 163.91 246.631 163.63 246.671 163.35L247.721 163.26C247.881 160.92 247.961 158.92 247.961 157.26C247.961 155.58 247.791 154.38 247.451 153.66C247.131 152.94 246.571 152.58 245.771 152.58C244.691 152.58 243.501 153.23 242.201 154.53C242.181 155.05 242.171 156.27 242.171 158.19C242.171 160.09 242.261 161.78 242.441 163.26L243.551 163.35C243.591 163.79 243.611 164.1 243.611 164.28C243.611 164.44 243.581 164.69 243.521 165.03C242.961 165.01 242.141 165 241.061 165C239.981 165 239.191 165.01 238.691 165.03C238.631 164.73 238.601 164.45 238.601 164.19C238.601 163.91 238.621 163.63 238.661 163.35L239.711 163.26C239.891 161.26 239.981 159.43 239.981 157.77C239.981 156.09 239.901 154.43 239.741 152.79L238.631 152.7C238.571 152.36 238.541 152.03 238.541 151.71C238.541 151.37 238.551 151.14 238.571 151.02C239.591 151 240.831 150.91 242.291 150.75L242.441 150.9C242.401 151.14 242.341 151.74 242.261 152.7C242.881 152.08 243.601 151.59 244.421 151.23C245.241 150.85 246.011 150.66 246.731 150.66C249.091 150.66 250.271 151.94 250.271 154.5ZM262.518 158.34C261.538 158.34 260.628 158.29 259.788 158.19C259.828 161.59 260.958 163.29 263.178 163.29C264.298 163.29 265.538 162.67 266.898 161.43C267.478 162.03 267.848 162.82 268.008 163.8C266.368 164.9 264.628 165.45 262.788 165.45C260.948 165.45 259.578 164.82 258.678 163.56C257.778 162.28 257.328 160.41 257.328 157.95C257.328 155.49 257.828 153.66 258.828 152.46C259.848 151.26 261.288 150.66 263.148 150.66C264.528 150.66 265.668 151.08 266.568 151.92C267.468 152.76 267.918 153.79 267.918 155.01C267.938 156.23 267.838 157.1 267.618 157.62C266.118 158.1 264.418 158.34 262.518 158.34ZM262.938 152.34C261.078 152.34 260.038 153.71 259.818 156.45C260.718 156.55 261.708 156.6 262.788 156.6C263.868 156.6 264.708 156.5 265.308 156.3C265.388 155.8 265.428 155.43 265.428 155.19C265.428 154.31 265.198 153.62 264.738 153.12C264.298 152.6 263.698 152.34 262.938 152.34ZM285.427 158.76L285.337 152.76C284.457 152.76 283.887 152.77 283.627 152.79C283.507 152.45 283.447 152.12 283.447 151.8C283.447 151.48 283.467 151.26 283.507 151.14H285.247C285.227 150.96 285.217 150.56 285.217 149.94C285.217 146.48 286.607 144.75 289.387 144.75C290.307 144.75 291.127 144.95 291.847 145.35C292.587 145.75 292.957 146.38 292.957 147.24C292.957 148.36 292.487 148.92 291.547 148.92C291.007 148.92 290.577 148.76 290.257 148.44C289.957 148.12 289.797 147.76 289.777 147.36C289.777 146.96 289.797 146.68 289.837 146.52C289.657 146.44 289.467 146.4 289.267 146.4C288.027 146.4 287.407 147.64 287.407 150.12C287.407 150.62 287.417 150.95 287.437 151.11C288.937 151.09 290.187 151.03 291.187 150.93C291.307 151.19 291.367 151.48 291.367 151.8C291.367 152.12 291.327 152.49 291.247 152.91C290.967 152.89 289.747 152.85 287.587 152.79V155.61L287.617 157.89C287.617 160.07 287.717 161.86 287.917 163.26L288.997 163.35C289.037 163.53 289.057 163.77 289.057 164.07C289.057 164.37 289.027 164.69 288.967 165.03C288.407 165.01 287.587 165 286.507 165C285.427 165 284.637 165.01 284.137 165.03C284.077 164.73 284.047 164.45 284.047 164.19C284.047 163.91 284.067 163.63 284.107 163.35L285.127 163.26C285.327 161.32 285.427 159.82 285.427 158.76ZM296.708 157.89C296.708 153.07 298.588 150.66 302.348 150.66C306.108 150.66 307.988 153.07 307.988 157.89C307.988 160.11 307.638 161.87 306.938 163.17C306.138 164.69 304.608 165.45 302.348 165.45C300.088 165.45 298.558 164.69 297.758 163.17C297.058 161.87 296.708 160.11 296.708 157.89ZM299.168 157.83C299.168 161.47 300.228 163.29 302.348 163.29C304.468 163.29 305.528 161.47 305.528 157.83C305.528 154.17 304.468 152.34 302.348 152.34C300.228 152.34 299.168 154.17 299.168 157.83ZM314.463 163.26C314.643 161.26 314.733 159.43 314.733 157.77C314.733 156.09 314.653 154.43 314.493 152.79L313.383 152.7C313.323 152.38 313.293 152.05 313.293 151.71C313.293 151.37 313.303 151.14 313.323 151.02C314.343 151 315.583 150.91 317.043 150.75L317.193 150.9C317.173 151.02 317.113 151.61 317.013 152.67C317.473 152.09 318.003 151.61 318.603 151.23C319.223 150.85 319.823 150.66 320.403 150.66C321.003 150.66 321.523 150.87 321.963 151.29C322.403 151.71 322.623 152.26 322.623 152.94C322.623 154.06 322.153 154.62 321.213 154.62C320.673 154.62 320.243 154.45 319.923 154.11C319.603 153.75 319.443 153.28 319.443 152.7C319.403 152.68 319.333 152.67 319.233 152.67C318.493 152.67 317.733 153.23 316.953 154.35C316.933 154.91 316.923 156.17 316.923 158.13C316.923 160.07 317.013 161.78 317.193 163.26L318.303 163.35C318.343 163.79 318.363 164.1 318.363 164.28C318.363 164.44 318.333 164.69 318.273 165.03C317.713 165.01 316.893 165 315.813 165C314.733 165 313.943 165.01 313.443 165.03C313.383 164.73 313.353 164.45 313.353 164.19C313.353 163.91 313.373 163.63 313.413 163.35L314.463 163.26ZM341.677 150.66C343.077 150.66 344.187 150.99 345.007 151.65C345.847 152.31 346.267 153.17 346.267 154.23C346.267 155.27 345.797 155.79 344.857 155.79C344.297 155.79 343.857 155.62 343.537 155.28C343.237 154.92 343.087 154.5 343.087 154.02C343.087 153.54 343.167 153.14 343.327 152.82C342.847 152.44 342.277 152.25 341.617 152.25C340.957 152.25 340.407 152.41 339.967 152.73C339.547 153.05 339.337 153.52 339.337 154.14C339.337 154.76 339.577 155.3 340.057 155.76C340.557 156.22 341.157 156.6 341.857 156.9C342.557 157.18 343.257 157.48 343.957 157.8C344.657 158.1 345.247 158.54 345.727 159.12C346.227 159.68 346.477 160.38 346.477 161.22C346.477 162.52 346.037 163.55 345.157 164.31C344.297 165.07 343.117 165.45 341.617 165.45C340.117 165.45 338.887 165.13 337.927 164.49C336.987 163.85 336.517 163.01 336.517 161.97V161.85C336.517 160.77 336.987 160.23 337.927 160.23C338.487 160.23 338.917 160.41 339.217 160.77C339.537 161.11 339.697 161.51 339.697 161.97C339.697 162.43 339.647 162.79 339.547 163.05C339.947 163.31 340.577 163.44 341.437 163.44C342.317 163.44 342.977 163.29 343.417 162.99C343.877 162.69 344.107 162.28 344.107 161.76C344.107 161.22 343.857 160.74 343.357 160.32C342.877 159.9 342.287 159.55 341.587 159.27C340.887 158.97 340.187 158.66 339.487 158.34C338.787 158 338.187 157.52 337.687 156.9C337.207 156.28 336.967 155.54 336.967 154.68C336.967 153.44 337.397 152.46 338.257 151.74C339.137 151.02 340.277 150.66 341.677 150.66ZM352.097 157.89C352.097 153.07 353.977 150.66 357.737 150.66C361.497 150.66 363.377 153.07 363.377 157.89C363.377 160.11 363.027 161.87 362.327 163.17C361.527 164.69 359.997 165.45 357.737 165.45C355.477 165.45 353.947 164.69 353.147 163.17C352.447 161.87 352.097 160.11 352.097 157.89ZM354.557 157.83C354.557 161.47 355.617 163.29 357.737 163.29C359.857 163.29 360.917 161.47 360.917 157.83C360.917 154.17 359.857 152.34 357.737 152.34C355.617 152.34 354.557 154.17 354.557 157.83ZM370.722 158.76L370.632 152.76C369.752 152.76 369.182 152.77 368.922 152.79C368.802 152.45 368.742 152.12 368.742 151.8C368.742 151.48 368.762 151.26 368.802 151.14H370.542C370.522 150.96 370.512 150.56 370.512 149.94C370.512 146.48 371.902 144.75 374.682 144.75C375.602 144.75 376.422 144.95 377.142 145.35C377.882 145.75 378.252 146.38 378.252 147.24C378.252 148.36 377.782 148.92 376.842 148.92C376.302 148.92 375.872 148.76 375.552 148.44C375.252 148.12 375.092 147.76 375.072 147.36C375.072 146.96 375.092 146.68 375.132 146.52C374.952 146.44 374.762 146.4 374.562 146.4C373.322 146.4 372.702 147.64 372.702 150.12C372.702 150.62 372.712 150.95 372.732 151.11C374.232 151.09 375.482 151.03 376.482 150.93C376.602 151.19 376.662 151.48 376.662 151.8C376.662 152.12 376.622 152.49 376.542 152.91C376.262 152.89 375.042 152.85 372.882 152.79V155.61L372.912 157.89C372.912 160.07 373.012 161.86 373.212 163.26L374.292 163.35C374.332 163.53 374.352 163.77 374.352 164.07C374.352 164.37 374.322 164.69 374.262 165.03C373.702 165.01 372.882 165 371.802 165C370.722 165 369.932 165.01 369.432 165.03C369.372 164.73 369.342 164.45 369.342 164.19C369.342 163.91 369.362 163.63 369.402 163.35L370.422 163.26C370.622 161.32 370.722 159.82 370.722 158.76ZM382.903 160.14C382.903 160.14 382.923 157.91 382.963 153.45C382.963 153.15 382.953 152.92 382.933 152.76C382.093 152.76 381.493 152.77 381.133 152.79C381.013 152.47 380.953 152.16 380.953 151.86C380.953 151.54 380.973 151.3 381.013 151.14H382.843L382.693 148.92C383.193 148.76 383.713 148.68 384.253 148.68C384.813 148.68 385.273 148.72 385.633 148.8L385.363 151.11C386.463 151.09 387.573 151.03 388.693 150.93C388.813 151.19 388.873 151.48 388.873 151.8C388.873 152.1 388.833 152.47 388.753 152.91C388.013 152.87 386.843 152.83 385.243 152.79C385.203 153.19 385.183 153.78 385.183 154.56V160.65C385.183 161.17 385.203 161.6 385.243 161.94C385.303 162.26 385.433 162.56 385.633 162.84C385.853 163.1 386.163 163.23 386.563 163.23C387.443 163.23 388.283 162.92 389.083 162.3C389.503 162.9 389.713 163.71 389.713 164.73C388.613 165.21 387.653 165.45 386.833 165.45C386.033 165.45 385.393 165.34 384.913 165.12C384.433 164.92 384.063 164.68 383.803 164.4C383.543 164.1 383.343 163.69 383.203 163.17C383.003 162.43 382.903 161.42 382.903 160.14ZM401.283 152.7C401.883 152.56 402.393 152.49 402.813 152.49C403.253 152.49 403.653 152.52 404.013 152.58C404.413 155.86 404.983 158.89 405.723 161.67H405.843C406.303 160.67 406.753 159.31 407.193 157.59C407.653 155.87 407.983 154.26 408.183 152.76L406.953 152.67C406.913 152.47 406.893 152.21 406.893 151.89C406.893 151.55 406.923 151.25 406.983 150.99C407.583 151.01 408.413 151.02 409.473 151.02C410.553 151.02 411.383 151.01 411.963 150.99C412.023 151.25 412.053 151.53 412.053 151.83C412.053 152.13 412.033 152.41 411.993 152.67L410.973 152.76C408.653 158.72 407.213 162.8 406.653 165C406.133 165.14 405.663 165.21 405.243 165.21C404.843 165.21 404.573 165.2 404.433 165.18C404.213 163.62 403.553 160.75 402.453 156.57H402.333C401.193 160.01 400.373 162.82 399.873 165C399.353 165.14 398.883 165.21 398.463 165.21C398.063 165.21 397.793 165.2 397.653 165.18C397.293 163.56 396.743 161.57 396.003 159.21C395.263 156.83 394.513 154.68 393.753 152.76L392.763 152.67C392.723 152.43 392.703 152.16 392.703 151.86C392.703 151.54 392.733 151.25 392.793 150.99C393.373 151.01 394.243 151.02 395.403 151.02C396.563 151.02 397.443 151.01 398.043 150.99C398.103 151.25 398.133 151.54 398.133 151.86C398.133 152.16 398.113 152.43 398.073 152.67L396.873 152.76C397.153 155.02 397.843 157.99 398.943 161.67H399.063C399.503 160.67 399.953 159.25 400.413 157.41C400.873 155.55 401.163 153.98 401.283 152.7ZM426.828 154.65L426.708 158.97C426.708 160.33 426.788 161.66 426.948 162.96L428.058 163.05C428.098 163.37 428.118 163.67 428.118 163.95C428.118 164.21 428.088 164.49 428.028 164.79C427.448 164.81 426.318 164.91 424.638 165.09C424.498 164.71 424.388 164.24 424.308 163.68C422.748 164.86 421.398 165.45 420.258 165.45C419.138 165.45 418.258 165.09 417.618 164.37C416.998 163.63 416.688 162.59 416.688 161.25C416.688 159.89 417.108 158.82 417.948 158.04C418.808 157.26 419.878 156.87 421.158 156.87C422.458 156.87 423.568 157.11 424.488 157.59C424.508 157.37 424.518 157.01 424.518 156.51C424.518 155.03 424.308 153.97 423.888 153.33C423.488 152.67 422.868 152.34 422.028 152.34C421.188 152.34 420.578 152.5 420.198 152.82C420.358 153.14 420.438 153.54 420.438 154.02C420.438 154.5 420.278 154.92 419.958 155.28C419.658 155.62 419.228 155.79 418.668 155.79C417.728 155.79 417.258 155.24 417.258 154.14C417.258 153.02 417.678 152.16 418.518 151.56C419.358 150.96 420.538 150.66 422.058 150.66C423.578 150.66 424.748 151.02 425.568 151.74C426.408 152.44 426.828 153.41 426.828 154.65ZM424.368 159.48C423.548 158.78 422.668 158.43 421.728 158.43C419.928 158.43 419.028 159.23 419.028 160.83C419.028 162.47 419.738 163.29 421.158 163.29C421.678 163.29 422.228 163.16 422.808 162.9C423.408 162.62 423.878 162.28 424.218 161.88C424.318 160.68 424.368 159.88 424.368 159.48ZM434.498 163.26C434.678 161.26 434.768 159.43 434.768 157.77C434.768 156.09 434.688 154.43 434.528 152.79L433.418 152.7C433.358 152.38 433.328 152.05 433.328 151.71C433.328 151.37 433.338 151.14 433.358 151.02C434.378 151 435.618 150.91 437.078 150.75L437.228 150.9C437.208 151.02 437.148 151.61 437.048 152.67C437.508 152.09 438.038 151.61 438.638 151.23C439.258 150.85 439.858 150.66 440.438 150.66C441.038 150.66 441.558 150.87 441.998 151.29C442.438 151.71 442.658 152.26 442.658 152.94C442.658 154.06 442.188 154.62 441.248 154.62C440.708 154.62 440.278 154.45 439.958 154.11C439.638 153.75 439.478 153.28 439.478 152.7C439.438 152.68 439.368 152.67 439.268 152.67C438.528 152.67 437.768 153.23 436.988 154.35C436.968 154.91 436.958 156.17 436.958 158.13C436.958 160.07 437.048 161.78 437.228 163.26L438.338 163.35C438.378 163.79 438.398 164.1 438.398 164.28C438.398 164.44 438.368 164.69 438.308 165.03C437.748 165.01 436.928 165 435.848 165C434.768 165 433.978 165.01 433.478 165.03C433.418 164.73 433.388 164.45 433.388 164.19C433.388 163.91 433.408 163.63 433.448 163.35L434.498 163.26ZM452.309 158.34C451.329 158.34 450.419 158.29 449.579 158.19C449.619 161.59 450.749 163.29 452.969 163.29C454.089 163.29 455.329 162.67 456.689 161.43C457.269 162.03 457.639 162.82 457.799 163.8C456.159 164.9 454.419 165.45 452.579 165.45C450.739 165.45 449.369 164.82 448.469 163.56C447.569 162.28 447.119 160.41 447.119 157.95C447.119 155.49 447.619 153.66 448.619 152.46C449.639 151.26 451.079 150.66 452.939 150.66C454.319 150.66 455.459 151.08 456.359 151.92C457.259 152.76 457.709 153.79 457.709 155.01C457.729 156.23 457.629 157.1 457.409 157.62C455.909 158.1 454.209 158.34 452.309 158.34ZM452.729 152.34C450.869 152.34 449.829 153.71 449.609 156.45C450.509 156.55 451.499 156.6 452.579 156.6C453.659 156.6 454.499 156.5 455.099 156.3C455.179 155.8 455.219 155.43 455.219 155.19C455.219 154.31 454.989 153.62 454.529 153.12C454.089 152.6 453.489 152.34 452.729 152.34ZM482.328 151.38L482.358 149.49C482.358 148.29 482.318 147.32 482.238 146.58L481.038 146.49C480.978 146.25 480.948 145.94 480.948 145.56C480.948 145.18 480.958 144.93 480.978 144.81C482.758 144.73 484.058 144.64 484.878 144.54L484.998 144.69C484.698 147.31 484.548 150.69 484.548 154.83C484.548 158.95 484.638 161.67 484.818 162.99L485.928 163.05C485.968 163.49 485.988 163.82 485.988 164.04C485.988 164.24 485.958 164.49 485.898 164.79C485.118 164.83 484.028 164.93 482.628 165.09C482.468 164.77 482.348 164.26 482.268 163.56C480.888 164.82 479.488 165.45 478.068 165.45C476.668 165.45 475.588 164.81 474.828 163.53C474.088 162.25 473.718 160.44 473.718 158.1C473.718 155.74 474.188 153.91 475.128 152.61C476.088 151.31 477.458 150.66 479.238 150.66C480.238 150.66 481.268 150.9 482.328 151.38ZM479.268 152.43C477.268 152.43 476.268 154.42 476.268 158.4C476.268 159.9 476.488 161.07 476.928 161.91C477.388 162.73 478.018 163.14 478.818 163.14C479.358 163.14 479.948 162.97 480.588 162.63C481.248 162.29 481.818 161.86 482.298 161.34C482.338 158.86 482.358 156.18 482.358 153.3C481.078 152.72 480.048 152.43 479.268 152.43ZM496.728 158.34C495.748 158.34 494.838 158.29 493.998 158.19C494.038 161.59 495.168 163.29 497.388 163.29C498.508 163.29 499.748 162.67 501.108 161.43C501.688 162.03 502.058 162.82 502.218 163.8C500.578 164.9 498.838 165.45 496.998 165.45C495.158 165.45 493.788 164.82 492.888 163.56C491.988 162.28 491.538 160.41 491.538 157.95C491.538 155.49 492.038 153.66 493.038 152.46C494.058 151.26 495.498 150.66 497.358 150.66C498.738 150.66 499.878 151.08 500.778 151.92C501.678 152.76 502.128 153.79 502.128 155.01C502.148 156.23 502.048 157.1 501.828 157.62C500.328 158.1 498.628 158.34 496.728 158.34ZM497.148 152.34C495.288 152.34 494.248 153.71 494.028 156.45C494.928 156.55 495.918 156.6 496.998 156.6C498.078 156.6 498.918 156.5 499.518 156.3C499.598 155.8 499.638 155.43 499.638 155.19C499.638 154.31 499.408 153.62 498.948 153.12C498.508 152.6 497.908 152.34 497.148 152.34ZM515.094 152.67C515.054 152.47 515.034 152.21 515.034 151.89C515.034 151.55 515.064 151.25 515.124 150.99C515.724 151.01 516.554 151.02 517.614 151.02C518.694 151.02 519.524 151.01 520.104 150.99C520.164 151.25 520.194 151.53 520.194 151.83C520.194 152.13 520.174 152.41 520.134 152.67L519.144 152.76C516.624 158.62 515.074 162.7 514.494 165C513.974 165.14 513.504 165.21 513.084 165.21C512.684 165.21 512.414 165.2 512.274 165.18C511.134 161.14 509.584 157 507.624 152.76L506.634 152.67C506.594 152.43 506.574 152.16 506.574 151.86C506.574 151.54 506.604 151.25 506.664 150.99C507.244 151.01 508.104 151.02 509.244 151.02C510.404 151.02 511.284 151.01 511.884 150.99C511.944 151.25 511.974 151.54 511.974 151.86C511.974 152.16 511.954 152.43 511.914 152.67L510.684 152.76C511.084 155.34 512.004 158.31 513.444 161.67H513.564C514.084 160.67 514.614 159.31 515.154 157.59C515.694 155.85 516.094 154.24 516.354 152.76L515.094 152.67ZM529.887 158.34C528.907 158.34 527.997 158.29 527.157 158.19C527.197 161.59 528.327 163.29 530.547 163.29C531.667 163.29 532.907 162.67 534.267 161.43C534.847 162.03 535.217 162.82 535.377 163.8C533.737 164.9 531.997 165.45 530.157 165.45C528.317 165.45 526.947 164.82 526.047 163.56C525.147 162.28 524.697 160.41 524.697 157.95C524.697 155.49 525.197 153.66 526.197 152.46C527.217 151.26 528.657 150.66 530.517 150.66C531.897 150.66 533.037 151.08 533.937 151.92C534.837 152.76 535.287 153.79 535.287 155.01C535.307 156.23 535.207 157.1 534.987 157.62C533.487 158.1 531.787 158.34 529.887 158.34ZM530.307 152.34C528.447 152.34 527.407 153.71 527.187 156.45C528.087 156.55 529.077 156.6 530.157 156.6C531.237 156.6 532.077 156.5 532.677 156.3C532.757 155.8 532.797 155.43 532.797 155.19C532.797 154.31 532.567 153.62 532.107 153.12C531.667 152.6 531.067 152.34 530.307 152.34ZM542.672 158.04V153.93C542.672 150.33 542.622 147.88 542.522 146.58L541.322 146.49C541.262 146.23 541.232 145.93 541.232 145.59C541.232 145.23 541.242 144.97 541.262 144.81C543.082 144.71 544.382 144.62 545.162 144.54L545.282 144.69C545.002 147.07 544.862 149.63 544.862 152.37V157.32C544.862 159.78 544.952 161.76 545.132 163.26L546.242 163.35C546.282 163.67 546.302 163.95 546.302 164.19C546.302 164.41 546.272 164.69 546.212 165.03C545.512 165.01 544.702 165 543.782 165C542.862 165 542.062 165.01 541.382 165.03C541.322 164.73 541.292 164.47 541.292 164.25C541.292 164.01 541.312 163.71 541.352 163.35L542.402 163.26C542.582 161.38 542.672 159.64 542.672 158.04ZM551.79 157.89C551.79 153.07 553.67 150.66 557.43 150.66C561.19 150.66 563.07 153.07 563.07 157.89C563.07 160.11 562.72 161.87 562.02 163.17C561.22 164.69 559.69 165.45 557.43 165.45C555.17 165.45 553.64 164.69 552.84 163.17C552.14 161.87 551.79 160.11 551.79 157.89ZM554.25 157.83C554.25 161.47 555.31 163.29 557.43 163.29C559.55 163.29 560.61 161.47 560.61 157.83C560.61 154.17 559.55 152.34 557.43 152.34C555.31 152.34 554.25 154.17 554.25 157.83ZM576.505 150.66C579.325 150.66 580.735 153.06 580.735 157.86C580.735 159.7 580.375 161.37 579.655 162.87C579.255 163.67 578.655 164.3 577.855 164.76C577.055 165.22 576.165 165.45 575.185 165.45C574.205 165.45 573.185 165.21 572.125 164.73C572.225 167.23 572.315 168.83 572.395 169.53L573.505 169.62L573.565 170.4C573.565 170.8 573.535 171.1 573.475 171.3C572.995 171.28 572.165 171.27 570.985 171.27C569.825 171.27 569.045 171.28 568.645 171.3C568.585 170.96 568.555 170.66 568.555 170.4C568.555 170.14 568.575 169.88 568.615 169.62L569.725 169.53C569.885 167.35 569.965 164.44 569.965 160.8C569.965 157.14 569.885 154.47 569.725 152.79L568.615 152.7C568.555 152.52 568.525 152.24 568.525 151.86C568.525 151.46 568.535 151.18 568.555 151.02C569.475 151 570.705 150.91 572.245 150.75L572.395 150.9C572.315 151.48 572.265 152.05 572.245 152.61C573.625 151.31 575.045 150.66 576.505 150.66ZM574.915 163.29C577.095 163.29 578.185 161.35 578.185 157.47C578.185 155.11 577.795 153.62 577.015 153C576.655 152.72 576.185 152.58 575.605 152.58C575.025 152.58 574.415 152.77 573.775 153.15C573.135 153.53 572.595 153.99 572.155 154.53C572.115 156.19 572.095 158.88 572.095 162.6C573.255 163.06 574.195 163.29 574.915 163.29ZM591.779 158.34C590.799 158.34 589.889 158.29 589.049 158.19C589.089 161.59 590.219 163.29 592.439 163.29C593.559 163.29 594.799 162.67 596.159 161.43C596.739 162.03 597.109 162.82 597.269 163.8C595.629 164.9 593.889 165.45 592.049 165.45C590.209 165.45 588.839 164.82 587.939 163.56C587.039 162.28 586.589 160.41 586.589 157.95C586.589 155.49 587.089 153.66 588.089 152.46C589.109 151.26 590.549 150.66 592.409 150.66C593.789 150.66 594.929 151.08 595.829 151.92C596.729 152.76 597.179 153.79 597.179 155.01C597.199 156.23 597.099 157.1 596.879 157.62C595.379 158.1 593.679 158.34 591.779 158.34ZM592.199 152.34C590.339 152.34 589.299 153.71 589.079 156.45C589.979 156.55 590.969 156.6 592.049 156.6C593.129 156.6 593.969 156.5 594.569 156.3C594.649 155.8 594.689 155.43 594.689 155.19C594.689 154.31 594.459 153.62 593.999 153.12C593.559 152.6 592.959 152.34 592.199 152.34ZM603.904 163.26C604.084 161.26 604.174 159.43 604.174 157.77C604.174 156.09 604.094 154.43 603.934 152.79L602.824 152.7C602.764 152.38 602.734 152.05 602.734 151.71C602.734 151.37 602.744 151.14 602.764 151.02C603.784 151 605.024 150.91 606.484 150.75L606.634 150.9C606.614 151.02 606.554 151.61 606.454 152.67C606.914 152.09 607.444 151.61 608.044 151.23C608.664 150.85 609.264 150.66 609.844 150.66C610.444 150.66 610.964 150.87 611.404 151.29C611.844 151.71 612.064 152.26 612.064 152.94C612.064 154.06 611.594 154.62 610.654 154.62C610.114 154.62 609.684 154.45 609.364 154.11C609.044 153.75 608.884 153.28 608.884 152.7C608.844 152.68 608.774 152.67 608.674 152.67C607.934 152.67 607.174 153.23 606.394 154.35C606.374 154.91 606.364 156.17 606.364 158.13C606.364 160.07 606.454 161.78 606.634 163.26L607.744 163.35C607.784 163.79 607.804 164.1 607.804 164.28C607.804 164.44 607.774 164.69 607.714 165.03C607.154 165.01 606.334 165 605.254 165C604.174 165 603.384 165.01 602.884 165.03C602.824 164.73 602.794 164.45 602.794 164.19C602.794 163.91 602.814 163.63 602.854 163.35L603.904 163.26ZM630.339 157.32L630.429 165.39C630.429 169.33 629.079 171.3 626.379 171.3C625.219 171.3 624.189 170.98 623.289 170.34C623.289 169.2 623.619 168.37 624.279 167.85C624.499 168.17 624.819 168.45 625.239 168.69C625.659 168.95 626.069 169.08 626.469 169.08C627.589 169.08 628.149 167.68 628.149 164.88V157.92C628.149 156.26 628.069 154.55 627.909 152.79L626.799 152.7C626.739 152.36 626.709 152.04 626.709 151.74C626.709 151.42 626.719 151.18 626.739 151.02C627.899 150.98 629.139 150.89 630.459 150.75L630.609 150.9C630.429 152.08 630.339 154.22 630.339 157.32ZM630.909 146.61C630.909 147.85 630.269 148.47 628.989 148.47C627.989 148.47 627.489 147.96 627.489 146.94C627.489 145.68 628.129 145.05 629.409 145.05C630.409 145.05 630.909 145.57 630.909 146.61ZM637.056 157.89C637.056 153.07 638.936 150.66 642.696 150.66C646.456 150.66 648.336 153.07 648.336 157.89C648.336 160.11 647.986 161.87 647.286 163.17C646.486 164.69 644.956 165.45 642.696 165.45C640.436 165.45 638.906 164.69 638.106 163.17C637.406 161.87 637.056 160.11 637.056 157.89ZM639.516 157.83C639.516 161.47 640.576 163.29 642.696 163.29C644.816 163.29 645.876 161.47 645.876 157.83C645.876 154.17 644.816 152.34 642.696 152.34C640.576 152.34 639.516 154.17 639.516 157.83ZM663.061 156.87C663.061 154.01 662.211 152.58 660.511 152.58C659.291 152.58 658.131 153.23 657.031 154.53V162.6C657.951 163.06 658.921 163.29 659.941 163.29C662.021 163.29 663.061 161.15 663.061 156.87ZM657.031 152.7C658.431 151.34 659.841 150.66 661.261 150.66C662.681 150.66 663.761 151.24 664.501 152.4C665.241 153.56 665.611 155.18 665.611 157.26C665.611 160.08 665.121 162.15 664.141 163.47C663.181 164.79 661.661 165.45 659.581 165.45C658.281 165.45 656.551 165.19 654.391 164.67C654.711 162.71 654.871 159.53 654.871 155.13C654.871 150.73 654.821 147.88 654.721 146.58L653.521 146.49C653.461 146.25 653.431 145.94 653.431 145.56C653.431 145.18 653.441 144.93 653.461 144.81C655.241 144.73 656.541 144.64 657.361 144.54L657.481 144.69C657.201 147.09 657.051 149.76 657.031 152.7ZM676.154 150.66C677.554 150.66 678.664 150.99 679.484 151.65C680.324 152.31 680.744 153.17 680.744 154.23C680.744 155.27 680.274 155.79 679.334 155.79C678.774 155.79 678.334 155.62 678.014 155.28C677.714 154.92 677.564 154.5 677.564 154.02C677.564 153.54 677.644 153.14 677.804 152.82C677.324 152.44 676.754 152.25 676.094 152.25C675.434 152.25 674.884 152.41 674.444 152.73C674.024 153.05 673.814 153.52 673.814 154.14C673.814 154.76 674.054 155.3 674.534 155.76C675.034 156.22 675.634 156.6 676.334 156.9C677.034 157.18 677.734 157.48 678.434 157.8C679.134 158.1 679.724 158.54 680.204 159.12C680.704 159.68 680.954 160.38 680.954 161.22C680.954 162.52 680.514 163.55 679.634 164.31C678.774 165.07 677.594 165.45 676.094 165.45C674.594 165.45 673.364 165.13 672.404 164.49C671.464 163.85 670.994 163.01 670.994 161.97V161.85C670.994 160.77 671.464 160.23 672.404 160.23C672.964 160.23 673.394 160.41 673.694 160.77C674.014 161.11 674.174 161.51 674.174 161.97C674.174 162.43 674.124 162.79 674.024 163.05C674.424 163.31 675.054 163.44 675.914 163.44C676.794 163.44 677.454 163.29 677.894 162.99C678.354 162.69 678.584 162.28 678.584 161.76C678.584 161.22 678.334 160.74 677.834 160.32C677.354 159.9 676.764 159.55 676.064 159.27C675.364 158.97 674.664 158.66 673.964 158.34C673.264 158 672.664 157.52 672.164 156.9C671.684 156.28 671.444 155.54 671.444 154.68C671.444 153.44 671.874 152.46 672.734 151.74C673.614 151.02 674.754 150.66 676.154 150.66ZM691.824 163.35C691.824 163.95 691.644 164.45 691.284 164.85C690.924 165.25 690.374 165.45 689.634 165.45C688.494 165.45 687.924 164.87 687.924 163.71C687.924 162.27 688.654 161.55 690.114 161.55C691.254 161.55 691.824 162.15 691.824 163.35Z" fill="#393939"/>
</g>
<defs>
<clipPath id="clip0">
<rect width="693" height="175" fill="white"/>
</clipPath>
</defs>
</svg>
