<svg width="693" height="170" viewBox="0 0 693 170" fill="none" xmlns="http://www.w3.org/2000/svg">
<g clip-path="url(#clip0)">
<path d="M47.3594 88.3125L63.1406 82.6875C63.7656 89.4583 67.4635 94.1458 74.2344 96.75C75.4844 97.1667 76.1094 97.375 76.1094 97.375V113.469C67.151 113.469 59.5469 109.615 53.2969 101.906C49.4427 97.0104 47.4635 92.4792 47.3594 88.3125ZM48.6094 33.3125C48.6094 21.9583 53.5052 13.4167 63.2969 7.6875C67.8802 5.08333 72.151 3.72917 76.1094 3.625V20.0312C72.8802 20.5521 70.0677 22.4271 67.6719 25.6562C66.1094 27.9479 65.3281 30.3958 65.3281 33C65.3281 38.4167 69.2344 42.7396 77.0469 45.9688C78.9219 46.6979 81.8385 47.6875 85.7969 48.9375C90.7969 50.5 94.2865 51.75 96.2656 52.6875C105.328 57.1667 111.214 62.4792 113.922 68.625C115.484 72.2708 116.266 76.2812 116.266 80.6562C116.266 89.8229 112.724 97.7917 105.641 104.562C99.2865 110.5 92.151 113.469 84.2344 113.469V97.375C88.1927 97.1667 91.7344 95.2917 94.8594 91.75C97.4635 88.625 98.7656 85.0312 98.7656 80.9688C98.7656 74.6146 94.3385 69.8229 85.4844 66.5938C83.6094 65.8646 80.6927 64.9271 76.7344 63.7812C72.3594 62.5312 69.3906 61.5417 67.8281 60.8125C59.0781 56.9583 53.4531 52.0104 50.9531 45.9688C49.3906 42.3229 48.6094 38.1042 48.6094 33.3125ZM84.2344 20.0312V3.625C93.1927 3.625 100.693 7.47917 106.734 15.1875C109.964 19.3542 111.682 23.1562 111.891 26.5938L95.7969 31.9062C95.3802 28.7812 94.1823 26.2292 92.2031 24.25C90.3281 22.2708 88.5573 21.0729 86.8906 20.6562L84.2344 20.0312ZM133.797 89.4062V49.875C133.797 44.7708 136.089 39.8229 140.672 35.0312C146.089 29.3021 152.911 26.4375 161.141 26.4375V42.5312C155.724 42.5312 152.234 44.7708 150.672 49.25C150.359 50.1875 150.203 51.125 150.203 52.0625V87.2188C150.203 91.1771 152.026 94.0417 155.672 95.8125C157.339 96.6458 159.214 97.0625 161.297 97.0625V113.156C151.193 113.156 143.38 109.094 137.859 100.969C135.151 96.9062 133.797 93.0521 133.797 89.4062ZM168.172 113.156V97.0625C173.172 97.0625 176.453 94.9271 178.016 90.6562C178.432 89.5104 178.641 88.4688 178.641 87.5312V52.0625C178.641 47.6875 176.609 44.7708 172.547 43.3125C171.193 42.7917 169.682 42.5312 168.016 42.5312V26.4375C177.807 26.4375 185.359 30.3958 190.672 38.3125C193.38 42.375 194.734 46.2292 194.734 49.875V89.4062C194.734 94.5104 192.547 99.5104 188.172 104.406C182.859 110.135 176.193 113.052 168.172 113.156ZM211.641 50.0312V33.7812H222.266V26.125C222.266 20.9167 224.193 15.8646 228.047 10.9688C232.839 5.03125 238.984 2.01042 246.484 1.90625H254.453L250.703 18H246.484C242.005 18.9375 239.505 21.6458 238.984 26.125V33.7812H249.922V50.0312H238.984V113H222.266V50.0312H211.641ZM265.734 43V26.9062H276.359V1.90625H292.922V26.9062H303.234V43.1562H292.922L293.078 86.4375C293.286 92.6875 296.411 95.8646 302.453 95.9688H305.734L309.484 113H302.141C288.911 113 280.839 107.948 277.922 97.8438C276.88 94.1979 276.359 89.875 276.359 84.875V43H265.734ZM319.828 26.4375L347.328 113H356.703L362.016 96.2812L338.422 26.4375H319.828ZM355.453 58.4688L364.047 83.4688H366.078L374.984 55.5L393.266 113H402.641L407.953 96.2812L384.359 26.4375H365.766L355.453 58.4688ZM401.547 58.4688L409.984 83.4688H412.016L430.297 26.4375H411.703L401.547 58.4688ZM445.484 89.4062V49.875C445.484 44.7708 447.776 39.8229 452.359 35.0312C457.776 29.3021 464.599 26.4375 472.828 26.4375V42.5312C467.411 42.5312 463.922 44.7708 462.359 49.25C462.047 50.1875 461.891 51.125 461.891 52.0625V87.2188C461.891 91.1771 463.714 94.0417 467.359 95.8125C469.026 96.6458 470.901 97.0625 472.984 97.0625V113.156C462.88 113.156 455.068 109.094 449.547 100.969C446.839 96.9062 445.484 93.0521 445.484 89.4062ZM479.859 113.156V97.0625C484.859 97.0625 488.141 94.9271 489.703 90.6562C490.12 89.5104 490.328 88.4688 490.328 87.5312V52.0625C490.328 47.6875 488.297 44.7708 484.234 43.3125C482.88 42.7917 481.37 42.5312 479.703 42.5312V26.4375C489.495 26.4375 497.047 30.3958 502.359 38.3125C505.068 42.375 506.422 46.2292 506.422 49.875V89.4062C506.422 94.5104 504.234 99.5104 499.859 104.406C494.547 110.135 487.88 113.052 479.859 113.156ZM526.922 113V26.4375H543.797V37.2188C546.714 32.6354 551.089 29.3542 556.922 27.375C559.63 26.4375 562.286 25.9688 564.891 25.9688H568.953L565.047 42.375C558.901 42.4792 553.536 45.4479 548.953 51.2812C545.516 55.7604 543.797 60.3958 543.797 65.1875V113H526.922ZM585.391 113V1.90625H602.578V113H585.391ZM606.797 69.4062L632.891 26.4375H651.953L625.391 69.4062L652.109 113H633.203L606.797 69.4062Z" fill="#393939"/>
<path d="M138.882 150.5C138.262 150.5 137.782 150.31 137.442 149.93C137.102 149.55 136.932 149.06 136.932 148.46C136.932 147.84 137.062 147.36 137.322 147.02C136.682 146.42 135.802 146.12 134.682 146.12C133.042 146.12 131.802 146.81 130.962 148.19C130.122 149.55 129.702 151.56 129.702 154.22C129.702 159.56 131.362 162.23 134.682 162.23C135.482 162.23 136.292 162.04 137.112 161.66C137.952 161.26 138.662 160.74 139.242 160.1C139.862 160.6 140.262 161.39 140.442 162.47C138.662 163.79 136.742 164.45 134.682 164.45C132.062 164.45 130.162 163.64 128.982 162.02C127.822 160.4 127.242 157.88 127.242 154.46C127.242 147.72 129.722 144.35 134.682 144.35C136.182 144.35 137.512 144.75 138.672 145.55C139.852 146.33 140.442 147.35 140.442 148.61C140.442 149.87 139.922 150.5 138.882 150.5ZM146.806 162.26C146.986 160.26 147.076 158.43 147.076 156.77C147.076 155.09 146.996 153.43 146.836 151.79L145.726 151.7C145.666 151.38 145.636 151.05 145.636 150.71C145.636 150.37 145.646 150.14 145.666 150.02C146.686 150 147.926 149.91 149.386 149.75L149.536 149.9C149.516 150.02 149.456 150.61 149.356 151.67C149.816 151.09 150.346 150.61 150.946 150.23C151.566 149.85 152.166 149.66 152.746 149.66C153.346 149.66 153.866 149.87 154.306 150.29C154.746 150.71 154.966 151.26 154.966 151.94C154.966 153.06 154.496 153.62 153.556 153.62C153.016 153.62 152.586 153.45 152.266 153.11C151.946 152.75 151.786 152.28 151.786 151.7C151.746 151.68 151.676 151.67 151.576 151.67C150.836 151.67 150.076 152.23 149.296 153.35C149.276 153.91 149.266 155.17 149.266 157.13C149.266 159.07 149.356 160.78 149.536 162.26L150.646 162.35C150.686 162.79 150.706 163.1 150.706 163.28C150.706 163.44 150.676 163.69 150.616 164.03C150.056 164.01 149.236 164 148.156 164C147.076 164 146.286 164.01 145.786 164.03C145.726 163.73 145.696 163.45 145.696 163.19C145.696 162.91 145.716 162.63 145.756 162.35L146.806 162.26ZM164.616 157.34C163.636 157.34 162.726 157.29 161.886 157.19C161.926 160.59 163.056 162.29 165.276 162.29C166.396 162.29 167.636 161.67 168.996 160.43C169.576 161.03 169.946 161.82 170.106 162.8C168.466 163.9 166.726 164.45 164.886 164.45C163.046 164.45 161.676 163.82 160.776 162.56C159.876 161.28 159.426 159.41 159.426 156.95C159.426 154.49 159.926 152.66 160.926 151.46C161.946 150.26 163.386 149.66 165.246 149.66C166.626 149.66 167.766 150.08 168.666 150.92C169.566 151.76 170.016 152.79 170.016 154.01C170.036 155.23 169.936 156.1 169.716 156.62C168.216 157.1 166.516 157.34 164.616 157.34ZM165.036 151.34C163.176 151.34 162.136 152.71 161.916 155.45C162.816 155.55 163.806 155.6 164.886 155.6C165.966 155.6 166.806 155.5 167.406 155.3C167.486 154.8 167.526 154.43 167.526 154.19C167.526 153.31 167.296 152.62 166.836 152.12C166.396 151.6 165.796 151.34 165.036 151.34ZM186.251 153.65L186.131 157.97C186.131 159.33 186.211 160.66 186.371 161.96L187.481 162.05C187.521 162.37 187.541 162.67 187.541 162.95C187.541 163.21 187.511 163.49 187.451 163.79C186.871 163.81 185.741 163.91 184.061 164.09C183.921 163.71 183.811 163.24 183.731 162.68C182.171 163.86 180.821 164.45 179.681 164.45C178.561 164.45 177.681 164.09 177.041 163.37C176.421 162.63 176.111 161.59 176.111 160.25C176.111 158.89 176.531 157.82 177.371 157.04C178.231 156.26 179.301 155.87 180.581 155.87C181.881 155.87 182.991 156.11 183.911 156.59C183.931 156.37 183.941 156.01 183.941 155.51C183.941 154.03 183.731 152.97 183.311 152.33C182.911 151.67 182.291 151.34 181.451 151.34C180.611 151.34 180.001 151.5 179.621 151.82C179.781 152.14 179.861 152.54 179.861 153.02C179.861 153.5 179.701 153.92 179.381 154.28C179.081 154.62 178.651 154.79 178.091 154.79C177.151 154.79 176.681 154.24 176.681 153.14C176.681 152.02 177.101 151.16 177.941 150.56C178.781 149.96 179.961 149.66 181.481 149.66C183.001 149.66 184.171 150.02 184.991 150.74C185.831 151.44 186.251 152.41 186.251 153.65ZM183.791 158.48C182.971 157.78 182.091 157.43 181.151 157.43C179.351 157.43 178.451 158.23 178.451 159.83C178.451 161.47 179.161 162.29 180.581 162.29C181.101 162.29 181.651 162.16 182.231 161.9C182.831 161.62 183.301 161.28 183.641 160.88C183.741 159.68 183.791 158.88 183.791 158.48ZM194.041 159.14C194.041 159.14 194.061 156.91 194.101 152.45C194.101 152.15 194.091 151.92 194.071 151.76C193.231 151.76 192.631 151.77 192.271 151.79C192.151 151.47 192.091 151.16 192.091 150.86C192.091 150.54 192.111 150.3 192.151 150.14H193.981L193.831 147.92C194.331 147.76 194.851 147.68 195.391 147.68C195.951 147.68 196.411 147.72 196.771 147.8L196.501 150.11C197.601 150.09 198.711 150.03 199.831 149.93C199.951 150.19 200.011 150.48 200.011 150.8C200.011 151.1 199.971 151.47 199.891 151.91C199.151 151.87 197.981 151.83 196.381 151.79C196.341 152.19 196.321 152.78 196.321 153.56V159.65C196.321 160.17 196.341 160.6 196.381 160.94C196.441 161.26 196.571 161.56 196.771 161.84C196.991 162.1 197.301 162.23 197.701 162.23C198.581 162.23 199.421 161.92 200.221 161.3C200.641 161.9 200.851 162.71 200.851 163.73C199.751 164.21 198.791 164.45 197.971 164.45C197.171 164.45 196.531 164.34 196.051 164.12C195.571 163.92 195.201 163.68 194.941 163.4C194.681 163.1 194.481 162.69 194.341 162.17C194.141 161.43 194.041 160.42 194.041 159.14ZM210.53 157.34C209.55 157.34 208.64 157.29 207.8 157.19C207.84 160.59 208.97 162.29 211.19 162.29C212.31 162.29 213.55 161.67 214.91 160.43C215.49 161.03 215.86 161.82 216.02 162.8C214.38 163.9 212.64 164.45 210.8 164.45C208.96 164.45 207.59 163.82 206.69 162.56C205.79 161.28 205.34 159.41 205.34 156.95C205.34 154.49 205.84 152.66 206.84 151.46C207.86 150.26 209.3 149.66 211.16 149.66C212.54 149.66 213.68 150.08 214.58 150.92C215.48 151.76 215.93 152.79 215.93 154.01C215.95 155.23 215.85 156.1 215.63 156.62C214.13 157.1 212.43 157.34 210.53 157.34ZM210.95 151.34C209.09 151.34 208.05 152.71 207.83 155.45C208.73 155.55 209.72 155.6 210.8 155.6C211.88 155.6 212.72 155.5 213.32 155.3C213.4 154.8 213.44 154.43 213.44 154.19C213.44 153.31 213.21 152.62 212.75 152.12C212.31 151.6 211.71 151.34 210.95 151.34ZM238.359 151.67C238.319 151.47 238.299 151.21 238.299 150.89C238.299 150.55 238.329 150.25 238.389 149.99C238.989 150.01 239.819 150.02 240.879 150.02C241.959 150.02 242.789 150.01 243.369 149.99C243.429 150.25 243.459 150.53 243.459 150.83C243.459 151.13 243.439 151.41 243.399 151.67L242.499 151.76C241.959 153.22 241.259 155.23 240.399 157.79C239.559 160.35 238.919 162.23 238.479 163.43C238.059 164.63 237.659 165.6 237.279 166.34C236.919 167.08 236.519 167.78 236.079 168.44C235.239 169.68 234.239 170.3 233.079 170.3C231.939 170.3 230.889 169.98 229.929 169.34C230.009 168.18 230.339 167.35 230.919 166.85C231.519 167.67 232.249 168.08 233.109 168.08C234.029 168.08 235.049 166.78 236.169 164.18C235.149 160.6 233.539 156.46 231.339 151.76L230.349 151.67C230.309 151.43 230.289 151.16 230.289 150.86C230.289 150.54 230.319 150.25 230.379 149.99C230.959 150.01 231.819 150.02 232.959 150.02C234.119 150.02 234.999 150.01 235.599 149.99C235.659 150.25 235.689 150.54 235.689 150.86C235.689 151.16 235.669 151.43 235.629 151.67L234.399 151.76C234.779 153.98 235.759 156.95 237.339 160.67H237.459C238.459 157.43 239.179 154.46 239.619 151.76L238.359 151.67ZM247.973 156.89C247.973 152.07 249.853 149.66 253.613 149.66C257.373 149.66 259.253 152.07 259.253 156.89C259.253 159.11 258.903 160.87 258.203 162.17C257.403 163.69 255.873 164.45 253.613 164.45C251.353 164.45 249.823 163.69 249.023 162.17C248.323 160.87 247.973 159.11 247.973 156.89ZM250.433 156.83C250.433 160.47 251.493 162.29 253.613 162.29C255.733 162.29 256.793 160.47 256.793 156.83C256.793 153.17 255.733 151.34 253.613 151.34C251.493 151.34 250.433 153.17 250.433 156.83ZM266.058 160.13L266.088 156.92C266.088 155.14 266.008 153.43 265.848 151.79L264.738 151.7C264.678 151.38 264.648 151.05 264.648 150.71C264.648 150.37 264.658 150.14 264.678 150.02C265.698 150 266.938 149.91 268.398 149.75L268.548 149.9C268.368 151.08 268.278 153.19 268.278 156.23V157.64C268.278 159.32 268.428 160.52 268.728 161.24C269.048 161.94 269.578 162.29 270.318 162.29C271.358 162.29 272.488 161.68 273.708 160.46C273.748 160 273.768 159.11 273.768 157.79V156.92C273.768 155.14 273.688 153.43 273.528 151.79L272.418 151.7C272.358 151.36 272.328 151.03 272.328 150.71C272.328 150.37 272.338 150.14 272.358 150.02C273.378 150 274.618 149.91 276.078 149.75L276.228 149.9C276.048 151.08 275.958 153.19 275.958 156.23V157.19C275.958 158.83 276.048 160.43 276.228 161.99L277.338 162.05C277.378 162.49 277.398 162.82 277.398 163.04C277.398 163.24 277.368 163.49 277.308 163.79C276.528 163.83 275.438 163.93 274.038 164.09C273.878 163.73 273.758 163.23 273.678 162.59C272.178 163.83 270.798 164.45 269.538 164.45C268.278 164.45 267.378 164.1 266.838 163.4C266.318 162.7 266.058 161.61 266.058 160.13ZM283.786 162.26C283.966 160.26 284.056 158.43 284.056 156.77C284.056 155.09 283.976 153.43 283.816 151.79L282.706 151.7C282.646 151.38 282.616 151.05 282.616 150.71C282.616 150.37 282.626 150.14 282.646 150.02C283.666 150 284.906 149.91 286.366 149.75L286.516 149.9C286.496 150.02 286.436 150.61 286.336 151.67C286.796 151.09 287.326 150.61 287.926 150.23C288.546 149.85 289.146 149.66 289.726 149.66C290.326 149.66 290.846 149.87 291.286 150.29C291.726 150.71 291.946 151.26 291.946 151.94C291.946 153.06 291.476 153.62 290.536 153.62C289.996 153.62 289.566 153.45 289.246 153.11C288.926 152.75 288.766 152.28 288.766 151.7C288.726 151.68 288.656 151.67 288.556 151.67C287.816 151.67 287.056 152.23 286.276 153.35C286.256 153.91 286.246 155.17 286.246 157.13C286.246 159.07 286.336 160.78 286.516 162.26L287.626 162.35C287.666 162.79 287.686 163.1 287.686 163.28C287.686 163.44 287.656 163.69 287.596 164.03C287.036 164.01 286.216 164 285.136 164C284.056 164 283.266 164.01 282.766 164.03C282.706 163.73 282.676 163.45 282.676 163.19C282.676 162.91 282.696 162.63 282.736 162.35L283.786 162.26ZM318.261 153.5L318.231 156.41C318.231 158.51 318.351 160.46 318.591 162.26L319.641 162.35C319.681 162.79 319.701 163.1 319.701 163.28C319.701 163.44 319.671 163.69 319.611 164.03C319.051 164.01 318.211 164 317.091 164C315.971 164 315.171 164.01 314.691 164.03C314.631 163.73 314.601 163.45 314.601 163.19C314.601 162.91 314.621 162.63 314.661 162.35L315.711 162.26C315.871 159.92 315.951 157.92 315.951 156.26C315.951 154.58 315.781 153.38 315.441 152.66C315.121 151.94 314.561 151.58 313.761 151.58C312.681 151.58 311.491 152.23 310.191 153.53C310.171 154.05 310.161 155.27 310.161 157.19C310.161 159.09 310.251 160.78 310.431 162.26L311.541 162.35C311.581 162.79 311.601 163.1 311.601 163.28C311.601 163.44 311.571 163.69 311.511 164.03C310.951 164.01 310.131 164 309.051 164C307.971 164 307.181 164.01 306.681 164.03C306.621 163.73 306.591 163.45 306.591 163.19C306.591 162.91 306.611 162.63 306.651 162.35L307.701 162.26C307.881 160.26 307.971 158.43 307.971 156.77C307.971 155.09 307.891 153.43 307.731 151.79L306.621 151.7C306.561 151.36 306.531 151.03 306.531 150.71C306.531 150.37 306.541 150.14 306.561 150.02C307.581 150 308.821 149.91 310.281 149.75L310.431 149.9C310.391 150.14 310.331 150.74 310.251 151.7C310.871 151.08 311.591 150.59 312.411 150.23C313.231 149.85 314.001 149.66 314.721 149.66C317.081 149.66 318.261 150.94 318.261 153.5ZM330.507 157.34C329.527 157.34 328.617 157.29 327.777 157.19C327.817 160.59 328.947 162.29 331.167 162.29C332.287 162.29 333.527 161.67 334.887 160.43C335.467 161.03 335.837 161.82 335.997 162.8C334.357 163.9 332.617 164.45 330.777 164.45C328.937 164.45 327.567 163.82 326.667 162.56C325.767 161.28 325.317 159.41 325.317 156.95C325.317 154.49 325.817 152.66 326.817 151.46C327.837 150.26 329.277 149.66 331.137 149.66C332.517 149.66 333.657 150.08 334.557 150.92C335.457 151.76 335.907 152.79 335.907 154.01C335.927 155.23 335.827 156.1 335.607 156.62C334.107 157.1 332.407 157.34 330.507 157.34ZM330.927 151.34C329.067 151.34 328.027 152.71 327.807 155.45C328.707 155.55 329.697 155.6 330.777 155.6C331.857 155.6 332.697 155.5 333.297 155.3C333.377 154.8 333.417 154.43 333.417 154.19C333.417 153.31 333.187 152.62 332.727 152.12C332.287 151.6 331.687 151.34 330.927 151.34ZM348.932 151.7C349.532 151.56 350.042 151.49 350.462 151.49C350.902 151.49 351.302 151.52 351.662 151.58C352.062 154.86 352.632 157.89 353.372 160.67H353.492C353.952 159.67 354.402 158.31 354.842 156.59C355.302 154.87 355.632 153.26 355.832 151.76L354.602 151.67C354.562 151.47 354.542 151.21 354.542 150.89C354.542 150.55 354.572 150.25 354.632 149.99C355.232 150.01 356.062 150.02 357.122 150.02C358.202 150.02 359.032 150.01 359.612 149.99C359.672 150.25 359.702 150.53 359.702 150.83C359.702 151.13 359.682 151.41 359.642 151.67L358.622 151.76C356.302 157.72 354.862 161.8 354.302 164C353.782 164.14 353.312 164.21 352.892 164.21C352.492 164.21 352.222 164.2 352.082 164.18C351.862 162.62 351.202 159.75 350.102 155.57H349.982C348.842 159.01 348.022 161.82 347.522 164C347.002 164.14 346.532 164.21 346.112 164.21C345.712 164.21 345.442 164.2 345.302 164.18C344.942 162.56 344.392 160.57 343.652 158.21C342.912 155.83 342.162 153.68 341.402 151.76L340.412 151.67C340.372 151.43 340.352 151.16 340.352 150.86C340.352 150.54 340.382 150.25 340.442 149.99C341.022 150.01 341.892 150.02 343.052 150.02C344.212 150.02 345.092 150.01 345.692 149.99C345.752 150.25 345.782 150.54 345.782 150.86C345.782 151.16 345.762 151.43 345.722 151.67L344.522 151.76C344.802 154.02 345.492 156.99 346.592 160.67H346.712C347.152 159.67 347.602 158.25 348.062 156.41C348.522 154.55 348.812 152.98 348.932 151.7ZM384.392 153.65L384.272 157.97C384.272 159.33 384.352 160.66 384.512 161.96L385.622 162.05C385.662 162.37 385.682 162.67 385.682 162.95C385.682 163.21 385.652 163.49 385.592 163.79C385.012 163.81 383.882 163.91 382.202 164.09C382.062 163.71 381.952 163.24 381.872 162.68C380.312 163.86 378.962 164.45 377.822 164.45C376.702 164.45 375.822 164.09 375.182 163.37C374.562 162.63 374.252 161.59 374.252 160.25C374.252 158.89 374.672 157.82 375.512 157.04C376.372 156.26 377.442 155.87 378.722 155.87C380.022 155.87 381.132 156.11 382.052 156.59C382.072 156.37 382.082 156.01 382.082 155.51C382.082 154.03 381.872 152.97 381.452 152.33C381.052 151.67 380.432 151.34 379.592 151.34C378.752 151.34 378.142 151.5 377.762 151.82C377.922 152.14 378.002 152.54 378.002 153.02C378.002 153.5 377.842 153.92 377.522 154.28C377.222 154.62 376.792 154.79 376.232 154.79C375.292 154.79 374.822 154.24 374.822 153.14C374.822 152.02 375.242 151.16 376.082 150.56C376.922 149.96 378.102 149.66 379.622 149.66C381.142 149.66 382.312 150.02 383.132 150.74C383.972 151.44 384.392 152.41 384.392 153.65ZM381.932 158.48C381.112 157.78 380.232 157.43 379.292 157.43C377.492 157.43 376.592 158.23 376.592 159.83C376.592 161.47 377.302 162.29 378.722 162.29C379.242 162.29 379.792 162.16 380.372 161.9C380.972 161.62 381.442 161.28 381.782 160.88C381.882 159.68 381.932 158.88 381.932 158.48ZM400.042 154.79C399.482 154.79 399.042 154.62 398.722 154.28C398.422 153.92 398.272 153.49 398.272 152.99C398.272 152.47 398.342 152.08 398.482 151.82C398.042 151.48 397.522 151.31 396.922 151.31C394.802 151.31 393.742 153.19 393.742 156.95C393.742 158.67 394.012 159.99 394.552 160.91C395.092 161.83 395.852 162.29 396.832 162.29C397.832 162.29 399.062 161.67 400.522 160.43C401.102 161.03 401.472 161.82 401.632 162.8C399.952 163.9 398.242 164.45 396.502 164.45C394.762 164.45 393.452 163.82 392.572 162.56C391.712 161.3 391.282 159.44 391.282 156.98C391.282 154.52 391.762 152.69 392.722 151.49C393.682 150.27 395.042 149.66 396.802 149.66C398.182 149.66 399.302 149.99 400.162 150.65C401.022 151.29 401.452 152.14 401.452 153.2C401.452 154.26 400.982 154.79 400.042 154.79ZM415.932 154.79C415.372 154.79 414.932 154.62 414.612 154.28C414.312 153.92 414.162 153.49 414.162 152.99C414.162 152.47 414.232 152.08 414.372 151.82C413.932 151.48 413.412 151.31 412.812 151.31C410.692 151.31 409.632 153.19 409.632 156.95C409.632 158.67 409.902 159.99 410.442 160.91C410.982 161.83 411.742 162.29 412.722 162.29C413.722 162.29 414.952 161.67 416.412 160.43C416.992 161.03 417.362 161.82 417.522 162.8C415.842 163.9 414.132 164.45 412.392 164.45C410.652 164.45 409.342 163.82 408.462 162.56C407.602 161.3 407.172 159.44 407.172 156.98C407.172 154.52 407.652 152.69 408.612 151.49C409.572 150.27 410.932 149.66 412.692 149.66C414.072 149.66 415.192 149.99 416.052 150.65C416.912 151.29 417.342 152.14 417.342 153.2C417.342 154.26 416.872 154.79 415.932 154.79ZM423.063 156.89C423.063 152.07 424.943 149.66 428.703 149.66C432.463 149.66 434.343 152.07 434.343 156.89C434.343 159.11 433.993 160.87 433.293 162.17C432.493 163.69 430.963 164.45 428.703 164.45C426.443 164.45 424.913 163.69 424.113 162.17C423.413 160.87 423.063 159.11 423.063 156.89ZM425.523 156.83C425.523 160.47 426.583 162.29 428.703 162.29C430.823 162.29 431.883 160.47 431.883 156.83C431.883 153.17 430.823 151.34 428.703 151.34C426.583 151.34 425.523 153.17 425.523 156.83ZM441.148 160.13L441.178 156.92C441.178 155.14 441.098 153.43 440.938 151.79L439.828 151.7C439.768 151.38 439.738 151.05 439.738 150.71C439.738 150.37 439.748 150.14 439.768 150.02C440.788 150 442.028 149.91 443.488 149.75L443.638 149.9C443.458 151.08 443.368 153.19 443.368 156.23V157.64C443.368 159.32 443.518 160.52 443.818 161.24C444.138 161.94 444.668 162.29 445.408 162.29C446.448 162.29 447.578 161.68 448.798 160.46C448.838 160 448.858 159.11 448.858 157.79V156.92C448.858 155.14 448.778 153.43 448.618 151.79L447.507 151.7C447.448 151.36 447.418 151.03 447.418 150.71C447.418 150.37 447.428 150.14 447.448 150.02C448.468 150 449.708 149.91 451.168 149.75L451.318 149.9C451.138 151.08 451.048 153.19 451.048 156.23V157.19C451.048 158.83 451.138 160.43 451.318 161.99L452.428 162.05C452.468 162.49 452.488 162.82 452.488 163.04C452.488 163.24 452.458 163.49 452.398 163.79C451.618 163.83 450.528 163.93 449.128 164.09C448.968 163.73 448.848 163.23 448.768 162.59C447.268 163.83 445.888 164.45 444.628 164.45C443.368 164.45 442.468 164.1 441.928 163.4C441.408 162.7 441.148 161.61 441.148 160.13ZM470.036 153.5L470.006 156.41C470.006 158.51 470.126 160.46 470.366 162.26L471.416 162.35C471.456 162.79 471.476 163.1 471.476 163.28C471.476 163.44 471.446 163.69 471.386 164.03C470.826 164.01 469.986 164 468.866 164C467.746 164 466.946 164.01 466.466 164.03C466.406 163.73 466.376 163.45 466.376 163.19C466.376 162.91 466.396 162.63 466.436 162.35L467.486 162.26C467.646 159.92 467.726 157.92 467.726 156.26C467.726 154.58 467.556 153.38 467.216 152.66C466.896 151.94 466.336 151.58 465.536 151.58C464.456 151.58 463.266 152.23 461.966 153.53C461.946 154.05 461.936 155.27 461.936 157.19C461.936 159.09 462.026 160.78 462.206 162.26L463.316 162.35C463.356 162.79 463.376 163.1 463.376 163.28C463.376 163.44 463.346 163.69 463.286 164.03C462.726 164.01 461.906 164 460.826 164C459.746 164 458.956 164.01 458.456 164.03C458.396 163.73 458.366 163.45 458.366 163.19C458.366 162.91 458.386 162.63 458.426 162.35L459.476 162.26C459.656 160.26 459.746 158.43 459.746 156.77C459.746 155.09 459.666 153.43 459.506 151.79L458.396 151.7C458.336 151.36 458.306 151.03 458.306 150.71C458.306 150.37 458.316 150.14 458.336 150.02C459.356 150 460.596 149.91 462.056 149.75L462.206 149.9C462.166 150.14 462.106 150.74 462.026 151.7C462.646 151.08 463.366 150.59 464.186 150.23C465.006 149.85 465.776 149.66 466.496 149.66C468.856 149.66 470.036 150.94 470.036 153.5ZM477.992 159.14C477.992 159.14 478.012 156.91 478.052 152.45C478.052 152.15 478.042 151.92 478.022 151.76C477.182 151.76 476.582 151.77 476.222 151.79C476.102 151.47 476.042 151.16 476.042 150.86C476.042 150.54 476.062 150.3 476.102 150.14H477.932L477.782 147.92C478.282 147.76 478.802 147.68 479.342 147.68C479.902 147.68 480.362 147.72 480.722 147.8L480.452 150.11C481.552 150.09 482.662 150.03 483.782 149.93C483.902 150.19 483.962 150.48 483.962 150.8C483.962 151.1 483.922 151.47 483.842 151.91C483.102 151.87 481.932 151.83 480.332 151.79C480.292 152.19 480.272 152.78 480.272 153.56V159.65C480.272 160.17 480.292 160.6 480.332 160.94C480.392 161.26 480.522 161.56 480.722 161.84C480.942 162.1 481.252 162.23 481.652 162.23C482.532 162.23 483.372 161.92 484.172 161.3C484.592 161.9 484.802 162.71 484.802 163.73C483.702 164.21 482.742 164.45 481.922 164.45C481.122 164.45 480.482 164.34 480.002 164.12C479.522 163.92 479.152 163.68 478.892 163.4C478.632 163.1 478.432 162.69 478.292 162.17C478.092 161.43 477.992 160.42 477.992 159.14ZM511.145 153.5L511.115 156.41C511.115 158.53 511.235 160.48 511.475 162.26L512.525 162.35C512.565 162.67 512.585 162.95 512.585 163.19C512.585 163.41 512.555 163.69 512.495 164.03C511.795 164.01 510.965 164 510.005 164C509.065 164 508.255 164.01 507.575 164.03C507.515 163.73 507.485 163.47 507.485 163.25C507.485 163.01 507.505 162.71 507.545 162.35L508.595 162.26C508.755 160.1 508.835 158.18 508.835 156.5C508.835 154.82 508.685 153.58 508.385 152.78C508.105 151.98 507.525 151.58 506.645 151.58C505.525 151.58 504.325 152.22 503.045 153.5V156.32C503.045 158.78 503.135 160.76 503.315 162.26L504.425 162.35C504.465 162.67 504.485 162.95 504.485 163.19C504.485 163.41 504.455 163.69 504.395 164.03C503.695 164.01 502.885 164 501.965 164C501.045 164 500.245 164.01 499.565 164.03C499.505 163.73 499.475 163.47 499.475 163.25C499.475 163.01 499.495 162.71 499.535 162.35L500.585 162.26C500.765 160.38 500.855 158.64 500.855 157.04V152.93C500.855 149.33 500.805 146.88 500.705 145.58L499.505 145.49C499.445 145.23 499.415 144.93 499.415 144.59C499.415 144.23 499.425 143.97 499.445 143.81C501.265 143.71 502.565 143.62 503.345 143.54L503.465 143.69C503.185 146.07 503.045 148.75 503.045 151.73C503.645 151.13 504.365 150.64 505.205 150.26C506.045 149.86 506.845 149.66 507.605 149.66C509.965 149.66 511.145 150.94 511.145 153.5ZM523.392 157.34C522.412 157.34 521.502 157.29 520.662 157.19C520.702 160.59 521.832 162.29 524.052 162.29C525.172 162.29 526.412 161.67 527.772 160.43C528.352 161.03 528.722 161.82 528.882 162.8C527.242 163.9 525.502 164.45 523.662 164.45C521.822 164.45 520.452 163.82 519.552 162.56C518.652 161.28 518.202 159.41 518.202 156.95C518.202 154.49 518.702 152.66 519.702 151.46C520.722 150.26 522.162 149.66 524.022 149.66C525.402 149.66 526.542 150.08 527.442 150.92C528.342 151.76 528.792 152.79 528.792 154.01C528.812 155.23 528.712 156.1 528.492 156.62C526.992 157.1 525.292 157.34 523.392 157.34ZM523.812 151.34C521.952 151.34 520.912 152.71 520.692 155.45C521.592 155.55 522.582 155.6 523.662 155.6C524.742 155.6 525.582 155.5 526.182 155.3C526.262 154.8 526.302 154.43 526.302 154.19C526.302 153.31 526.072 152.62 525.612 152.12C525.172 151.6 524.572 151.34 523.812 151.34ZM535.517 162.26C535.697 160.26 535.787 158.43 535.787 156.77C535.787 155.09 535.707 153.43 535.547 151.79L534.437 151.7C534.377 151.38 534.347 151.05 534.347 150.71C534.347 150.37 534.357 150.14 534.377 150.02C535.397 150 536.637 149.91 538.097 149.75L538.247 149.9C538.227 150.02 538.167 150.61 538.067 151.67C538.527 151.09 539.057 150.61 539.657 150.23C540.277 149.85 540.877 149.66 541.457 149.66C542.057 149.66 542.577 149.87 543.017 150.29C543.457 150.71 543.677 151.26 543.677 151.94C543.677 153.06 543.207 153.62 542.267 153.62C541.727 153.62 541.297 153.45 540.977 153.11C540.657 152.75 540.497 152.28 540.497 151.7C540.457 151.68 540.387 151.67 540.287 151.67C539.547 151.67 538.787 152.23 538.007 153.35C537.987 153.91 537.977 155.17 537.977 157.13C537.977 159.07 538.067 160.78 538.247 162.26L539.357 162.35C539.397 162.79 539.417 163.1 539.417 163.28C539.417 163.44 539.387 163.69 539.327 164.03C538.767 164.01 537.947 164 536.867 164C535.787 164 534.997 164.01 534.497 164.03C534.437 163.73 534.407 163.45 534.407 163.19C534.407 162.91 534.427 162.63 534.467 162.35L535.517 162.26ZM553.327 157.34C552.347 157.34 551.437 157.29 550.597 157.19C550.637 160.59 551.767 162.29 553.987 162.29C555.107 162.29 556.347 161.67 557.707 160.43C558.287 161.03 558.657 161.82 558.817 162.8C557.177 163.9 555.437 164.45 553.597 164.45C551.757 164.45 550.387 163.82 549.487 162.56C548.587 161.28 548.137 159.41 548.137 156.95C548.137 154.49 548.637 152.66 549.637 151.46C550.657 150.26 552.097 149.66 553.957 149.66C555.337 149.66 556.477 150.08 557.377 150.92C558.277 151.76 558.727 152.79 558.727 154.01C558.747 155.23 558.647 156.1 558.427 156.62C556.927 157.1 555.227 157.34 553.327 157.34ZM553.747 151.34C551.887 151.34 550.847 152.71 550.627 155.45C551.527 155.55 552.517 155.6 553.597 155.6C554.677 155.6 555.517 155.5 556.117 155.3C556.197 154.8 556.237 154.43 556.237 154.19C556.237 153.31 556.007 152.62 555.547 152.12C555.107 151.6 554.507 151.34 553.747 151.34ZM566.952 152.75C566.952 149.07 566.692 146.19 566.172 144.11C566.772 143.89 567.352 143.78 567.912 143.78C568.472 143.78 568.992 143.84 569.472 143.96C569.072 147.74 568.872 151.97 568.872 156.65C568.872 157.31 568.892 157.96 568.932 158.6C568.552 158.72 568.212 158.78 567.912 158.78C567.612 158.78 567.272 158.72 566.892 158.6C566.932 156.48 566.952 154.53 566.952 152.75ZM569.922 162.35C569.922 162.95 569.742 163.45 569.382 163.85C569.022 164.25 568.472 164.45 567.732 164.45C566.592 164.45 566.022 163.87 566.022 162.71C566.022 161.27 566.752 160.55 568.212 160.55C569.352 160.55 569.922 161.15 569.922 162.35Z" fill="#393939"/>
</g>
<defs>
<clipPath id="clip0">
<rect width="693" height="170" fill="white"/>
</clipPath>
</defs>
</svg>
